<mxfile host="drawio-plugin" modified="2021-10-12T06:15:05.491Z" agent="5.0 (Windows NT 6.2; Win64; x64) AppleWebKit/537.36 (KHTML, like Gecko) Chrome/84.0.4147.105 Safari/537.36" etag="3c1Tvy216IZl3v1pBEri" version="14.6.6" type="embed"><diagram id="23iRSUPoRavnBvh4doch" name="Page-1"><mxGraphModel dx="1029" dy="743" grid="1" gridSize="10" guides="1" tooltips="1" connect="1" arrows="1" fold="1" page="1" pageScale="1" pageWidth="827" pageHeight="1169" math="0" shadow="0"><root><mxCell id="0"/><mxCell id="1" parent="0"/><mxCell id="94" value="" style="group" parent="1" vertex="1" connectable="0"><mxGeometry x="9" y="30" width="811" height="1515.54" as="geometry"/></mxCell><mxCell id="62" value="" style="group" parent="94" vertex="1" connectable="0"><mxGeometry x="41" width="730" height="370" as="geometry"/></mxCell><mxCell id="63" value="" style="group" parent="62" vertex="1" connectable="0"><mxGeometry x="20" y="-10" width="680" height="370" as="geometry"/></mxCell><mxCell id="5" value="" style="rounded=0;whiteSpace=wrap;html=1;fillColor=#f5f5f5;strokeColor=#666666;fontColor=#333333;" parent="63" vertex="1"><mxGeometry width="680" height="370" as="geometry"/></mxCell><mxCell id="6" value="" style="group;fillColor=#dae8fc;strokeColor=#6c8ebf;" parent="63" vertex="1" connectable="0"><mxGeometry x="170" y="80" width="370" height="210" as="geometry"/></mxCell><mxCell id="36" style="edgeStyle=orthogonalEdgeStyle;rounded=0;orthogonalLoop=1;jettySize=auto;html=1;exitX=0;exitY=0.25;exitDx=0;exitDy=0;entryX=0.014;entryY=0.173;entryDx=0;entryDy=0;entryPerimeter=0;" parent="6" source="2" target="35" edge="1"><mxGeometry relative="1" as="geometry"/></mxCell><mxCell id="2" value="" style="rounded=0;whiteSpace=wrap;html=1;fillColor=#b0e3e6;strokeColor=#0e8088;" parent="6" vertex="1"><mxGeometry width="370" height="210" as="geometry"/></mxCell><mxCell id="4" value="&lt;font style=&quot;font-size: 15px&quot;&gt;&lt;b&gt;MyDataApp&lt;/b&gt;&lt;/font&gt;" style="text;html=1;strokeColor=none;fillColor=none;align=center;verticalAlign=middle;whiteSpace=wrap;rounded=0;" parent="6" vertex="1"><mxGeometry x="135.66666666666666" y="10" width="98.66666666666666" height="20" as="geometry"/></mxCell><mxCell id="45" style="edgeStyle=orthogonalEdgeStyle;rounded=0;orthogonalLoop=1;jettySize=auto;html=1;exitX=1;exitY=0.25;exitDx=0;exitDy=0;entryX=-0.033;entryY=0.164;entryDx=0;entryDy=0;entryPerimeter=0;" parent="6" source="35" target="44" edge="1"><mxGeometry relative="1" as="geometry"/></mxCell><mxCell id="46" style="edgeStyle=orthogonalEdgeStyle;rounded=0;orthogonalLoop=1;jettySize=auto;html=1;exitX=1;exitY=0.5;exitDx=0;exitDy=0;entryX=0;entryY=0.5;entryDx=0;entryDy=0;" parent="6" source="35" target="44" edge="1"><mxGeometry relative="1" as="geometry"/></mxCell><mxCell id="47" style="edgeStyle=orthogonalEdgeStyle;rounded=0;orthogonalLoop=1;jettySize=auto;html=1;exitX=1;exitY=0.75;exitDx=0;exitDy=0;entryX=0.017;entryY=0.836;entryDx=0;entryDy=0;entryPerimeter=0;" parent="6" source="35" target="44" edge="1"><mxGeometry relative="1" as="geometry"/></mxCell><mxCell id="35" value="Request Handler" style="rounded=1;whiteSpace=wrap;html=1;" parent="6" vertex="1"><mxGeometry x="10" y="30" width="50" height="150" as="geometry"/></mxCell><mxCell id="43" value="Netty Server" style="text;html=1;strokeColor=none;fillColor=none;align=center;verticalAlign=middle;whiteSpace=wrap;rounded=0;" parent="6" vertex="1"><mxGeometry x="147.5" y="180" width="75" height="20" as="geometry"/></mxCell><mxCell id="49" style="edgeStyle=orthogonalEdgeStyle;rounded=0;orthogonalLoop=1;jettySize=auto;html=1;exitX=1;exitY=0.25;exitDx=0;exitDy=0;entryX=-0.02;entryY=0.32;entryDx=0;entryDy=0;entryPerimeter=0;" parent="6" source="44" target="48" edge="1"><mxGeometry relative="1" as="geometry"/></mxCell><mxCell id="50" style="edgeStyle=orthogonalEdgeStyle;rounded=0;orthogonalLoop=1;jettySize=auto;html=1;exitX=1;exitY=0.75;exitDx=0;exitDy=0;entryX=0;entryY=0.687;entryDx=0;entryDy=0;entryPerimeter=0;" parent="6" source="44" target="48" edge="1"><mxGeometry relative="1" as="geometry"/></mxCell><mxCell id="51" style="edgeStyle=orthogonalEdgeStyle;rounded=0;orthogonalLoop=1;jettySize=auto;html=1;exitX=1;exitY=0.5;exitDx=0;exitDy=0;entryX=0;entryY=0.5;entryDx=0;entryDy=0;" parent="6" source="44" target="48" edge="1"><mxGeometry relative="1" as="geometry"/></mxCell><mxCell id="44" value="Event Queue&lt;br&gt;&lt;font style=&quot;font-size: 7px&quot;&gt;(Event Loop)&lt;/font&gt;" style="shape=process;whiteSpace=wrap;html=1;backgroundOutline=1;" parent="6" vertex="1"><mxGeometry x="155" y="50" width="60" height="110" as="geometry"/></mxCell><mxCell id="48" value="Reactive Driver" style="rounded=1;whiteSpace=wrap;html=1;" parent="6" vertex="1"><mxGeometry x="300" y="30" width="50" height="150" as="geometry"/></mxCell><mxCell id="33" value="" style="group" parent="63" vertex="1" connectable="0"><mxGeometry x="10" y="110" width="171" height="145" as="geometry"/></mxCell><mxCell id="9" value="" style="group" parent="33" vertex="1" connectable="0"><mxGeometry y="5" width="80" height="140" as="geometry"/></mxCell><mxCell id="8" value="&lt;span style=&quot;color: rgba(0 , 0 , 0 , 0) ; font-family: monospace ; font-size: 0px&quot;&gt;%3CmxGraphModel%3E%3Croot%3E%3CmxCell%20id%3D%220%22%2F%3E%3CmxCell%20id%3D%221%22%20parent%3D%220%22%2F%3E%3CmxCell%20id%3D%222%22%20value%3D%22%22%20style%3D%22rounded%3D0%3BwhiteSpace%3Dwrap%3Bhtml%3D1%3BfillColor%3D%23b0e3e6%3BstrokeColor%3D%230e8088%3B%22%20vertex%3D%221%22%20parent%3D%221%22%3E%3CmxGeometry%20x%3D%22240%22%20y%3D%22100%22%20width%3D%22370%22%20height%3D%22210%22%20as%3D%22geometry%22%2F%3E%3C%2FmxCell%3E%3C%2Froot%3E%3C%2FmxGraphModel%3E&lt;/span&gt;&lt;span style=&quot;color: rgba(0 , 0 , 0 , 0) ; font-family: monospace ; font-size: 0px&quot;&gt;%3CmxGraphModel%3E%3Croot%3E%3CmxCell%20id%3D%220%22%2F%3E%3CmxCell%20id%3D%221%22%20parent%3D%220%22%2F%3E%3CmxCell%20id%3D%222%22%20value%3D%22%22%20style%3D%22rounded%3D0%3BwhiteSpace%3Dwrap%3Bhtml%3D1%3BfillColor%3D%23b0e3e6%3BstrokeColor%3D%230e8088%3B%22%20vertex%3D%221%22%20parent%3D%221%22%3E%3CmxGeometry%20x%3D%22240%22%20y%3D%22100%22%20width%3D%22370%22%20height%3D%22210%22%20as%3D%22geometry%22%2F%3E%3C%2FmxCell%3E%3C%2Froot%3E%3C%2FmxGraphModel%3E&lt;/span&gt;" style="rounded=0;whiteSpace=wrap;html=1;" parent="9" vertex="1"><mxGeometry width="80" height="140" as="geometry"/></mxCell><mxCell id="7" value="Client" style="shape=umlActor;verticalLabelPosition=bottom;verticalAlign=top;html=1;outlineConnect=0;" parent="9" vertex="1"><mxGeometry x="25" y="40" width="30" height="60" as="geometry"/></mxCell><mxCell id="10" style="edgeStyle=orthogonalEdgeStyle;rounded=0;orthogonalLoop=1;jettySize=auto;html=1;exitX=1;exitY=0.121;exitDx=0;exitDy=0;entryX=0;entryY=0.25;entryDx=0;entryDy=0;exitPerimeter=0;" parent="33" source="8" edge="1"><mxGeometry relative="1" as="geometry"><mxPoint x="101" y="22.5" as="sourcePoint"/><mxPoint x="171" y="22.5" as="targetPoint"/></mxGeometry></mxCell><mxCell id="11" style="edgeStyle=orthogonalEdgeStyle;rounded=0;orthogonalLoop=1;jettySize=auto;html=1;exitX=1;exitY=0.125;exitDx=0;exitDy=0;entryX=0;entryY=0.25;entryDx=0;entryDy=0;exitPerimeter=0;" parent="33" edge="1"><mxGeometry relative="1" as="geometry"><mxPoint x="81" y="32.5" as="sourcePoint"/><mxPoint x="171" y="32.5" as="targetPoint"/></mxGeometry></mxCell><mxCell id="12" style="edgeStyle=orthogonalEdgeStyle;rounded=0;orthogonalLoop=1;jettySize=auto;html=1;exitX=1;exitY=0.125;exitDx=0;exitDy=0;entryX=0;entryY=0.25;entryDx=0;entryDy=0;exitPerimeter=0;" parent="33" edge="1"><mxGeometry relative="1" as="geometry"><mxPoint x="81" y="43.5" as="sourcePoint"/><mxPoint x="171" y="43.5" as="targetPoint"/></mxGeometry></mxCell><mxCell id="13" style="edgeStyle=orthogonalEdgeStyle;rounded=0;orthogonalLoop=1;jettySize=auto;html=1;exitX=1;exitY=0.125;exitDx=0;exitDy=0;entryX=0;entryY=0.25;entryDx=0;entryDy=0;exitPerimeter=0;" parent="33" edge="1"><mxGeometry relative="1" as="geometry"><mxPoint x="81" y="53.5" as="sourcePoint"/><mxPoint x="171" y="53.5" as="targetPoint"/></mxGeometry></mxCell><mxCell id="14" style="edgeStyle=orthogonalEdgeStyle;rounded=0;orthogonalLoop=1;jettySize=auto;html=1;exitX=1;exitY=0.125;exitDx=0;exitDy=0;entryX=0;entryY=0.25;entryDx=0;entryDy=0;exitPerimeter=0;" parent="33" edge="1"><mxGeometry relative="1" as="geometry"><mxPoint x="81" y="64.5" as="sourcePoint"/><mxPoint x="171" y="64.5" as="targetPoint"/></mxGeometry></mxCell><mxCell id="15" style="edgeStyle=orthogonalEdgeStyle;rounded=0;orthogonalLoop=1;jettySize=auto;html=1;exitX=1;exitY=0.125;exitDx=0;exitDy=0;entryX=0;entryY=0.25;entryDx=0;entryDy=0;exitPerimeter=0;" parent="33" edge="1"><mxGeometry relative="1" as="geometry"><mxPoint x="81" y="74.5" as="sourcePoint"/><mxPoint x="171" y="74.5" as="targetPoint"/></mxGeometry></mxCell><mxCell id="16" style="edgeStyle=orthogonalEdgeStyle;rounded=0;orthogonalLoop=1;jettySize=auto;html=1;exitX=1;exitY=0.125;exitDx=0;exitDy=0;entryX=0;entryY=0.25;entryDx=0;entryDy=0;exitPerimeter=0;" parent="33" edge="1"><mxGeometry relative="1" as="geometry"><mxPoint x="81" y="85.5" as="sourcePoint"/><mxPoint x="171" y="85.5" as="targetPoint"/></mxGeometry></mxCell><mxCell id="17" style="edgeStyle=orthogonalEdgeStyle;rounded=0;orthogonalLoop=1;jettySize=auto;html=1;exitX=1;exitY=0.125;exitDx=0;exitDy=0;entryX=0;entryY=0.25;entryDx=0;entryDy=0;exitPerimeter=0;" parent="33" edge="1"><mxGeometry relative="1" as="geometry"><mxPoint x="81" y="95.5" as="sourcePoint"/><mxPoint x="171" y="95.5" as="targetPoint"/></mxGeometry></mxCell><mxCell id="18" style="edgeStyle=orthogonalEdgeStyle;rounded=0;orthogonalLoop=1;jettySize=auto;html=1;exitX=1;exitY=0.125;exitDx=0;exitDy=0;entryX=0;entryY=0.25;entryDx=0;entryDy=0;exitPerimeter=0;" parent="33" edge="1"><mxGeometry relative="1" as="geometry"><mxPoint x="81" y="104.5" as="sourcePoint"/><mxPoint x="171" y="104.5" as="targetPoint"/></mxGeometry></mxCell><mxCell id="19" style="edgeStyle=orthogonalEdgeStyle;rounded=0;orthogonalLoop=1;jettySize=auto;html=1;exitX=1;exitY=0.125;exitDx=0;exitDy=0;entryX=0;entryY=0.25;entryDx=0;entryDy=0;exitPerimeter=0;" parent="33" edge="1"><mxGeometry relative="1" as="geometry"><mxPoint x="81" y="114.5" as="sourcePoint"/><mxPoint x="171" y="114.5" as="targetPoint"/></mxGeometry></mxCell><mxCell id="20" style="edgeStyle=orthogonalEdgeStyle;rounded=0;orthogonalLoop=1;jettySize=auto;html=1;exitX=1;exitY=0.125;exitDx=0;exitDy=0;entryX=0;entryY=0.25;entryDx=0;entryDy=0;exitPerimeter=0;" parent="33" edge="1"><mxGeometry relative="1" as="geometry"><mxPoint x="81" y="125.5" as="sourcePoint"/><mxPoint x="171" y="125.5" as="targetPoint"/></mxGeometry></mxCell><mxCell id="22" value="Request" style="text;html=1;strokeColor=none;fillColor=none;align=center;verticalAlign=middle;whiteSpace=wrap;rounded=0;" parent="33" vertex="1"><mxGeometry x="100" y="-5" width="40" height="20" as="geometry"/></mxCell><mxCell id="52" value="Mongo DB" style="shape=cylinder3;whiteSpace=wrap;html=1;boundedLbl=1;backgroundOutline=1;size=15;" parent="63" vertex="1"><mxGeometry x="600" y="130" width="60" height="110" as="geometry"/></mxCell><mxCell id="59" style="edgeStyle=orthogonalEdgeStyle;rounded=0;orthogonalLoop=1;jettySize=auto;html=1;exitX=1;exitY=0.25;exitDx=0;exitDy=0;entryX=0;entryY=0;entryDx=0;entryDy=35;entryPerimeter=0;" parent="63" source="48" target="52" edge="1"><mxGeometry relative="1" as="geometry"/></mxCell><mxCell id="61" style="edgeStyle=orthogonalEdgeStyle;rounded=0;orthogonalLoop=1;jettySize=auto;html=1;exitX=1;exitY=0.75;exitDx=0;exitDy=0;entryX=0;entryY=0;entryDx=0;entryDy=75;entryPerimeter=0;" parent="63" source="48" target="52" edge="1"><mxGeometry relative="1" as="geometry"/></mxCell><mxCell id="88" value="" style="group" parent="94" vertex="1" connectable="0"><mxGeometry y="390" width="810" height="260" as="geometry"/></mxCell><mxCell id="64" value="" style="rounded=0;whiteSpace=wrap;html=1;fillColor=#f5f5f5;strokeColor=#666666;fontColor=#333333;" parent="88" vertex="1"><mxGeometry width="810" height="260" as="geometry"/></mxCell><mxCell id="65" value="&#10;&#10;&lt;b style=&quot;color: rgb(0, 0, 0); font-family: helvetica; font-size: 15px; font-style: normal; letter-spacing: normal; text-align: center; text-indent: 0px; text-transform: none; word-spacing: 0px; background-color: rgb(248, 249, 250);&quot;&gt;MyDataApp&lt;/b&gt;&#10;&#10;" style="rounded=0;whiteSpace=wrap;html=1;fillColor=#b0e3e6;strokeColor=#0e8088;" parent="88" vertex="1"><mxGeometry x="140" y="30" width="580" height="210" as="geometry"/></mxCell><mxCell id="67" value="&lt;span style=&quot;color: rgba(0 , 0 , 0 , 0) ; font-family: monospace ; font-size: 0px&quot;&gt;%3CmxGraphModel%3E%3Croot%3E%3CmxCell%20id%3D%220%22%2F%3E%3CmxCell%20id%3D%221%22%20parent%3D%220%22%2F%3E%3CmxCell%20id%3D%222%22%20value%3D%22%22%20style%3D%22rounded%3D0%3BwhiteSpace%3Dwrap%3Bhtml%3D1%3BfillColor%3D%23b0e3e6%3BstrokeColor%3D%230e8088%3B%22%20vertex%3D%221%22%20parent%3D%221%22%3E%3CmxGeometry%20x%3D%22240%22%20y%3D%22100%22%20width%3D%22370%22%20height%3D%22210%22%20as%3D%22geometry%22%2F%3E%3C%2FmxCell%3E%3C%2Froot%3E%3C%2FmxGraphModel%3E&lt;/span&gt;&lt;span style=&quot;color: rgba(0 , 0 , 0 , 0) ; font-family: monospace ; font-size: 0px&quot;&gt;%3CmxGraphModel%3E%3Croot%3E%3CmxCell%20id%3D%220%22%2F%3E%3CmxCell%20id%3D%221%22%20parent%3D%220%22%2F%3E%3CmxCell%20id%3D%222%22%20value%3D%22%22%20style%3D%22rounded%3D0%3BwhiteSpace%3Dwrap%3Bhtml%3D1%3BfillColor%3D%23b0e3e6%3BstrokeColor%3D%230e8088%3B%22%20vertex%3D%221%22%20parent%3D%221%22%3E%3CmxGeometry%20x%3D%22240%22%20y%3D%22100%22%20width%3D%22370%22%20height%3D%22210%22%20as%3D%22geometry%22%2F%3E%3C%2FmxCell%3E%3C%2Froot%3E%3C%2FmxGraphModel%3E&lt;/span&gt;" style="rounded=0;whiteSpace=wrap;html=1;" parent="88" vertex="1"><mxGeometry x="10" y="67" width="80" height="140" as="geometry"/></mxCell><mxCell id="68" value="Client" style="shape=umlActor;verticalLabelPosition=bottom;verticalAlign=top;html=1;outlineConnect=0;" parent="88" vertex="1"><mxGeometry x="35" y="105" width="30" height="60" as="geometry"/></mxCell><mxCell id="73" value="&lt;span style=&quot;font-family: &amp;#34;jetbrains mono&amp;#34; , monospace ; font-weight: 700 ; background-color: rgb(255 , 255 , 255) ; line-height: 120%&quot;&gt;&lt;font style=&quot;font-size: 10px&quot;&gt;MyDataResource Controller&lt;/font&gt;&lt;/span&gt;" style="rounded=0;whiteSpace=wrap;html=1;" parent="88" vertex="1"><mxGeometry x="160" y="67" width="80" height="140" as="geometry"/></mxCell><mxCell id="74" value="Request" style="edgeStyle=orthogonalEdgeStyle;rounded=0;orthogonalLoop=1;jettySize=auto;html=1;exitX=1;exitY=0.25;exitDx=0;exitDy=0;entryX=0;entryY=0.25;entryDx=0;entryDy=0;" parent="88" source="67" target="73" edge="1"><mxGeometry relative="1" as="geometry"/></mxCell><mxCell id="75" value="Response" style="edgeStyle=orthogonalEdgeStyle;rounded=0;orthogonalLoop=1;jettySize=auto;html=1;exitX=0;exitY=0.75;exitDx=0;exitDy=0;entryX=1;entryY=0.75;entryDx=0;entryDy=0;" parent="88" source="73" target="67" edge="1"><mxGeometry relative="1" as="geometry"/></mxCell><mxCell id="76" value="&lt;span style=&quot;font-family: &amp;#34;jetbrains mono&amp;#34; , monospace ; font-weight: 700 ; background-color: rgb(255 , 255 , 255) ; line-height: 120%&quot;&gt;&lt;font style=&quot;font-size: 10px&quot;&gt;MyDataService&lt;/font&gt;&lt;/span&gt;" style="rounded=0;whiteSpace=wrap;html=1;" parent="88" vertex="1"><mxGeometry x="390" y="65" width="80" height="140" as="geometry"/></mxCell><mxCell id="77" value="Non-Blocking Request" style="edgeStyle=orthogonalEdgeStyle;rounded=0;orthogonalLoop=1;jettySize=auto;html=1;exitX=1;exitY=0.25;exitDx=0;exitDy=0;entryX=0;entryY=0.25;entryDx=0;entryDy=0;" parent="88" source="73" target="76" edge="1"><mxGeometry relative="1" as="geometry"/></mxCell><mxCell id="78" value="Non-Blocking Request" style="edgeStyle=orthogonalEdgeStyle;rounded=0;orthogonalLoop=1;jettySize=auto;html=1;exitX=0;exitY=0.75;exitDx=0;exitDy=0;entryX=1;entryY=0.75;entryDx=0;entryDy=0;" parent="88" source="76" target="73" edge="1"><mxGeometry relative="1" as="geometry"/></mxCell><mxCell id="82" value="Non-Blocking Request" style="edgeStyle=orthogonalEdgeStyle;rounded=0;orthogonalLoop=1;jettySize=auto;html=1;exitX=0;exitY=0.75;exitDx=0;exitDy=0;entryX=1;entryY=0.75;entryDx=0;entryDy=0;" parent="88" source="79" target="76" edge="1"><mxGeometry x="-0.08" relative="1" as="geometry"><Array as="points"><mxPoint x="521" y="170"/><mxPoint x="521" y="170"/></Array><mxPoint as="offset"/></mxGeometry></mxCell><mxCell id="79" value="&lt;pre style=&quot;background-color: rgb(255 , 255 , 255) ; font-family: &amp;#34;jetbrains mono&amp;#34; , monospace ; color: rgb(8 , 8 , 8)&quot;&gt;&lt;h6 style=&quot;font-family: &amp;#34;jetbrains mono&amp;#34; , monospace&quot;&gt;&lt;span style=&quot;color: rgb(0 , 0 , 0) ; line-height: 100%&quot;&gt;&lt;font style=&quot;font-size: 9px&quot;&gt;MyDataRepository&lt;/font&gt;&lt;/span&gt;&lt;/h6&gt;&lt;/pre&gt;" style="rounded=0;whiteSpace=wrap;html=1;" parent="88" vertex="1"><mxGeometry x="620" y="65" width="80" height="140" as="geometry"/></mxCell><mxCell id="81" value="Non-Blocking Request" style="edgeStyle=orthogonalEdgeStyle;rounded=0;orthogonalLoop=1;jettySize=auto;html=1;exitX=1;exitY=0.25;exitDx=0;exitDy=0;entryX=0;entryY=0.25;entryDx=0;entryDy=0;" parent="88" source="76" target="79" edge="1"><mxGeometry relative="1" as="geometry"><Array as="points"><mxPoint x="500" y="100"/><mxPoint x="500" y="100"/></Array></mxGeometry></mxCell><mxCell id="84" value="MongoDB" style="shape=cylinder3;whiteSpace=wrap;html=1;boundedLbl=1;backgroundOutline=1;size=15;" parent="88" vertex="1"><mxGeometry x="740" y="57" width="60" height="160" as="geometry"/></mxCell><mxCell id="85" style="edgeStyle=orthogonalEdgeStyle;rounded=0;orthogonalLoop=1;jettySize=auto;html=1;exitX=1;exitY=0.25;exitDx=0;exitDy=0;entryX=0;entryY=0;entryDx=0;entryDy=43.75;entryPerimeter=0;" parent="88" source="79" target="84" edge="1"><mxGeometry relative="1" as="geometry"/></mxCell><mxCell id="86" style="edgeStyle=orthogonalEdgeStyle;rounded=0;orthogonalLoop=1;jettySize=auto;html=1;exitX=1;exitY=0.75;exitDx=0;exitDy=0;entryX=0;entryY=0;entryDx=0;entryDy=112.5;entryPerimeter=0;" parent="88" source="79" target="84" edge="1"><mxGeometry relative="1" as="geometry"/></mxCell><mxCell id="87" value="&lt;b style=&quot;color: rgb(0, 0, 0); font-family: helvetica; font-size: 15px; font-style: normal; letter-spacing: normal; text-align: center; text-indent: 0px; text-transform: none; word-spacing: 0px; background-color: rgb(248, 249, 250);&quot;&gt;MyDataApp&lt;/b&gt;" style="text;whiteSpace=wrap;html=1;" parent="88" vertex="1"><mxGeometry x="375" y="30" width="110" height="30" as="geometry"/></mxCell><mxCell id="91" value="" style="shape=image;verticalLabelPosition=bottom;labelBackgroundColor=#ffffff;verticalAlign=top;aspect=fixed;imageAspect=0;image=data:image/png,iVBORw0KGgoAAAANSUhEUgAABQIAAAISCAYAAACXqLLUAAAgAElEQVR4Aezd349cV2LYef4/xkbC9COfONiXOMBChB0n8KwR7MrGguMFFoi4HmD5sH4VOBxKIBIxiCf2EOuFRsiMW+ZkHcMPWSjKxGraK9vcnWA8StMILMfikNK4JZItks2zOOfec++5t6q6q7t+1/0IaHd3/bh165zPLY6/fW7VueA/I2AEjIARMAJGwAgYASNgBIyAETACRsAIGAEjYAS2fgTObf0z9ASNgBEwAkbACBgBI2AEjIARMAJGwAgYASNgBIyAEQhCIARGwAgYASNgBIyAETACRsAIGAEjYASMgBEwAkZgACMgBA5gkj1FI2AEjIARMAJGwAgYASNgBIyAETACRsAIGAEjIAQyYASMgBEwAkbACBgBI2AEjIARMAJGwAgYASNgBAYwAufe/+Fe8GUMGGCAAQYYYIABBhhggAEGGGCAAQYY2C4D/bZpRWB/RPxuBIyAETACRsAIGAEjYASMgBEwAkbACBgBI2AEtnAEhMAtnFRPyQgYASNgBIyAETACRsAIGAEjYASMgBEwAkbACPRHIIXAFy9ehPh1dHTkyxgwwAADDDDAAAMMMMAAAwwwwAADDDCwoQZy5+tHwPj7uRj/nj9/Hp4+fRq+/PLLcHh46MsYMMAAAwwwwAADDDDAAAMMMMAAAwwwsGEGYtuLjS+2vtj8YhQs/zsXr3z8+HH4/PPPw89+9rPw6aefpq+HDx8GX8aAAQYYYIABBhhggAEGGGCAAQYYYICB9TaQe15se7HxxdYXm18/Bp774osvwpP/9P3w/Pf/YXj+nZd9GQMGGGCAAQYYYIABBhhggAEGGGCAAQY21cDv/8PU+mLzyzEwrwo8lyLgv/774cX+H4Tw6JMQHt33ZQwYYIABBhhggAEGGGCAAQYYYIABBhjYOAOfpMb3/F///RQD48rAeJpwPkX4XFwJWEVAAVAEZYABBhhggAEGGGCAAQYYYIABBhhgYNMNxNYXm9/BwUFaFdiGwO+8bCXgxtVdB+SmH5D2n2EGGGCAAQYYYIABBhhggAEGGFicgU/Sqd3xPQPjB4jE9wqM/52L7wu4uAc1ocaWAQYYYIABBhhggAEGGGCAAQYYYICBZRuIzS9+iMjh4eEUIfDTH4ejP7oUnt/6ijeHzG8OeesraUzCpz8WT62iZIABBhhggAEGGGCAAQYYYIABBhhYWwMxBMZPe54qBKYImAOY750YGsdm2RXX4/nLAQMMMMAAAwwwwAADDDDAAAMMMMDAtAZOFQKtBHy5E//i4DVft74iBCr+DDDAAAMMMMAAAwwwwAADDDDAAANra+B0IbAMX35uI2A9FtPWV7dT6hlggAEGGGCAAQYYYIABBhhggAEGlm1ACJxj0Fz25Hk8LxgMMMAAAwwwwAADDDDAAAMMMMAAA9MaEAKFwLVdrjotYrfzgscAAwwwwAADDDDAAAMMMMAAAwycbEAIFAKFQO9dwAADDDDAAAMMMMAAAwwwwAADDAzAgBAoBDrQB3Cg+6vIyX8VMUbGiAEGGGCAAQYYYIABBhhgYNsNrFUIfPGzMP6/n9Sfznvng+r6n/1e54M6qvsdhBd3roUXX47fRLr0v17r3C8++Xl+nQ3Le+HGhYvh/NX3FhPk9t8Jlxe5fRFtMfNmXI0rAwwwwAADDDDAAAMMMMAAAwzM2cBahcDnn8VcdxCevPdz4b+8Gb+uhieH1WUv7rwcnu99EF7EXz/7fjfg1fd7vvdy+Pyf1/d974/DUbztp9+rt/Vz4af/cr7hrx8RzxQC338znL/wWri9v6DqfpYQmPbpYrj89o8We8BN89zTbd4Md0fg/yjcvrSEfRx53DHzNHEfx9x2mu0t4TZ3r67J2C3huZ7puLRfiz32ja/xZYABBhhggAEGGGCAAQZWYmAtQ2AMejmyff6f/nPMeeFFXM03RQjM95t42zmvAmwe7zsvn2ECq5h1/tI74eGiDoC1DYHxub8Wblx97fjgODGyCYGzBC4hcH0j7Szz6r7mlQEGGGCAAQYYYIABBhgYhoH//X/7X8O/+7e/d+oWtfYh8Plf1iHwb7YwBKbIdTHceD8jrePW1Ter03kvvBluv/1aOB9P7U2xsA6HF7or5B7Wt2m2k+NfvF/+Kk49zrfP17Ur/+rTlPN9mu/dFYuT75+fxxTf4z7G55T2tft8QrH/N67GFZPt9TFgVePxZrgxYUVgilzNGOaxq/ep2Haz3TgPTYztBcZx+xejbbGdift4ob/qrhzf+jn1t1/sSxXr3qlOHY9zcfW90I59OSfZRTU2jYO0rWqcqrmu7tNuo96/4rksdHXqomK37Z76hd//MJjiNYorrhhggAEGGGCAAQYYYGBNDcQIeO7cufQVfz7N/4+35iEwv+ffQXj6H6c7NbhZoTdp9eAarQisolYbucKjHHTiZcV7B6Zg2I04TezJ98khK0edHP7G/H6jOOW32ocyKt0PIT1eP2K1Ie3E+09xoMQYlQNk3If2+VTPu7wuB7sqYJUBbfw+dsa1fv7V9qtt58dKt0vjFi/P8/BeuHHptXA5j18ci/xz87xOt4/V41Vzmx87PZe43bR/+bHrsa/nctzzyPuSrqv3q/y5mrt6Put5LB+/vH81xt39Svcfeb6iyWleVN2WFwYYYIABBhhggAEGGGCAgUUZyBEwfi9/nvbx1jAEpjOBi/8T3zPwvwmf//aWhcA6UOXgVU1YHQJTiCmiVRECQxkIY5jqxJ779YqxIuz1Q2ATs6qDMq8Oy4Eq7Ue9ze6+jT+Ix96/9xijGOPzLPYxPl6OT/0wVvweg1e5T/3f8+N0wlgdStPzS8+riG7NtosYtv9OuPH2e+H2pep2cVudsYnPrblfPSbF7/19avaluE3ez/S9f3ncxzIE5nFJ896OWRMSaw/tPhbPpfd82/vcD+1+Frc/cd7GG+g8H9s41V9ijB1TDDDAAAMMMMAAAwwwwAAD0xoYF/7GXXbc9tYwBJYfFhI/+KOOgHEl36RVfsWHhWzKisAqoBVRKgWUKspUUWxSCKwiTl4ll0JTs5otX9cGo+YU1iYo1Y/RnPbbO5007kcKSN3o1iKa4v4nxaAUv4rTltO+1GPRi1dtdKsed9oQ2N6uul8bAvuPW41VnI94n/g93vbu1Xh5vG8xlvl5nWIfm/jWv0/e1gkhsH0e0UO7L812cxjuzWe6X3zMvFL0UR2JawdtCIwvuJW16vThvkkvyK19Y2EsGGCAAQYYYIABBhhggAEGVmPguOB33HX9+VrLEFh+WEgT9mII/O3vh+dxreAxnxrc3H5SNFyLU4Pr8NLEuYyojmzp8skhMMe9G+9Xt2lj0ckhsAqHvaB0obfqLUWr8SFwqvvnyDXhe9pG77k3Yaofxorfm9vU2+3/nnF3L++FwCKM5dun7/Fxrr5XB8Aqmt14u34fw/7zKPapuW8dY7uPXc9HfK79++Rt9i5Pga9YEdjObZzr3rw1TtrLO89p6hCY/XVPTe5sK++v71b8McAAAwwwwAADDDDAAAMMMLBUA9OEvmluE////M0Kgd95KXz5aSyBB+HFnfzJwr8XXsSLDj8Ih/H04Rz61jgEpthTRJ02uEwZAvP7AqZVYL0I1Il49fbi7erwFkNVXk1YrgRrTy3Np76292n3L4fGvGqsDpr9kHjsC0IROIvbtQGs2uccwDr7m55b/dgpoE2Olfn++X0Xq+fXfexqHornEt8bMK+ujKcIx9+L91Nsx2HyPna2We/jxMeOwa9zm3q+ThUCi9gYx7Pc3lQhsBsYvUdgEUULn+3cu95YMMAAAwwwwAADDDDAAAMMLM/AtIEvzsk0t92wEPhyePwvfi58kWJg8TaCh38cPvvnfy88zREwfl/bENiNPd2Dp76uWelVr9RLAawb/KrgdFysq06BvZze7664XR2Kmk+Rff+d9AnFnRCYTyNtTjctHnvK+3efV3GAlDGvDC1lwCoe4/Lb8VNzc6zLIbKKmfETlceFuu6qvGpMm+dXbLv/CbkpOtbBtIqkxfMu97UIbnEcJ+9jL1R2Hrt9Ts1cxjj8dns6b/d5dINduk+zr7Wber6aMTkmBObHTLdNc5JPmW73a+Ic9sfC70v9S5B5KV5P2GOPAQYYYIABBhhggAEGttjAv/u3v3fqTwY+KQauVQiMka/znoBl2Ct+rm4Xb1t/9SNgvO1v/73w03j9v3ipXSVYbKNZOTjHy6b6f9Dr6NKEqbOCTds5JlSddbvu50WUAQYYYIABBhhggAEGGGCAAQYYWLmBGAJj2JuqNxXzFe8Xv8bdb61C4CLi3DK3OW6AF3NZdYprPt13MY9h1Y1xZYABBhhggAEGGGCAAQYYYIABBrbJgBC47BWBRaE9PaTiFNBJH3ox0/Yd3KefE2NmzBhggAEGGGCAAQYYYIABBhhgYDMMCIEbFQI3A5WD3zwxwAADDDDAAAMMMMAAAwwwwAAD62dACBQCx54z7mBdv4PVnJgTBhhggAEGGGCAAQYYYIABBhiYxYAQKAQKgU6nZoABBhhggAEGGGCAAQYYYIABBgZgQAgUAh3oAzjQZ/lrgfv6axMDDDDAAAMMMMAAAwwwwAAD22HgdCHw1ldCvIOvMWNw6yuCmqDGAAMMMMAAAwwwwAADDDDAAAMMMLC2Bk4VAo/+6JIIOCGExrFRx7ejjptH88gAAwwwwAADDDDAAAMMMMAAA9to4FQhMHz645BioJWBbRC99ZU0JnFsthGI5+SFjwEGGGCAAQYYYIABBhhggAEGGNgOA6cLgZZ2in0MMMAAAwwwwAADDDDAAAMMMMAAAwxspAEhENyNhOsvEdvxlwjzaB4ZYIABBhhggAEGGGCAAQYYWJ4BIVAIFAIZYIABBhhggAEGGGCAAQYYYIABBgZgQAgcwCQr68sr68baWDPAAAMMMMAAAwwwwAADDDDAwLoaEAKFQMWfAQYYYIABBhhggAEGGGCAAQYYYGAABiaGwGe/83KIX099GQMGGGCAAQYYYIABBhhggAEGGGCAAQY21kDufGND4NPffjmEo2e+jAEDDDDAAAMMMMAAAwwwwAADDDDAAANbYiA2v4cPH4bDw8NwdHQU4n/nHn/7JRO8JRMs6AraDDDAAAMMMMAAAwwwwAADDDDAAAPRQGx+Dx486IbAR78lBDpAHCAMMMAAAwwwwAADDDDAAAMMMMAAA9tkIDY/IdDqPytAGWCAAQYYYIABBhhggAEGGGCAAQa23IAQuOUTvE3V2nPxVxgGGGCAAQYYYIABBhhggAEGGGDg7AaEQCFQ7WeAAQYYYIABBhhggAEGGGCAAQYYGIABIXAAk6yUn72UGztjxwADDDDAAAMMMMAAAwwwwAAD22JACBQCFX8GGGCAAQYYYIABBhhggAEGGGCAgQEYEAIHMMnbUq09D3+BYYABBhhggAEGGGCAAQYYYGD5Bl4cPQ0vnldfR8++DL4WPwZ5vOPYz9O8ECgEzhXUPHHa1vJf3I25MWeAAQYYYIABBhhggAEGGCgNxCD15x/+P+HmzbfCb/7mb/pa4hjEMY9jH+egnJNZfhYChcC5YZoFovv6h4YBBhhggAEGGGCAAQYYYICB9TIQA9Sfffin4Y033ggf/eQv9YMlN6Q45nHs4xzMKwYKgUueRC9q6/WiZj7MBwMMMMAAAwwwwAADDDDAAAOjBuIpqc+fHoabb70lAq6wHcUYGOcgzsU8ThMWAlc4mV5oRl9ojIkxYYABBhhggAEGGGCAAQYYYGD1BuIKtKeHj9OpwOZjtfMRT8mOczGPVYFCoBBoaS8DDDDAAAMMMMAAAwwwwAADDDDQMRCj0+HjL4TANXARQ2CcCyFwDSZDFV9tFTf+xp8BBhhggAEGGGCAAQYYYICB+RuI0emJENiJo6tyFkNgnAshUAhcC5CrOhA87vxf6I2pMWWAAQYYYIABBhhggAEGGIgGjp59GZ48+tyKwDVoTykEPvo8zcmsx+dSTg1++L1vhPMXLo58Xf7ex0LWGoCaFZH7+0eCAQYYYIABBhhggAEGGGCAge0ysPgQ+HG4/fXRVpT70WzN6MNwI3aor/8gPNyC7rKxIfDGXntQ3P1WNdnlZev3ovFhuLElaNZvbFsL9s1YMMAAAwwwwAADDDDAAAMMMLBeBhYfAovn+/EPwuUY7r714ZwWjI2GwLhIbWENKu7/3Pa9GJc6Ym5FCAxzn+TRgZrtRWQUzWzbm/f+2Z75YIABBhhggAEGGGCAAQYYYICBxRjY7BDYHZN8pupCQuAS+tZWhsA8KSNLQJsBvVkt67xwM9w9ehYm3T5ffuN7dU1OpyTfDHf3branJper/PL261OXKxT95anfCLc/fhaaeNm5bYWrWuH4jXDjW9Vp0HEJa96Xkee0BctSvdB2X1SMh/FggAEGGGCAAQYYYIABBhjYJgMrD4G513wr96D/JXWd8pTh3GJSs+m0lmJxV9mDjll1mM9crRpO3YHSNottpd9zM4p9qr6u7kTn62Y1bwdbEQLzAKfwVk9KLrOdicwTXw7mMbdv4lu9JLP5vY5/+fcEJ2+7c9s82b2JPva2z0J+Pg3I+vb5985z6uD0QjnvA8T2mGKAAQYYYIABBhhggAEGGGBgNgNrEwKbHlQHuGZxV6/bdFpL97rcgnJ36tvoN5vu7bvbCkdlCCwWjTk1uAWXBzCvjMvf+xPQvV1vFd6YAR13+3xZDnChjobjfs+3bfajE++6E338bXMIzBGxgBCrcIO0HZM+Or8bGwYYYIABBhhggAEGGGCAAQYYWBcDaxMCix5UtZm6vfR7z5lDYN1/iscJeaVfuqzbh4TAzkCPP2BHIlr/PvXk5SWUnRLbW4mXDohjbj/yWH0Yxe/5tjlMNt/HTPTxtx0TAo/yZeUn4FSnNa/LQW0/xns1LsaFAQYYYIABBhhggAEGGGBg6AbWMQTmt2yLi7067ajfmXLI650d2iwEK28/rjt17i8EnvoTXHJEGzvgTTBrV9N1JnPMhHSu791/5LGK8JcO4uL3kduWEDqT3r4n4bTPofuCUaM55lz07u294BoPBhhggAEGGGCAAQYYYIABBhhYnYG1DIH5tNyvf6P6lOGJZ2B2491U/ceKwPlhO37A25VzKbLl8Hdh8qnBVQi8WH3sc+/2I49VhL/0AlL+nu9bT3b3vr1zz4+9bX4ObcwcOSW5vn9zinInOs5vrL1IGksGGGCAAQYYYIABBhhggAEGGJjVwHqGwHahVjyrc3Jj6YbA3GimXdw1tg/l9yrMfSj/nheSdULifP1txYeFdEEWK+YuXAw3vlV9wm8nDHYGdPLtu5P1LOTJbnCUITDGuGYCq1N4m9v1Ppm4sy/1p8GUt+2vUkzPr36s7inH88XQHUfbNh4MMMAAAwwwwAADDDDAAAMMMDC7gXUNgW3HKRZjjSy26oXAHOuO+RyHvOisaji9bZd951s/CLe/HhtS+/Zv7X179xvZr7PNy8aFQAfg2SbauBk3BhhggAEGGGCAAQYYYIABBhhYhYGlhsDTBLO8oGviacHb50UIPA0Qtz31ezqu4gXGY27fC5U5NacMMMAAAwwwwAADDDDAwOYaWNcQmM8ELc/S3HZnQqC4J+4xwAADDDDAAAMMMMAAAwwwwAADCzOwfiGw/iyHY07v3dYgKAQ60Bd2oG/rQeN5be5focyduWOAAQYYYIABBhhggAEGlm9g/ULg8sdgXdwJgUKgEMgAAwwwwAADDDDAAAMMMMAAAwwszIAQuD7hUQh0oC/sQF+X2m0/1ucFx1yYCwYYYIABBhhggAEGGGBgeAZePH8anjz+IsQIZf5XO/8pBD7+IsQ5mXUuHv3WS+HBgwfh8PAwHB0dhfjfuXjhrBt2/9UiMf7GnwEGGGCAAQYYYIABBhhggAEGzmogRqfDx1+Em2+9FT76yV/qRCtalBbHPs5BnAshcEWTcNaDyP28ADPAAAMMMMAAAwwwwAADDDDAwCYYiNHp6eHj8Cd39sIbb7whBq6gQcUIGMc+zkGcCyFwBZOwCQerffSPCgMMMMAAAwwwwAADDDDAAAMMzGLgxdHT8PzpYXj8xUG4s/dBeOutt9JpwvE0VV/LGYM45nHs4xzEuYhzMsucxvs6NVhMnBnRrAjd3z9ODDDAAAMMMMAAAwwwwAADDKyfgbgC7dmXT1KI+rvPHoZPH/w0PPzpJ76WMAZxrOOYxwgY52AeqwHjMSYECoFCIAMMMMAAAwwwwAADDDDAAAMMMDDWQAxQcTVaPDU1vk/dk0ef+1rCGMSxjmOeVgLO4UNCcmgXAh3oYw/0DMT39fuLjDkxJwwwwAADDDDAAAMMMMAAA8s0EE9JjUEwfh09+9LXEsYgj/c8TgcurcwlBL548P+F59952deMY3D0+78kygmzDDDAAAMMMMAAAwwwwAADDDDAAAMLMSAEzhjv5hlAhUB/0SkrvZ95YIABBhhggAEGGGCAAQYYYICBeRoQAoXAhRTmeSK1LS96DDDAAAMMMMAAAwwwwAADDDDAwOwGhEAhUAi03JgBBhhggAEGGGCAAQYYYIABBhgYgIG5hEBFdvYiawyNIQMMMMAAAwwwwAADDDDAAAMMMMDAIg0IgQOovYsEZNteoBhggAEGGGCAAQYYYIABBhhggIHNMDA+BH77JctBBUIGGGCAAQYYYIABBhhggAEGGGCAAQa2yMCjb78UHjx4EA4PD8PR0VGI/5178q9eCp9/ci98+vFPwqd//Ze+jAEDDDDAAAMMMMAAAwwwwAADDDDAAAObauDjn6TWF5vfSAh8+jsvh6d/9zfhy8/+Ohz6MgYMMMAAAwwwwAADDDDAAAMMMMAAAwxsrIHY+GLri83v4cOH3RWBz7/zcnjxxSe+jAEDDDDAAAMMMMAAAwwwwAADDDDAAANbYiA2v7EhMDy6H3wZAwYYYIABBhhggAEGGGCAAQYYYIABBrbDgBAoeAq+DDDAAAMMMMAAAwwwwAADDDDAAAMDMCAEDmCSVfvtqPbm0TwywAADDDDAAAMMMMAAAwwwwMAsBoRAIVDxZ4ABBhhggAEGGGCAAQYYYIABBhgYgAEhcACTPEspdl9/aWCAAQYYYIABBhhggAEGGGCAAQa2w4AQKAQq/gwwwAADDDDAAAMMMMAAAwwwwAADAzAgBA5gklX77aj25tE8MsAAAwwwwAADDDDAAAMMMMDALAaEQCFQ8WeAAQYYYIABBhhggAEGGGCAAQYYGIABIXAAkzxLKXZff2lggAEGGGCAAQYYYIABBhhggAEGtsOAECgEKv4MMMAAAwwwwAADDDDAAAMMMMAAAwMwIAQOYJJV++2o9ubRPDLAAAMMMMAAAwwwwAADDDDAwCwGhEAhUPFngAEGGGCAAQYYYIABBhhggAEGGBiAgaWEwIdvvxbOX3gt3N7vVdv33wznL70THg5goGepte7bc8OLF2cGGGCAAQYYYIABBhhggAEGGGDg1AaWGAIvhvNX3+vu4LaHwP13wuVxARTUrgPjYTwYYIABBhhggAEGGGCAAQYYYICBhRtYXgi89Fq4fOFiuPF+sbpLCFz4BFtNWHjzgsIbAwwwwAADDDDAAAMMMMAAAwwM2MASQ+A74W46RfjNcDcPeC8EVqcQXwznL1ycfMpwXmX39pvV7S5cDJff/lGLOF1fbyNuJ69CTJe/GW5cra6rguSPwu1LxW0v5H2rLr/89jvhRtxG3p9y2+UpzeXlzQrA99r7NpfdD3frx0/bzPv2qHq8G1fr5xQv72yzF1Dz+PnezruxMBYMMMAAAwwwwAADDDDAAAMMMMDAsQaWGgIf1sGrCXdlCIw/90JcE/HKScyBLIe4+vcy7DWrDtN19XsT1rdrHvvR/ZDCYy/GVdfnQJjDYB31xj5mdV3zmOXzKB8/P17eRmcs6sfrXddsM20n74sVblY5MsAAAwwwwAADDDDAAAMMMMAAAwyc3sCSQ+D9eqVbHeeKEJhWyjVR7n4IZVAbEwKbSPaoXmVX3jffPm2jDIFjPrAk3/ZRFfTKENhGw7xCMK88LOJf8RwqgPXqvngKdCcEFpfnx2zu299+9bsPUjk9aC8CxowBBhhggAEGGGCAAQYYYIABBhgYb2D5ITCHu7j6bWIIOykEdoNeubKvc+ptel/CY0JgCoX51ODXwuVL+TTj8WGuDYNtCOyczpxPI86nK3dCYHWfdEpwcbtqFWT/8eJk1TEw37ZZLTh+IgE3LgwwwAADDDDAAAMMMMAAAwwwwAADxxlYSQgM9eq79J54deCay4rATnjrrcjrX9c5NTciKWNc+XP/uvh7GwLTysVJka7zmNU2y5WM7cT0H6+Ptnq8NkT2r/d7O5bGwlgwwAADDDDAAAMMMMAAAwwwwAAD4wysKATmFX/Fh4Kk1Xn5ffCqMHbsewTmU4FTbKs/TKP8Oa88zB/U0YlyEUPvMerVgac+NbiMgvGU33Ifeo+ZVg8W0TDFz/R7PwQWoTGdRlxdPz4igj0Otsu4YIABBhhggAEGGGCAAQYYYIABBroGVhcCc4grwljnNNvi8s6k1XHtxtXXxn5qcHlq8I33i6DWi3Jpm+WpwVffqz7RNwXGfpjr/15st4h/+bTfduVedb94eY545f71PxylvV8bFPM2x0bR/F6Dvh/7iTgdP8bKWDHAAAMMMMAAAwwwwAADDDDAwEANLCUEzjXEjAt6A528uY6rMfQiyAADDDDAAAMMMMAAAwwwwAADDGy1ASEQ8K0GLpZ2lwAbD+PBAAMMMMAAAwwwwAADDDDAwHANCIFCoBDIAAMMMMAAAwwwwAADDDDAAAMMMDAAA5sXAgcwKcr8cMu8uTf3DDDAAAMMMMAAAwwwwAADDDCwKANCoLCo+DPAAAMMMMAAAwwwwAADDDDAAAMMDMCAEDiASV5URbZdf6FggAEGGGCAAQYYYIABBhhggAEGNseAECgEKv4MMAGd4LMAACAASURBVMAAAwwwwAADDDDAAAMMMMAAAwMwIAQOYJKV+c0p8+bKXDHAAAMMMMAAAwwwwAADDDDAwKIMCIFCoOLPAAMMMMAAAwwwwAADDDDAAAMMMDAAA0LgACZ5URXZdv2FggEGGGCAAQYYYIABBhhggAEGGNgcA0KgEKj4M8AAAwwwwAADDDDAAAMMMMAAAwwMwIAQOIBJVuY3p8ybK3PFAAMMMMAAAwwwwAADDDDAAAOLMiAECoGKPwMMMMAAAwwwwAADDDDAAAMMMMDAAAwIgQOY5EVVZNv1FwoGGGCAAQYYYIABBhhggAEGGGBgcwwIgUKg4s8AAwwwwAADDDDAAAMMMMAAAwwwMAADQuAAJlmZ35wyb67MFQMMMMAAAwwwwAADDDDAAAMMLMqAECgEKv4MMMAAAwwwwAADDDDAAAMMMMAAAwMwIAQOYJIXVZFt118oGGCAAQYYYIABBhhggAEGGGCAgc0xIAQKgYo/AwwwwAADDDDAAAMMMMAAAwwwwMAADAiBA5hkZX5zyry5MlcMMMAAAwwwwAADDDDAAAMMMLAoA0KgEKj4M8AAAwwwwAADDDDAAAMMMMAAAwwMwIAQOIBJXlRFtl1/oWCAAQYYYIABBhhggAEGGGCAAQY2x8DEEPjii09C/DryZQwYYIABBhhggAEGGGCAAQYYYIABBhjYWAO5840NgU9/++UQjp75MgYMMMAAAwwwwAADDDDAAAMMMMAAAwxsiYHY/B4+fBgODw/D0dFRiP+de/ztl0zwlkywoCtoM8AAAwwwwAADDDDAAAMMMMAAAwxEA7H5PXjwoBsCH/2WEOgAcYAwwAADDDDAAAMMMMAAAwwwwAADDGyTgdj8hECr/6wAZYABBhhggAEGGGCAAQYYYIABBhjYcgNC4JZP8DZVa8/FX2EYYIABBhhggAEGGGCAAQYYYICBsxsQAoVAtZ8BBhhggAEGGGCAAQYYYIABBhhgYAAGhMABTLJSfvZSbuyMHQMMMMAAAwwwwAADDDDAAAMMbIsBIVAIVPwZYIABBhhggAEGGGCAAQYYYIABBgZgQAgcwCRvS7X2PPwFhgEGGGCAAQYYYIABBhjYbAMvjp6FF8+fhufPvgzPnx6GZ18+8WUMGBhjIB4f8TiJx0s8bub12icEznEw5zUptjM/4MbSWDLAAAMMMMAAAwwwwAAD62EgBcCnh+H/+oM/DK/+2v8cLvy3/50vY8DAMQbicRKPlxgF4/Ezj9cyIVAInAukeWC0jfX4x9k8mAcGGGCAAQYYYIABBhiYt4G4oinGjH/zb/4g/KNf/h/D+//hj8Pjx4/DkydPfBkDBsYYiMdHPE7i8RKPmxQD59CwhMA5DOK8XyBtzz+6DDDAAAMMMMAAAwwwwAAD22QgrmZ68viL8D+8+uvh/ff/o/AzJvyIoqLwOAPxeInHTTx+5rEqUAgUAq0IZIABBhhggAEGGGCAAQYYYGChBuJ7nR387NN0GqiVgILXuODlsvEu4vEST6OPx088jmb9A4EQ6MV+ZkSzInR/f+lkgAEGGGCAAQYYYIABBrbbQDyt8dMH91PQEHzGBx/jYlwmGYghMB4/8Tia9bVSCBQCu4j++J+FcPvH3cumGaN4v5s/PP39ptm22xhXBhhggAEGGGCAAQYYYGCjDTx7ehge/PQTIdApwU4LP4OBGALj8ROPIyHQPwYzI5gVUbq/ELge8+B4MA8MMMAAAwwwwAADDDCwhgaeffkkPLj/t0LgGSLQpFViLh/OCsIUAu//bYjH0awNZykrAh9+7xvh/IWLY75uhrtr+AI1zaDm53Rjbx7Ltz8Ot78ex+cs4/HjEH4trsb71XpFXvz9V6uvZmVfcdnNvHKvvt+DuP/Fz82KwPqy47b74IftYzXbncd42MY0Bt2GEwYYYIABBhhggAEGGNgUA0LgcKKVQDn/ud7YENiJZh//IFyOcfBbH85cMxf3wvdhuPH1H4SHY2LleoXAXw3ho/ofwNu/GsIfPwzh6GEVB+Pl8bIcBePP6RTeIv5NDIFn2a5/iBfn0dgaWwYYYIABBhhggAEGGNhMA+sWAj/+7m+kxUpv/DBGmz8Jb8Q+cend8PE8V+z91bvhn8btfvNP5nQ6bLWfcZ//9JtxMdFvhO//1fyjk5C3fmO6HSHwaJZVcMt44fsw3IgH7EaEwH8WQlrZV8e/vCIwfo9RsImDz0JoTuGdJgQet92/qkJjio7ldpcxNx7D//hhgAEGGGCAAQYYYIABBjbJwFBCYAyMVVx8Ep7MOwT+8K1w/sJb4U+fCIFDi5VbGwLvfqs4fbgT4HI0jNd/I9z+3s1U7i9/7+O0mrC63zfC7Y+rfwhGVuvl1Ycx7F24GMqVifm2+dTlapvl49WPWW87v9Dm+934Xr2ycUw07DyfuN/lNvaq55Ae91s/KE4NHhMg69vm55v3ofpeBr169V+Oc3kl48QVgfWKv3SKbx39+qcGp8B4mu36x7g7P8bDeDDAAAMMMMAAAwwwwAAD6x0C57MCrLvKcD7bLINX2v68Vy3OcwWkbc1p5eeone0IgTnO1acGd2NeHcPq65rolt6Pr410OYx17/ssdG7fe5zqujrK1deN386YIJfD2lH7GM2pzb1Yd+w+HfW23UTB6j0CO/t49Cz0t9X9R7QXAsv37fu1369Pu463qd83sHwvvxgI4+Xxsvg+gzH6TQqBp9luMU7dffWPn/FggAEGGGCAAQYYYIABBoZo4OwhsD5tt17Yk1fExUCWT49945vVab5xoc0//e5/qWNMPt33rfDGpbzoqD2Vthvt8m3bU4Pz9XnRULPK78l/Cd9vthe3W28zrdbLj1OfDjxmRWC1z/l27f6Upyd/P532W92mfdz6+danGefnnk8N7m73YrsqMca5vB95DItTlfPzfOO79WnM8TZi48KCXhl2T/PzxobAfAA135v3B+yFsSZ+xTCWw1/xQRqniG6dKBgDVRn/ciQcs5ov9GNdL26NbLdz+27IrF7ki8t6+x/6z7Hcx8525/APZnNq8By21RuTIf5j5jlzxAADDDDAAAMMMMAAAwycbOBsIbCObjlM5aDViWFt/GuiVvm+fznUNQGvOrV27G3rx+le1wbHGN2q4FZto4x38b0F+/drAlxnf9v41719Dp75+n6crH7PYbATAusIWV2XQ2W9j70xm7TP+X0Mu/s0ujLtNPHKbec3fhsbAqtTcnPYuxjySrwmuuU63XyPK/dGI2HohbT+irky0uWfm/iYt91ZiZhrfPyeg+OYxy3CV95ue5pxfl43w90cGJvQGV8U2+19VH+K8tj7pseotxVPj+4915n/gREC1/jDaU7+x3Pm+S8M25bxZoABBhhggAEGGGCAgWUZOFsIzCElR7L6/3efENa64a0f0rqhrhu8ytv2QtrY013zber9mRAQx+5PsRqviXLpsnIf4vPOj1EGvRwJc5Csfy9XI3a2n59ze78Y56rnXl3WHYcn4Um9rXZlZZ4D36cJm+fOnQtXrlwZWVEYL4vXTbONcbfZ8BDYrspL7/eX3jevjWSjn9BbBLYcMXpxbJoQ2Ea3SS/09T7EUJgC3nH71J4a3G63vH3987gQGC/r7f/IisDm1ONvhMtfjy8svfcXzOPgu6jHAAMMMMAAAwwwwAADDDCwAQbOFgJzDKtX/fVWt3VWxaVgV8a08uc6YhWRqxvAytuWP4/Gr+YU3DHxrrvN4pTceNvevlexp3ys8uf4uPm51yEw7XteidgLgc1t6zAZu0YdJ0fHKIfA6vThkX0uxmhckHLZqIlyTHLwK2PguMvK+0zz8+aHwCZ0tZ/K2415ZVTrR7ccBtsVhd3Vee31KdL1Vud1btsPcp1TcotVeWNeVPN2mk8V7m2r+3z6z6H7/HIYbFcjlrG0HaNl/aXG40yKxS5ngwEGGGCAAQYYYIABBhg4i4EzhcB+POv9PhK5Otf3w9pxAay8bS/AdVYElreLQaj7+0hUG7c/nRV79f3HRMV+CEzPNZ8iXbw/Yn6PwCYm5ces3y+x2icrApvx6czn8VHvrPcpw1/581m3F++3FSGwXQXXBr0qnuWCnU/RrV5k2+tGPzW4Oe02nfZ7M9zun3qbY2B9WnB7SvKzZnVec+pwsYqviX29TxqOL3r5uhvfKj/998POX6LafR6zqq/cp86nBud/VNqg2dnfMVHyLC/C7pPH2XcWGGCAAQYYYIABBhhggIFFG5gpBHZWt9UfxNHEsPb3boirI9uF/MEZ3cA39rYTTvFtY1reZrUyL28jr77Lp9Xm9/HrrwLsh8t8/+r23ajYDYHVvpen65bb6m6nPb03bTeHwSZAdh9n0n3Lx5olYA31vjkATjpV+LTjsnEhcO4vKL3Vd3Pf/lrEthwCnRa8nfPrf2iYVwYYYIABBhhggAEGGBiOgTOFwOb97OoFQ5fqTwDuhMHfCN//7lshL+5pA1YbvNpP4W1XxnUDWHvb+KEfMdLk6/N2m7hXnzpbXf5WeCN9wm8+ZbfeTj41dyTC5VN68wKodn/6qwu7IbDabrMPTQRt79/f33YcilOU68VR+YNByufZbNupwWd+H79+3Isx8A//8A/nsj0hcAghMK8YjB8YshZhcjj/QPkfI+aaAQYYYIABBhhggAEGGJivgbOGwH5cKX8vV8WVl1c/j8a90dss5tTQZTzO8c99c5/XMsZuEx9DCNzyEJhPO/YhIfP9h8c/5MaTAQYYYIABBhhggAEGGFiNASFwvnGuCoF5JeJ8t72JoWzb91kItEKu816E/iFbzT9kxt24M8AAAwwwwAADDDDAAAPTGRAC5xTr8unG9YeBbHsA8/wqN0KgECgEMsAAAwwwwAADDDDAAAMMMLAxBhYRAkWiOcXFJXySrrmaba6EQC/2G/Ni769j0/11zDgZJwYYYIABBhhggAEGGNhmA0LgbCFISBv2+AmBQqAQyAADDDDAAAMMMMAAAwwwwMDGGHj29DA8+OknIQaNx48fz+WTVMWxYcexocx/PF5SCPzpJyEeR7P+weDRb70UHjx4EA4PD8PR0VGI/52LF866Yff31ywGGGCAAQYYYIABBhhggAEGGIgGnj89DJ8+uB9+5Z/8T+Hf//v/IAQ6HZeBKQ3E4yUeN/H4icfRrK+pQqC/IM2MaFaE7u9/GDDAAAMMMMAAAwwwwAAD223g+bMvw8HPPg3/5+++HX7xH/2TFAOtDLSibyir+s7yPOPxESNgPF7icROPn3gczfpaKQQKgTMjmhWh+2/3P/jm1/wywAADDDDAAAMMMMDAi+dPw5PHX4RP/uvH4dat/yN87Vd+LZ3uGE959GUMGBhvIB4n8XiJx008fuJxNOvrqRAoBM6MaFaE7u9/FDDAAAMMMMAAAwwwwAAD223gRX168KPP/y5Fjf/8kx+HH/2/fxHu/vmfhb/48w/DX/yZL2PAQDLw5x+m4yIeH/E4iREwHjfxtOB4HM36WikEzmEQZ50E958dsjE0hgwwwAADDDDAAAMMMMDAehuIq5lizIgrm+JpjvE9zx7c/1tfxoCBMQbi8RGPk3i8pAg4h9WA8TVSCBQCZ67J/rFd739szY/5YYABBhhggAEGGGCAgXUxEFc0pSD47MsUN559+ST4MgYMjBqI8S++J2A8XuaxEjC/BgiBQqAQyAADDDDAAAMMMMAAAwwwwAADDDAwAANC4AAmOVdf3/0VkAEGGGCAAQYYYIABBhhggAEGGBiuASFQCFT8GWCAAQYYYIABBhhggAEGGGCAAQYGYEAIHMAkK/3DLf3m3twzwAADDDDAAAMMMMAAAwwwwEA2IAQKgYo/AwwwwAADDDDAAAMMMMAAAwwwwMAADIwPgd9+yeQPYPJzDfbdXwYYYIABBhhggAEGGGCAAQYYYICB7Tfw6NsvhQcPHoTDw8NwdHQU4n/nnvyrl8Lnn9wLn378k/DpX/+lL2PAAAMMMMAAAwwwwAADDDDAAAMMMMDAphr4+Cep9cXmNxICn/7Oy+Hp3/1N+PKzvw6HvowBAwwwwAADDDDAAAMMMMAAAwwwwAADG2sgNr7Y+mLze/jwYXdF4PPvvBxefPGJL2PAAAMMMMAAAwwwwAADDDDAAAMMMMDAlhiIzW9sCAyP7gdfxoABBhhggAEGGGCAAQYYYIABBhhggIHtMCAECp6CLwMMMMAAAwwwwAADDDDAAAMMMMDAAAwIgQOYZNV+O6q9eTSPDDDAAAMMMMAAAwwwwAADDDAwiwEhUAhU/BlggAEGGGCAAQYYYIABBhhggAEGBmBACBzAJM9Sit3XXxoYYIABBhhggAEGGGCAAQYYYICB7TAgBAqBij8DDDDAAAMMMMAAAwwwwAADDDDAwAAMCIEDmGTVfjuqvXk0jwwwwAADDDDAAAMMMMAAAwwwMIsBIVAIVPwZYIABBhhggAEGGGCAAQYYYIABBgZgQAgcwCTPUord118aGGCAAQYYYIABBhhggAEGGGCAge0wIAQKgYo/AwwwwAADDDDAAAMMMMAAAwwwwMAADAiBA5hk1X47qr15NI8MMMAAAwwwwAADDDDAAAMMMDCLASFQCFT8GWCAAQYYYIABBhhggAEGGGCAAQYGYEAIHMAkz1KK3ddfGhhggAEGGGCAAQYYYIABBhhggIHtMCAECoGKPwMMMMAAAwwwwAADDDDAAAMMMMDAAAwIgQOYZNV+O6q9eTSPDDDAAAMMMMAAAwwwwAADDDAwiwEhUAhU/BlggAEGGGCAAQYYYIABBhhggAEGBmBACBzAJM9Sit3XXxoYYIABBhhggAEGGGCAAQYYYICB7TAgBAqBij8DDDDAAAMMMMAAAwwwwAADDDDAwAAMCIEDmGTVfjuqvXk0jwwwwAADDDDAAAMMMMAAAwwwMIsBIVAIVPwZYIABBhhggAEGGGCAAQYYYIABBgZgQAgcwCTPUord118aGGCAAQYYYIABBhhggAEGGGCAge0wIAQKgYo/AwwwwAADDDDAAAMMMMAAAwwwwMAADAiBA5hk1X47qr15NI8MMMAAAwwwwAADDDDAAAMMMDCLASFQCFT8GWCAAQYYYIABBhhggAEGGGCAAQYGYEAIHMAkz1KK3ddfGhhggAEGGGCAAQYYYIABBhhggIHtMLB+IfD9N8P5C2+Gu+MCXXHdw7dfC+cvXBz5uvH+dkyMA8w8MsAAAwwwwAADDDDAAAMMMMAAAwzM08Bmh8BL74SHZTBMofBi2OQYePfqxXD+6nuW45bz6mceGGCAAQYYYIABBhhggAEGGGCAgZkNbFcIfHQ/pJWC/UC4QVCEQKV/nqXftnhigAEGGGCAAQYYYIABBhhggIFsYGkhMAWu5lTe18Lt/XYSyutuXO2eGjzpuonBrzh9OD7JzinEvUA49rre/cP+O+HyhXp/6+tuF6clx9WHnX0sTk0uL29X+f0o3L50MVy++ma43IxHdSp0Z3/SqsDqts0p0FYKzly+M3zf2+PPWBgLBhhggAEGGGCAAQYYYIABBoZhYDkhMAa0IsKlQJajVie85fBVv0fgMddNDIFjwl31foP1tsc+bh3z4nWdx7wfRkPgxXD57R+lIJXDXT4VOT2v+nl296+Of+l+vef4qLtf5dikbeT9rW+XH8sBOowD1DybZwYYYIABBhhggAEGGGCAAQYYmJeB5YTAzqm5k8NXelJFiCujWP+6bmgrQBQh8Lj7j1yX97F4/PSYxfZGImHvtu0+Vc+xE+3ibVMkrK7LMTE+Rrkv5c9pe3k1Yt4/360KZIABBhhggAEGGGCAAQYYYIABBhg4g4HlhMAU0/In/L4WLl/KH4gxGsWqFXhxReBx1x3zXoBNnBtz/+Ouy4PX3KaOi2cKge+FG81pv/l5x+/jn1cZ/8qfYySsYmDeRveU6hQq83777gWAAQYYYIABBhhggAEGGGCAAQYYYOAYA0sJgf24Vf5e/pzCVhHijruuXX1XrAbMq+vq03OPu//IdXmQisdP+3OmEFhFyM6KwLz9MYGz3Jfy537oS9cVp1j3r/d714LxMB4MMMAAAwwwwAADDDDAAAMMMMBAa2B5ITAHrLw6ML/3XQpv7Uq3FLvSyrn79fv1jb9ubAhM27oYmgDXiXpVnGs+tKNzXbHCsN6/vI3O6bm9+/RPFS73qfw5gmsj3uhKxTL+Tfo5biNtM49bExbbyQTbWDDAAAMMMMAAAwwwwAADDDDAAAMMTDKwlBBYne5bn9566Z1wN37qbg6DOXDVp9JWn6Zbf1jIMddVgS6fMpu/t9EwP+HO7YrHjNd3rsvxMUe7vD9vvxNu5PfpO0UIjNuvombet/ycjg+BVVy82Hk/weZTg4t9zM/Pdwc3AwwwwAADDDDAAAMMMMAAAwwwwMA0BpYTAq1ec346AwwwwAADDDDAAAMMMMAAAwwwwAADKzUgBAK4UoDT1Gq38VcNBhhggAEGGGCAAQYYYIABBhhgYHYDQqAQKAQywAADDDDAAAMMMMAAAwwwwAADDAzAgBA4gElWzGcv5sbQGDLAAAMMMMAAAwwwwAADDDDAwKYbEAKFQMWfAQYYYIABBhhggAEGGGCAAQYYYGAABoTAAUzyptdq++8vLgwwwAADDDDAAAMMMMAAAwwwwMDsBoRAIVDxZ4ABBhhggAEGGGCAAQYYYIABBhgYgAEhcACTrJjPXsyNoTFkgAEGGGCAAQYYYIABBhhggIFNNyAECoGKPwMMMMAAAwwwwAADDDDAAAMMMMDAAAwIgQOY5E2v1fbfX1wYYIABBhhggAEGGGCAAQYYYICB2Q0IgUKg4s8AAwwwwAADDDDAAAMMMMAAAwwwMAADQuAAJlkxn72YG0NjyAADDDDAAAMMMMAAAwwwwAADm25ACBQCFX8GGGCAAQYYYIABBhhggAEGGGCAgQEYEAIHMMmbXqvtv7+4MMAAAwwwwAADDDDAAAMMMMAAA7MbEAKFQMWfAQYYYIABBhhggAEGGGCAAQYYYGAABoTAAUyyYj57MTeGxpABBhhggAEGGGCAAQYYYIABBjbdgBAoBCr+DDDAAAMMMMAAAwwwwAADDDDAAAMDMCAEDmCSN71W239/cWGAAQYYYIABBhhggAEGGGCAAQZmNyAErnkI/JP3/0iRX/M58kI0+wuRMTSGDDDAAAMMMMAAAwwwwAADDCzegBC45pFJCFz8QeCFxhgzwAADDDDAAAMMMMAAAwwwwMAQDAiBQqAVh2tuYAgvRJ6jf3AZYIABBhhggAEGGGCAAQYYWLyBpYTAh2+/Fs5fuNj7ei3c3l/8ExxB9P6b4fyFaR/7vXAj7vfV9zqx7O7V+FzeDHfHBqQfhduXRu8zsh9j7zs6HietCOyP7eW3f9TZ1+7jVs/nxvujj9O9neuNBwMMMMAAAwwwwAADDDDAAAMMMLBtBpYYAieFsyWjOlUIvB9Go9/4ONjCWGII3H8nXC6jZvr9Ypgc+oTAdp6W7G7K8Gv/zAsDDDDAAAMMMMAAAwwwwAADDCzKwIpDYB3NLr0THj7qRbc6auWVhFXcypHtzWqlXlqt9061Ai+tOMyxMce68nb1qr5eCKxCX7VacexqunT7Iq6Vv9c/V/uYVxnmfYyPl/ejeuxq9V6+3f3QWc3XW3WYJ/zYFYHp8fNzHj1IyudWjV8dAq/GVZHxObf7EjrjnbcZb/9auP12efv6OV24GJrx6oxDMVbi1zGrM0fnK8+578aGAQYYYIABBhhggAEGGGCAAQYWYWCJIbB3anAd/0IdkS5fqk4fLoNfDk0paKXb15GtPi03h7R0nzpkVffJsaoOWuVKufR4VQBL98/7Ud6mE7DqbdWhrt2X6vJyf6tTiKcMgZ2IV20rP99yoo8NgU08rca22pf6QCm3n55bHIsxzyU9r3h5GwXTuDSXt6c5V2GxGtNy7O6+35463d7XAVvOo595YIABBhhggAEGGGCAAQYYYICBVRtYYgjMq8xGJ71ZudZbFZeiUlq5djGcL0Ngfbvq+hywypjWDV6dlXlNCMxRsRsox8W4NoCVj1E9j2bf0+rEGMSmC4Gd++Xn2Hv+EcdJIbABVIfMvMpvfJCr9j8Hw+Y2zX3LsWjD4cjtYyiN45gjav79mOfR7Gcnso5acDtjwgADDDDAAAMMMMAAAwwwwAADDCzGwBqEwCLINWGpDnn17ymaLSoENo95zACneHgx3Ein1NbhMcezFO/K+Ff+3A2SZbhs4+Ixj3uaEFgHtrjdGDObyNcJb8eFwHGhdsLtc/gr56Qex/GPe/xzdHAbHwYYYIABBhhggAEGGGCAAQYYYGDxBlYfAnNkezt+8EX9vnN1ZKtW59VhrYxO064IzJ/sW28vrWxrVgTm9+irw15x+Si8OujFFW85HOb9Tp/AWwa/MgSW+57fA7F8vPr99Mr964S741cEVmGxG/BiCGyfZ31d2n583Elhr7o8r4ZM203Pc9LtyxWB1XOsVg2Wz33xeEfnyWMaEwYYYIABBhhggAEGGGCAAQYYYGCSgSWGwPK00/yedmVA64ayasVcdbvq/QNj1OqGpiqE1WGtfv+7Kmbl7Z70YSH19upTWnMIGzdYeX/a25T3fS1cvpQj4bh9jM/jtXDjanwfxLy/+fnW4zLmtOC4HyedGpz3K3+oSrt/OXTWY/j2j5oPLxl7qm8dI6vt5Lg4TQgsH6f+YJEcS3tRc9y4usyLEwMMMMAAAwwwwAADDDDAAAMMMLAcA0sJgcufzBwC2w+xWP4+zGcCTwqBm/q87Pd8fBhH48gAAwwwwAADDDDAAAMMMMAAA9MaEALXfNWaEOhgnvZgdjtWGGCAAQYYYIABBhhggAEGGGDgOANbGgK3Z9KFwO2Zy+MORNeZZwYYYIABBhhggAEGGGCAAQYYWLQBIdCKwLBoZLbvhYwBBhhggAEGGGCAAQYYYIABBhhYvQEhcM1DoINk9QeJOTAHbkIqlAAAIABJREFUDDDAAAMMMMAAAwwwwAADDDCwDQaEQCHQikAGGGCAAQYYYIABBhhggAEGGGCAgQEYEAIHMMnbUKw9B395YYABBhhggAEGGGCAAQYYYIABBmYzIAQKgYo/AwwwwAADDDDAAAMMMMAAAwwwwMAADAiBA5hktXy2Wm78jB8DDDDAAAMMMMAAAwwwwAADDGyDASFQCFT8GWCAAQYYYIABBhhggAEGGGCAAQYGYEAIHMAkb0Ox9hz85YUBBhhggAEGGGCAAQYYYIABBhiYzYAQKAQq/gwwwAADDDDAAAMMMMAAAwwwwAADAzAgBA5gktXy2Wq58TN+DDDAAAMMMMAAAwwwwAADDDCwDQaEQCFQ8WeAAQYYYIABBhhggAEGGGCAAQYYGICBpYTAP9j9bvjlf/xLYWdnx5cxYIABBhhggAEGGGCAAQYYYIABBhhg4AQDsaXFpjbPlYgLD4FxhwVAAZQBBhhggAEGGGCAAQYYYIABBhhggIHTG5hnDFx4CLQS8PQT7KAwZgwwwAADDDDAAAMMMMAAAwwwwAAD0UBsa/NaFbjwEAgttAwwwAADDDDAAAMMMMAAAwwwwAADDJzdgBB4wnnUcJ0dl7EzdgwwwAADDDDAAAMMMMAAAwwwwMD6GBAChUDvvcgAAwwwwAADDDDAAAMMMMAAAwwwMAADQuAAJll5X5/ybi7MBQMMMMAAAwwwwAADDDDAAAMMrMqAECgEKv4MMMAAAwwwwAADDDDAAAMMMMAAAwMwIAQOYJJXVZk9rr9wMMAAAwwwwAADDDDAAAMMMMAAA+tjYCtC4PU7ByH/t//u+gwu6OaCAQYYYIABBhhggAEGGGCAAQYYYGBdDGxPCLy3awmr1Y0MMMAAAwwwwAADDDDAAAMMMMAAAwxMMCAEThiYdSm19sNfDRhggAEGGGCAAQYYYIABBhhggAEG5mFACBQCVXIGGGCAAQYYYIABBhhggAEGGGCAgQEYEAIHMMnzKMa24S8PDDDAAAMMMMAAAwwwwAADDDDAwGYbEAKFQMWfAQYYYIABBhhggAEGGGCAAQYYYGAABoTAAUyyWr/Ztd78mT8GGGCAAQYYYIABBhhggAEGGJiHASFQCFT8GWCAAQYYYIABBhhggAEGGGCAAQYGYEAIHMAkz6MY24a/PDDAAAMMMMAAAwwwwAADDDDAAAObbWB7QmCo/tt/d7MnxAFl/hhggAEGGGCAAQYYYIABBhhggAEGFmFgK0LgIgbGNh1wDDDAAAMMMMAAAwwwwAADDDDAAAPbZEAIdGqw9wBggAEGGGCAAQYYYIABBhhggAEGGBiAASFwAJO8TeXac/GXGAYYYIABBhhggAEGGGCAAQYYYOBsBoRAIVDxZ4ABBhhggAEGGGCAAQYYYIABBhgYgAEhcACTrJKfrZIbN+PGAAMMMMAAAwwwwAADDDDAAAPbZGC4IfDd/epjhg/2wnUxUPVngAEGGGCAAQYYYIABBhhggAEGGNhyAwMNgdfD3kEI+++q2ttUtT0XnhlggAEGGGCAAQYYYIABBhhggIHJBgYaAndDXA8oBE6G4aAxNgwwwAADDDDAAAMMMMAAAwwwwMB2GRhwCDwIe9e2azIdnOaTAQYYYIABBhhggAEGGGCAAQYYYGCSgeGFwPTegCLgJBAu92LBAAMMMMAAAwwwwAADDDDAAAMMbKeB4YXA9KaP8dRgMdBBvZ0HtXk1rwwwwAADDDDAAAMMMMAAAwwwMM7AgEOg9wgcB8JlXigYYIABBhhggAEGGGCAAQYYYICB7TQgBG75x0I7cLfzwDWv5pUBBhhggAEGGGCAAQYYYIABBk5rYKAh8HrYOwjh4M71cNoBc3sHGQMMMMAAAwwwwAADDDDAAAMMMMDAJhoYaAjcCTvpQ0NCCAd74bpVgYIoAwwwwAADDDDAAAMMMMAAAwwwwMCWGxhuCNzyid3EKm2f/TWFAQYYYIABBhhggAEGGGCAAQYYWJwBIVAQVPsZYIABBhhggAEGGGCAAQYYYIABBgZgQAgcwCQr6Ysr6cbW2DLAAAMMMMAAAwwwwAADDDDAwKYYEAKFQMWfAQYYYIABBhhggAEGGGCAAQYYYGAABoTAAUzyplRp++kvKAwwwAADDDDAAAMMMMAAAwwwwMDiDAiBJ4XA9OnCB2Hv2m7YDyHsv1tMRv3Jwwd3ro+t5tfvHDSfSpx+Dvth99peOAhxe8V2TtqH4vpXPrgZbj1/PVz65pVw8/nNcOWbZ9vOPA+qap9uhVvPb4WbH7wydizO9Hi7r4db6TleCq8/vxVe3139cz3T8yjmz/3NIQMMMMAAAwwwwAADDDDAAAMMrMqAEHhSpEnhbj/s7owJgSfctwyBOzEaHuyF6zOGwJ0Yxz67El7phcBLH1UhbqYYl7bZbqcJb5Muj8+/vq65bXFZ3Jf41bluzJiVITHd56NLVUxM2349XNoRAlf1AuFx/ePEAAMMMMAAAwwwwAADDDDAwPYYEALHhKkO8CYEXg97B+1KvmqFX0j/dVYJ1sGwuiY0KwKbEJiuj2GxRVRtq9125/GL26XLcwhMcSxGsjrG5XjWrKKL268CWg5yt/JtJl7e7lOz8rD3+COXp1g3eWViefv080dXwpXP6thY70+6PMbN3mNVkTE+x1fClc8mP8ax49Xfpt/nt2LTWBpLBhhggAEGGGCAAQYYYIABBjbKgBA4E9j+KsEYC0MI93YTgs6KwGMe51Qh8JjtNKFw3CnDk4LdhMsnxbn28hjn2tWDVWysw2Sxj+3td0L6Oa8QLB63vI2o18ZYY2EsGGCAAQYYYIABBhhggAEGGGBgngaEwCJanX5g+yGw+/u0IfD0jzvpIKjjXLPybyeUpwyXp+lOujzHuvK2cf8mXV6t2htdrTfu9pOCX3nb/uPOb2wmjZnLjTEDDDDAAAMMMMAAAwwwwAADDAzDgBC4RSEwxb3yFNsxpwmn9+ubdHk5FmnF3pj39+tfXqzsG/uiUdx+Uggs71dFwdGVheVt/DyMFyfzbJ4ZYIABBhhggAEGGGCAAQYYmK8BIbCMX6f+ubsCcGenOjW4+hTh+jTh+AEhJ2x3HqcGj0TA+Jgp+FVRLa+6a0PgmMvL/ZwU+PqX938vtxF/Lq6fJgSOfR79bcbf609s7r4/43wPDi82xpMBBhhggAEGGGCAAQYYYIABBrbJgBA4LjJNcdnuvebjQOof6g8AqQNVvHD/Xv1JwSdsb+YQmIJf9/36bn7wSvfDQuoP6ag+wbf4EJHi8hwLq/f7uxWqbXRPC47X5cvTgVCEvnxgHLudcsViPS7d05SnXA2YPsSlfT/G/Ni+e4FmgAEGGGCAAQYYYIABBhhggAEGxhsQAk+IdOCMh7P6cSlXX67rPtqv1TsxB+aAAQYYYIABBhhggAEGGGCAgWxACBQCN+pjrhPcetVldQq2gzkfzL6zwAADDDDAAAMMMMAAAwwwwAADxxkQAoXAzQuB5sycMcAAAwwwwAADDDDAAAMMMMAAA6c2IARCc2o0x5Vl1/nLAwMMMMAAAwwwwAADDDDAAAMMMLCeBoRAIVAIZIABBhhggAEGGGCAAQYYYIABBhgYgAEhcACTrMKvZ4U3L+aFAQYYYIABBhhggAEGGGCAAQaWaUAIFAIVfwYYYIABBhhggAEGGGCAAQYYYICBARgQAk+a5PQJtQdh79pu2A8h7L97cqnevRdCuLfbO4Cuh72DEE7zSbfX7xyE+F/zmGlf9sPuSftcXn9tLxyEuP8n7/fkAl0997jv45/btNuuxiA9qXDK51E+Jz/3bE07/m432bixMTYMMMAAAwwwwAADDDDAAAPbb0AIPCkqpZAWo9XyQ+DIAbiyEFgFvBgk5xECm7B50ti7XvBjgAEGGGCAAQYYYIABBhhggAEG5mZACDwJUxMCYwxrV9bl1XrV6rb68nTb6pLm/x7shesp4DWXVD/UKwZjWDu4s5dWG8Yr8orBFNzSLdvH3KlD4H5ccZj+q1fVdQJhGyzbbeTb91cX1pcXqxc792kub0NgfN55H6tQWT3e6ArIcRW93c5I5DxpHlw/t4Pe2I+z6TIuGGCAAQYYYIABBhhggAEGtt+AEDiHwJTiWRPNJq2aqyJYN6LVt82n7naC3k7Y6Z/WWwfFahvF9jr3a0NgOoD724jPt4mbEXhx+7SdIjxONTZCoBfK7X+hNMfmmAEGGGCAAQYYYIABBhhgYBsMCIFTxa4x2Pur/+LKv3pb/TBYQSnCXfGY429bP14/4nWCXxEcO5cXYS8+Tn8b8bJ0+3aVYPwpxcXyORVhc37QrQic31iOMVm48jjGhwEGGGCAAQYYYIABBhhggAEG+gaEwDPFkypo5dNh02nCGxQC+/vbR9Ge9jzvD/QQAvtj7XcvygwwwAADDDDAAAMMMMAAAwwwsCwDQuAMIbA6Rbc+NbYfAovfq8nsxsM8wWdeEViv3ksfvFGs+ssRr/lAjvJ2+bmOuyxfl79PfZqwU4PzXPruhZsBBhhggAEGGGCAAQYYYIABBtbZgBCYw9cpv+fgFuL7+93ZD6EMf3VoSyfflpeXp+TWp96OD4F1NCzP3o3bKe+fT+dN+13c/mA/7B8UHwqyk9+HsNpYDoTt/qcTg8PetdFThvvvZzgeshA4fly88BkXBhhggAEGGGCAAQYYYIABBhhYLwNC4CkDIMCzAHZqMD+z+HFffhhggAEGGGCAAQYYYIABBhiYxYAQKASGWQCd7r7FysUw7/cf9EJwurkwXsaLAQYYYIABBhhggAEGGGCAgaEZEAKFwCWGQC8wQ3uB8XyZZ4ABBhhggAEGGGCAAQYYYGB9DAiBQqAQyAADDDDAAAMMMMAAAwwwwAADDDAwAANC4AAmWXlfn/JuLswFAwwwwAADDDDAAAMMMMAAAwysyoAQKAQq/gwwwAADDDDAAAMMMMAAAwwwwAADAzAgBA5gkldVmT2uv3AwwAADDDDAAAMMMMAAAwwwwAAD62NACFxQCNy9F9J/B3euK+oLGmMvJOvzQmIuzAUDDDDAAAMMMMAAAwwwwAAD629ACFxEpLq2Fw7CfthdxLZtU1hlgAEGGGCAAQYYYIABBhhggAEGGDiDASHwDIN2YuF+dz8EIdABuQhbtskVAwwwwAADDDDAAAMMMMAAAwyc0YAQeMaBOzYGxhB4sBeuL2LbtulgZ4ABBhhggAEGGGCAAQYYYIABBhg4gwEh8AyDdlwETO8NKAI6GOfs6jhzrlv/92AwR+aIAQYYYIABBhhggAEGGGBgHQwIgYsINlYECoGLcGWbXDHAAAMMMMAAAwwwwAADDDDAwAwGhMAZBm9iyfUegQ7KRbiyTa4YYIABBhhggAEGGGCAAQYYYGAGA0LgDIMnBFrWO9HAIlzZphd7BhhggAEGGGCAAQYYYIABBhiYwYAQOMPgTYxA1/bCQTgIe9eEsoljtIhxt00vhgwwwAADDDDAAAMMMMAAAwwwwMBEA0LggnCkDw0JIRzcuT5x8EUyoZQBBhhggAEGGGCAAQYYYIABBhhgYFkGhMAFhcBlTaDH8WLBAAMMMMAAAwwwwAADDDDAAAMMMDCNASFQCLRikQEGGGCAAQYYYIABBhhggAEGGGBgAAaEwAFM8jRF2G385YABBhhggAEGGGCAAQYYYIABBhjYbgNCoBCo+DPAAAMMMMAAAwwwwAADDDDAAAMMDMCAEDiASVbzt7vmm1/zywADDDDAAAMMMMAAAwwwwAAD0xgQAlccAq/fOQgh7Ifda3vhIByEvWsR7vWwdzCPTxyuthPu7Yb0OAd74fqZnu+l8PrzW+HmB6+ESx/dCrc+ujTXvxKcuM3d18Ot57fC67vVQf3KBzfT7+Vl02Cf7javhCufVc8xPc5nV8IrZxozL0DTjbdxMk4MMMAAAwwwwAADDDDAAAMMLMuAELjqyPPufggx0C0kBO6E3XtVUJwtBFZxLIa4E6NdGs86pj2/1Ql4Ozvt5TEqZuTTbbP/olDFyRwH07bqYBgD4a0i4KXt1/tSXp4fv/893j7unxDYH3O/9634nQkGGGCAAQYYYIABBhhggIFNMiAErksI3NkN+3FlYNqfckVgvDxUsTBeF8Nh/u/eboppMfalmFg/l/L3HALT/erbV0Dr1YJTrRJsQ2CMY03E++aVcDMHtnrFYNr27uvNbarVe6+HSztVRLz5waW04q7ZRn15tcowh8L29inqjQTF+CLTD4HxvtX98nXlY1TPuV3ZGH/vBMLn+b55P18JOzEsznn1Y7UfXiSNAwMMMMAAAwwwwAADDDDAAAMMLN+AELjqEDj28dsQWEa9nbRqMMfCKhDuv5vj4JjLx247IztNCMz3OeZ7Wo3XxrR8MJchsLqsin1lpMsrAkdvWz9eHRw7q/9GQmC5b93gl/clB8LuduL9RvepvU+5XT8bFwYYYIABBhhggAEGGGCAAQYY2FwDQuCxsWxVE1tHurTyLwe+HPzycsDq+8Gd62EnrSYMYTQKLnr/8wq+6hTgW89vhivfLB9zXJAbjW7tyrz+/ettnTIEjgbFaj/6pwynFX/Fikar/8q587N/2BhggAEGGGCAAQYYYIABBhjYNgNC4BqHwIOD+EEideDb2Tn2Az/SysF7u+k9AeOHgywDaie4pVhXhrw6Eo6cWjshBH52M51mXK4UbJ7DaUJgWplY7kf3RStFx/T+gd1ImVclNo+5li66z8W+Gg8GGGCAAQYYYIABBhhggAEGGDiNASFwLYNP79Tg/GnC6dTgNgx2Jrq+LuTbnvi8Zj81OIXA+kM5qlV9OcBNioDx4JwQAj+6VH04R/HpwM3zmzYEnhAB4/ba4FeFwHSacL39k1cEzj5mzXM6cX68kBkrBhhggAEGGGCAAQYYYIABBhiYrwEhcC2DTBsCd3bq+FR/kEj69N/m7OCDsHctgzhtpDrt7fPjFN9zQEsfFHIlvF6fGlytFMynC7efHFzFwvLy4kNB6pWD3aBYP1YnBNaRsTylN33QR3H6b76uWPnXfuhI+z6G7f68Hq58cHOqDwZJKy+njq3FWK2lM/vnHxQGGGCAAQYYYIABBhhggAEGhmRACNyaQFN8eMjWPKf6xWiKlX5LO2jTpzYX79u4bWPt+SzltPqleTWf5pMBBhhggAEGGGCAAQYYYKAwIAQWg7Gp/895tUothOqDQ7al5HdX/o1+0u+yn2d3ZeamWrHfy3bj8ZhjgAEGGGCAAQYYYIABBhhYHwNC4BaEQAfU+hxQ5sJcMMAAAwwwwAADDDDAAAMMMMDAuhoQAoVAS2QZYIABBhhggAEGGGCAAQYYYIABBgZgQAgcwCSva4W2X/5CwgADDDDAAAMMMMAAAwwwwAADDCzPgBAoBCr+DDDAAAMMMMAAAwwwwAADDDDAAAMDMCAEDmCSlfXllXVjbawZYIABBhhggAEGGGCAAQYYYGBdDQiBKw6B1+8chBD2w+61vXAQDsLetbMcLLthP9T/HeyF62d+TtV24qcPp08ivrd7xr8GXAqvP78Vbn7wSrj00a1w66NLZ9rOKx/cDLee30pf5acGT7p8/EFWffpw3Jfx159lvMv71J9u/NGlkPbrsyvhlTOPf7ldPy9mvoyrcWWAAQYYYIABBhhggAEGGBiuASFw1dHm3f0QYrybKQRWgFNUnCkEXg97ByHsv7szYwis4liMd9OHwDqoPb8Vyui3s1NFxe5l8flOurx/MJ8UAqvt3Hp+M1z5ZnXftM91gJwmIMbbx9sJgf2x97t/XBlggAEGGGCAAQYYYIABBhhYJwNC4LqEwJ24Gm8/7Mb9iXGwXB3YRMJi5V9cANhbsTcSAtN26m2m7VeRLwFM19WrCJvttCEwbiuuDGyx1o/d3Pa4A7kNgTGO5ZhWruQrw1t6jN3Xx67+mxz8RkNgGfBuPX89XEpzW4bAOvoVq/bafapD4DevhJt5BWPapzYQtrftrlLMIXAn3j7fd9WuPH5h9zirrmuPcWNhLBhggAEGGGCAAQYYYICBbTcgBK5lMKmiW1yZFwGOBL64z00cbA/SkdtNCoHpvhMC4cTxOE0IbPdp0gGUol0TzXI4HI17pwmB7WOV8a/9OT1mEQGrbd8MV3avhJvFisBmO2UILH+eejXiyePQPNbEcbcNY8QAAwwwwAADDDDAAAMMMMAAA/MxIASuaYBp36OvXaUX0afL8/sBxncXrGNhvG7qEFiuBsxvLdhZ/TcfXCMHaVxtV59ym977r45yaaVd+nnGEJhiXbVaL20/hcYqBFbvNZhXCVbPr4mRab/alX/Vftf3q2Nlu4/xvuP2c0FjtqY+R+bWflqByAADDDDAAAMMMMAAAwwwwMDaGxAC1xVpXs1Xrt5Ll+UPFOmuGjxNCBwJhksZg0lhrYxq5c85rI27bFyMq26XT0NuIt9OvSLws+qDR5r3GizjX/lzPRb91YNCYJ4P30VQBhhggAEGGGCAAQYYYIABBjbVgBC4lAh2lgMkrgQ8CHt39tv3AsxxMK/+O2lFYHH6cIp/+fbp8u5qwpMBz3pqcB3k0qf3VtHuVlwF2F/FN/IpwacLgSn05ZWHxYrAGAhT3KtPAe6/31+1YrBaFdiPgGls0n7WKwrrfW6i4toaOos79zn5WDBGxogBBhhggAEGGGCAAQYYYGAzDQiBaxxxOvEu7Wcd49IHhew1n/BbfbhIcb5w/KiRdKpvdVpxuuZgP+zXnwgcD9a87epeeZXhcYhnDYE71afqptB3M1z54PWQQmBn/MvoV68gLE8lTh8AMuny+hOK0+1fD1c+uFl/cEcZIPN9u6cI75QrAseEyWqVYb7vrXDrs9fD65/1P934uLFznX8gGGCAAQYYYIABBhhggAEGGGBg9QaEwE6IWv2EOCg2YQ7KYLkJ+2sfHVcMMMAAAwwwwAADDDDAAAMMMLAThEAhcO3fyHL9DlQhcP3mxD9o5oQBBhhggAEGGGCAAQYYYICBkwwIgUKgEMgAAwwwwAADDDDAAAMMMMAAAwwwMAADQuAAJvmkGux6fzFggAEGGGCAAQYYYIABBhhggAEGtt+AECgEKv4MMMAAAwwwwAADDDDAAAMMMMAAAwMwIAQOYJIV/e0v+ubYHDPAAAMMMMAAAwwwwAADDDDAwEkGhEAhUPFngAEGGGCAAQYYYIABBhhggAEGGBiAASFw3pP87n5I/x3shevz3rbteVFigAEGGGCAAQYYYIABBhhggAEGGDijASHwjAN3/FLL3RBz4P67lqQeP07Gx/gwwAADDDDAAAMMMMAAAwwwwAADyzIgBC4kBF4PewdC4LIQexwvmAwwwAADDDDAAAMMMMAAAwwwwMDJBoRAIdBy2oUYOPng8wJljBhggAEGGGCAAQYYYIABBhhgYJkGhMCFRaBqVWDwXoFC48KMebFc5oulx+KNAQYYYIABBhhggAEGGGBg0w0IgQuJNE4N3vQDw/57cWeAAQYYYIABBhhggAEGGGCAgW0zIAQKgVbsLcSAF8tte7H0fJhmgAEGGGCAAQYYYIABBhjYdANC4EIikBWBm35g2H8v7gwwwAADDDDAAAMMMMAAAwwwsG0GhMCFhMDdsB8Owt41B8y2HTCeD9MMMMAAAwwwwAADDDDAAAMMMLCpBoTAeYfAd/dD+u/erlNu5z22tscUAwwwwAADDDDAAAMMMMAAAwwwcGYDQiA8Z8azqfXbfvvLDQMMMMAAAwwwwAADDDDAAAMMDNGAECgECoEMMMAAAwwwwAADDDDAAAMMMMAAAwMwIAQOYJKHWLg9Z3/ZYYABBhhggAEGGGCAAQYYYIABBroGhEAhUPFngAEGGGCAAQYYYIABBhhggAEGGBiAASFwAJOsfnfrt/EwHgwwwAADDDDAAAMMMMAAAwwwMEQDQuCJIXA31J8DHMLBXrh+4u0dSEM8kDxn7hlggAEGGGCAAQYYYIABBhhgYN0NCIFThr3rdw6EwCnHat3R2z8vzAwwwAADDDDAAAMMMMAAAwwwMEQDQuCUcUsI9AIxxBcIz5l7BhhggAEGGGCAAQYYYIABBrbHgBAoBHoz0CkNeOHbnhc+c2kuGWCAAQYYYIABBhhggAEGhmhACJwyAlkR6AViiC8QnjP3DDDAAAMMMMAAAwwwwAADDGyPASFQCLQicEoDXvi254XPXJpLBhhggAEGGGCAAQYYYICBIRoQAqeMQGNXBL5bfZ7w/rsOniEePJ4z9wwwwAADDDDAAAMMMMAAAwwwsEkGhMBZQuC1vXAQQgj3dq2qm3IcN+ngsK9ezBlggAEGGGCAAQYYYIABBhhgYJsMCIFTBqyxKwJ3roe9gxAO7lwXAqccx206eDwX/xgwwAADDDDAAAMMMMAAAwwwwMAmGRACTwxYu6E6ATiEcLAXrufb16cFi4AO+E064O0rrwwwwAADDDDAAAMMMMAAAwwM14AQmMOe71Y1MsAAAwwwwAADDDDAAAMMMMAAAwxssQEhcIsnV+EfbuE39+aeAQYYYIABBhhggAEGGGCAAQb6BoRAIVDpZ4ABBhhggAEGGGCAAQYYYIABBhgYgAEhcACT3K+/fvcXAQYYYIABBhhggAEGGGCAAQYYYGB4BoRAIVDxZ4ABBhhggAEGGGCAAQYYYIABBhgYgAEh8KRJTp8OfBD2rlWfHrz/bluLd++FEO7tjh4oi/xE4Wt74SDE/Wn3Y34Fv3qO8ZOQJz63k8bL9aMejIkxYYABBhhggAEGGGCAAQYYYICBNTAgBJ40CSm87YfdnVOEwJO2Ocv1Cw2B18PeQQgxds4aAn/9H3wt3H311XD3az8ffr14vs3l8bpf+Gp6Eehc9uovhqv17ae7vN3O1V94tXrM3uN2Ln/11fDBPzhfvPh8Nfwg3v7Vr4XfPV/E1a/+4sj+d/an3vf5RdjisYvxsn3jwgADDDDAAAMMMMAAAwwwwAAD8zIU/Yh4AAARaElEQVQgBJ4UXZoQGCNZvRIvXRa6/x3shes7O+H6nYPm8mb1YFwheBDX8cUVhPthP36vb79TB8bqTjE41rg7j1E9bopzzdbre6QVilWkbK6qVynG2x8cVPuzfy89aoir/XbS/uyFvbiiMf2XH7cNgfF5pNvm/cn7OW4FZHObet9jRPvaz4erMQYWIbAKab3g1rnv+fC7X2vDXou8e3naTrHd9nb5haGKezn4pRA4Idy1ca/cr/rxyqCYwmC+TXf7o4+f98N3Y8MAAwwwwAADDDDAAAMMMMAAA+tjQAjshKjTTczkVXO91YPpVOH9sNus5ovXx/jWhrd4ULTbqy4fe9pxs40J+1pcn7eX4mQMj3E/YshL+xPq0Fc9Vjf6jdt2HRunCYH1mHaDXTfmjX8RqG6TA157m+7l3e2O29cq1P3gq9V1k0NgvN3Xwu9+9efDB+WKwDEhs7ONvFpwQlxs93vcvrnM+DDAAAMMMMAAAwwwwAADDDDAwGoMCIHLCoExxKVIl08zbt93MK/LS9/rlYIp4lUXdN8PsAh95UHT3r7aWj69Nwa+FAJzAMxBMIXICl0OhuX25vFzN9jVq+h+4RfDB+lU3HLlX7ECrzg1eGdn/OXtKr7qVOAc/HZ2qsfon5LcPTU4r+rbCU3cO1+GwDYilvufb5u+j1ntOI/xso3VvAgad+POAAMMMMAAAwwwwAADDDAwFANC4CpD4P990gd/tKf8Niv2xoXAtMIvf4BIuxoxBr71CYF11Mun9HZOtW1fcKrI175PYD4QT3t5Dnbl+xPGbTWXl/Gv+LmMf+XP6X7F+wum360ILN5rsZ3DPGe+GxMGGGCAAQYYYIABBhhggAEG1suAEDhrCKxX8HVhtzEuXR5D3dgVgcecAtzsV+82KQRWH+jRPGYKgdX7/OX3KJx6ReC47TWPXWKd9dTgKsI1p/0eFwJzLCz2o4xyzfMuw15x23j9+FBXx8hf+GqowmLx4SJpleJ/H374K/3L6g88SfubA2W9urHzoSPlWPm5nCM/88AAAwwwwAADDDDAAAMMMMDAehgQAnsB6VQw64g2/pTe6hTdEE/BnRgCd8JOuY34GSLxwzzq9w7MW0jbKPazPA24+kCSduVguLfX+eTfySsC2603qw2Lxxgdh1OEwPweevkU4FdfDdXpu8Wpu81l5em/5af3Trq8jnzNtrtxLp0WnK7Ll/e2MyYy7hQrAsvn3Y+PeVVgegyrAa0GPPZ4WY8X+NKzn80JAwwwwAADDDDAAAMMMMCAEDjE/2e+WEHoRcCLAAMMMMAAAwwwwAADDDDAAAMMMDAMA0KgEGhl1xANeM7cM8AAAwwwwAADDDDAAAMMMDA4A0Ig9IND768cw/grh3k2zwwwwAADDDDAAAMMMMAAAwx0DQiBQqAQyAADDDDAAAMMMMAAAwwwwAADDDAwAANC4AAmWf3u1m/jYTwYYIABBhhggAEGGGCAAQYYYGCIBoRAIVDxZ4ABBhhggAEGGGCAAQYYYIABBhgYgAEhcACTPMTC7Tn7yw4DDDDAAAMMMMAAAwwwwAADDDDQNTDAELgb9kP87yDsXesOBhzGgwEGGGCAAQYYYIABBhhggAEGGGBgWw0MMARWmHfvhRDu7Vr2akUkAwwwwAADDDDAAAMMMMAAAwwwwMAgDAw2BF6/cyAEOsgHcZBv618xPC9/oWOAAQYYYIABBhhggAEGGGDgdAaEQDFMDGOAAQYYYIABBhhggAEGGGCAAQYYGICBwYbAWIzTqkDvFehAH8CB7i8kp/sLifEyXgwwwAADDDDAAAMMMMAAA9toYLAh0KnBDuhtPKA9J64ZYIABBhhggAEGGGCAAQYYYGCSASHQajArAhlggAEGGGCAAQYYYIABBhhggAEGBmBACBzAJE+qwC73FwIGGGCAAQYYYIABBhhggAEGGGBgOAYGGwJ374VwcOe62i2EMsAAAwwwwAADDDDAAAMMMMAAAwwMwsAAQ+Bu2A/xv/2wC/kgkPvLxnD+smGuzTUDDDDAAAMMMMAAAwwwwAADkw0MMAROHgxQjA0DDDDAAAMMMMAAAwwwwAADDDDAwLYaEAKtCrQqkAEGGGCAAQYYYIABBhhggAEGGGBgAAaEwAFM8rZWbM/LX2gYYIABBhhggAEGGGCAAQYYYICB6Q0IgUKg4s8AAwwwwAADDDDAAAMMMMAAAwwwMAADQuAAJlkZn76MGytjxQADDDDAAAMMMMAAAwwwwAAD22pgK0Lg7r30McAhhIOwdw3WbcXqebHNAAMMMMAAAwwwwAADDDDAAAMMnN3AVoTABODaXjgQAi3jtcKTAQYYYIABBhhggAEGGGCAAQYYYGCsASEQjLEw1PWz13VjZ+wYYIABBhhggAEGGGCAAQYYYGAdDQiBQqAQyAADDDDAAAMMMMAAAwwwwAADDDAwAANC4AAmeR0LtH3ylxEGGGCAAQYYYIABBhhggAEGGGBguQaEQCFQ8WeAAQYYYIABBhhggAEGGGCAAQYYGIABIXAAk6yuL7euG2/jzQADDDDAAAMMMMAAAwwwwAAD62hACBQCFX8GGGCAAQYYYIABBhhggAEGGGCAgQEYEAIHMMnrWKDtk7+MMMAAAwwwwAADDDDAAAMMMMAAA8s1sBUhcPdeqP87CHvXljuAwBpvBhhggAEGGGCAAQYYYIABBhhggIFNMLAVIXATBto+ekFggAEGGGCAAQYYYIABBhhggAEGGFilASHQqcHeA4ABBhhggAEGGGCAAQYYYIABBhhgYAAGhMABTPIqS7PH9pcOBhhggAEGGGCAAQYYYIABBhhgYD0MCIFCoOLPAAMMMMAAAwwwwAADDDDAAAMMMDAAAxsTAn/5H/8SkAMA6S8E6/EXAvNgHhhggAEGGGCAAQYYYIABBhjYLgOxrW1MCPyD3e8KgUIgAwwwwAADDDDAAAMMMMAAAwwwwAADZzAQ29rGhMC4o3GHrQzcrhrtrwvmkwEGGGCAAQYYYIABBhhggAEGGFicgdjS5hkBY6N7/p2Xw8OHD8Ph4WE4OjoK8b9z8cJ5lUbbuW8sHxkDxwEDDDDAAAMMMMAAAwwwwAADDDCwagNCoEglVDLAAAMMMMAAAwwwwAADDDDAAAMMDMCAEDiASV51bfb4/uLBAAMMMMAAAwwwwAADDDDAAAMMrN6AECgEKv4MMMAAAwwwwAADDDDAAAMMMMAAAwMwIAQOYJIV99UXd3NgDhhggAEGGGCAAQYYYIABBhhgYNUGhEAhUPFngAEGGGCAAQYYYIABBhhggAEGGBiAASFwAJO86trs8f3FgwEGGGCAAQYYYIABBhhggAEGGFi9ASFQCFT8GWCAAQYYYIABBhhggAEGGGCAAQYGYEAIHMAkK+6rL+7mwBwwwAADDDDAAAMMMMAAAwwwwMCqDQiBQqDizwADDDDAAAMMMMAAAwwwwAADDDAwAANC4AAmedW12eP7iwcDDDDAAAMMMMAAAwwwwAADDDCwegNCoBCo+DPAAAMMMMAAAwwwwAADDDDAAAMMDMCAEDiASVbcV1/czYE5YIABBhhggAEGGGCAAQYYYICBVRsQAoVAxZ8BBhhggAEGGGCAAQYYYIABBhhgYAAGhMABTPKqa7PH9xcPBhhggAEGGGCAAQYYYIABBhhgYPUGhEAhUPFngAEGGGCAAQYYYIABBhhggAEGGBiAASFwAJOsuK++uJsDc8AAAwwwwAADDDDAAAMMMMAAA6s2IAQKgYo/AwwwwAADDDDAAAMMMMAAAwwwwMAADAiBA5jkVddmj+8vHgwwwAADDDDAAAMMMMAAAwwwwMDqDQiBQqDizwADDDDAAAMMMMAAAwwwwAADDDAwAANC4AAmWXFffXE3B+aAAQYYYIABBhhggAEGGGCAAQZWbUAIFAIVfwYYYIABBhhggAEGGGCAAQYYYICBARgQAgcwyauuzR7fXzwYYIABBhhggAEGGGCAAQYYYICB1RsQAoVAxZ8BBhhggAEGGGCAAQYYYIABBhhgYAAGhMABTLLivvribg7MAQMMMMAAAwwwwAADDDDAAAMMrNqAECgEKv4MMMAAAwwwwAADDDDAAAMMMMAAAwMwIAQOYJJXXZs9vr94MMAAAwwwwAADDDDAAAMMMMAAA6s3IAQKgYo/AwwwwAADDDDAAAMMMMAAAwwwwMAADAiBA5hkxX31xd0cmAMGGGCAAQYYYIABBhhggAEGGFi1ASFQCFT8GWCAAQYYYIABBhhggAEGGGCAAQYGYEAIHMAkr7o2e3x/8WCAAQYYYIABBhhggAEGGGCAAQZWb0AIFAIVfwYYYICB/79dO0aJIIiiKOqOdMGK6xO6M5VGKUsqMBDGpJKP/52BiZuudya5NQwwwAADDDDAAAMMMMAAAwEGhMCAkRX3+uJuAxswwAADDDDAAAMMMMAAAwwwwEC1ASFQCFT8GWCAAQYYYIABBhhggAEGGGCAAQYCDAiBASNX12bPd+PBAAMMMMAAAwwwwAADDDDAAAMM1BsQAoVAxZ8BBhhggAEGGGCAAQYYYIABBhhgIMCAEBgwsuJeX9xtYAMGGGCAAQYYYIABBhhggAEGGKg2IAQKgYo/AwwwwAADDDDAAAMMMMAAAwwwwECAASEwYOTq2uz5bjwYYIABBhhggAEGGGCAAQYYYICBegNCoBCo+DPAAAMMMMAAAwwwwAADDDDAAAMMBBgQAgNGVtzri7sNbMAAAwwwwAADDDDAAAMMMMAAA9UGhEAhUPFngAEGGGCAAQYYYIABBhhggAEGGAgwIAQGjFxdmz3fjQcDDDDAAAMMMMAAAwwwwAADDDBQb0AIFAIVfwYYYIABBhhggAEGGGCAAQYYYICBAANCYMDIint9cbeBDRhggAEGGGCAAQYYYIABBhhgoNqAECgEKv4MMMAAAwwwwAADDDDAAAMMMMAAAwEGhMCAkatrs+e78WCAAQYYYIABBhhggAEGGGCAAQbqDQiBQqDizwADDDDAAAMMMMAAAwwwwAADDDAQYEAIDBhZca8v7jawAQMMMMAAAwwwwAADDDDAAAMMVBsQAoVAxZ8BBhhggAEGGGCAAQYYYIABBhhgIMCAEBgwcnVt9nw3HgwwwAADDDDAAAMMMMAAAwwwwEC9ASFQCFT8GWCAAQYYYIABBhhggAEGGGCAAQYCDAiBASMr7vXF3QY2YIABBhhggAEGGGCAAQYYYICBagN/hsCv15e5vsPXGTDAAAMMMMAAAwwwwAADDDDAAAMMMPBvDfx0vpsh8OP5Yc7x6esMGGCAAQYYYIABBhhggAEGGGCAAQYYaGJgNb/zPOd1XXOMMdfn7v3p3sBNBhZ0BW0GGGCAAQYYYIABBhhggAEGGGCAgWVgNb/jOH6HwLdHIdAPxA+EAQYYYIABBhhggAEGGGCAAQYYYKCTgdX8hED//vMPUAYYYIABBhhggAEGGGCAAQYYYICB5gaEwOYDd6rW3sUtDAMMMMAAAwwwwAADDDDAAAMMMLBvQAgUAtV+BhhggAEGGGCAAQYYYIABBhhggIEAA0JgwMhK+X4pd3bOjgEGGGCAAQYYYIABBhhggAEGuhgQAoVAxZ8BBhhggAEGGGCAAQYYYIABBhhgIMCAEBgwcpdq7T3cwDDAAAMMMMAAAwwwwAADDDDAAAP7BoRAIVDxZ4ABBhhggAEGGGCAAQYYYIABBhgIMCAEBoyslO+Xcmfn7BhggAEGGGCAAQYYYIABBhhgoIsBIVAIVPwZYIABBhhggAEGGGCAAQYYYIABBgIMCIEBI3ep1t7DDQwDDDDAAAMMMMAAAwwwwAADDDCwb0AIFAIVfwYYYIABBhhggAEGGGCAAQYYYICBAANCYMDISvl+KXd2zo4BBhhggAEGGGCAAQYYYIABBroYEAKFQMWfAQYYYIABBhhggAEGGGCAAQYYYCDAwK0Q+A3mZqMfOiaJlQAAAABJRU5ErkJggg==;" parent="94" vertex="1"><mxGeometry y="670" width="811" height="335.28" as="geometry"/></mxCell><mxCell id="92" value="" style="shape=image;verticalLabelPosition=bottom;labelBackgroundColor=#ffffff;verticalAlign=top;aspect=fixed;imageAspect=0;image=data:image/png,iVBORw0KGgoAAAANSUhEUgAABQgAAAMTCAYAAADtofoMAAAgAElEQVR4AezdXY8c150naH4vXvEjUDcNLBpueQwIYN9wgVmgiV5sLy98wYuCLLgFs0HAgIWG5S57bU+PIa58sTPrtYd0v5gDc2eNscei2GN1S+22VE1ppCJpimdxTsSJOBEZmaysyqyMjHgIFFiVGa//80Rkxi9ORFwI/qmACqiACqiACqiACqiACqiACqiACqiACqiACsy2Ahdmu+ZWXAVUQAVUQAVUQAVUQAVUQAVUQAVUQAVUQAVUIAgIIVABFVABFVABFVABFVABFVABFVABFVABFVCBGVdAQDjjxrfqKqACKqACKqACKqACKqACKqACKqACKqACKiAgZEAFVEAFVEAFVEAFVEAFVEAFVEAFVEAFVEAFZlyBhYDw+fPnwY8aMMAAAwwwwAADDDDAAAMMMMAAAwwwMA0DL8o+OwFhbPRnz56F3//+9+Hp06fhyZMnftSAAQYYYIABBhhggAEGGGCAAQYYYICBPTMQs72Y8cWsL2Z+q/41AeHnn3+eRjo+Pg6ffPJJ+Nd//ddwdHQUPvroIz9qwAADDDDAAAMMMMAAAwwwwAADDDDAwJ4YiJlezPZixhezvhgUxuxv2b8UEMYUMQ746aefhv/714/D//Z/fR6++P3nftSAAQYYYIABBhhggAEGGGCAAQYYYICBPTUQM76Y9cXML2Z/y3oSXsiXFcc0MY7wv/zwefjpb0I4OvajBgwwwAADDDDAAAMMMMAAAwwwwAADDOyrgZjxxawvZn4x+1t2uXEKCGOCGLscxlRROAj9vqK33OwywAADDDDAAAMMMMAAAwwwwAADXQMx64uZX8z+lvUiTAFhvGlhvC45XlasiN0iqod6MMAAAwwwwAADDDDAAAMMMMAAAwzss4GY+cXsL2aAQ5cZp4AwPq043rxQQAj7PmO37PwywAADDDDAAAMMMMAAAwwwwAADiwZS5nd0lJ5EvTIgjE8rXhYQ/vdHIRz8p+fh3/w7Dy6JNYo/sRaxJrE24KkBAwwwwAADDDDAAAMMMMAAAwwwwMBYDcQsK2Z/sZPgqQPCGITlYMz/3VrE2oy18S2XHRMDDDDAAAMMMMAAAwwwwAADDDDAwEYCQj0Hu6FgGZLG2tjQbGgMMMAAAwwwwAADDDDAAAMMMMAAA2M1sJGAsAzE/L4YFo618S2XHRMDDDDAAAMMMMAAAwwwwAADDDDAgICwvmfgNoNNG5oNjQEGGGCAAQYYYIABBhhggAEGGGBgrAYEhAJCl0Af20GNdQdludhkgAEGGGCAAQYYYIABBhhgYPsGBIQCQgGhgJABBhhggAEGGGCAAQYYYIABBhiYsQEBoYDQDmDGOwBnYbZ/FkaN1ZgBBhhggAEGGGCAAQYYYGDsBvYoIAzhn0Lv39MQ/ioHfPdD+LT3dvPnxyF88R+avwZ/+X/ydLbw/+kQ3A8Hly6Hiwf3txPgPbwdrm5z+i8I3e4eXA4XL90KdxeG+yAcXonvnWbd65pduR0eLEx3yjujer0vXQ4Hd168nuvWvhr+Wjh8+OJpn8b6g8NrVXufpN1qt1cPP1jcLu7cqqZzaYPL2kyzMjk437NYy9vhJpf5LMtj3EVXaqImDDDAAAMMMMAAAwwwMAMD+xEQ5nDvXz8Nf/D19+qfT8N7ddSXwr2fP6sCws4w9bBvPg5f/M7Hzbj/4V/jiJ+H//LTPK2Pwx9tIRiMxY0/pwlNjlIwscGgo485BxPrBJB1WHL2kKQKtIamU4VFQ8FhCDlIWh6C5aBsePxTtUO/bkv/3n04WdXnRWbWr/22A8KqXer6vcDjch/L12sj7b4x+8Mh6/LQdnj4xXUqgvUYrl+6HIa2r4Xx0n5gaHupppe2taXDtMsWl/9E8yu3nyZ87ZmNrw+GxdUyrT2fcp5r/n6S9Vo6zAnqttAey5avnFb5+7LhV75etO3K4dr2PfFynnJ6S2t4yunl5U37i7xPWepqc+vZmd8Zlz2vg/831z5qqZYMMMAAAwwwwMBqA3sQENY9B588Dn8Zg74myHsc/jCFhXW4lwPCR8+KYaqArh2n+vtHj2JA+Dz8fz8ffr8//Fn/Xh9hfbA/eJC8ukFPPK90kLlmL70NhSTLg6x6vfMBXe8AqxrvZL3kTlyH3jxOP97uA8Kjuk2XB6g5ZO0FMqkGy2sfD94vnkMPtzSfleZXhIjJ5tB6bWh72ZD9pb7OtPxDdaleW2UhLcvSsGm9EOk0AU/cntcL+6plWm+cs7X/SdbrJMMsbfeT7n/Kdip/P+n4neHWa9szL3tn3sPtsa0anndgd97zO4+2MY9hs+qiLgwwwAADDDAwZgN/8r/+7+EHP/yPa3dWi9nXRx99FJ48eRKeP3++cPXthfhifDMOFAceKsJZA7SV4/9DtVD/44On4eUmHBwI9qYUENZhRHtwXx8YH9yqLgu+dCscdi7LrN7vX7K7EKjVAVK6fLfuZVRewpyHz++3B+J1AJHHaf7vBjLLxy93HkNhRn6/Xo9+QDi03GkZcs+nvP71pcm9S5fjwefFg1vVJdsx6DrMl6Lm8eP8e9PoB1ULy9COm6bf1CQvQ69HVX/8PP30+rVwcFBfZntwu7nEOte/qmvR5nFe/RrFg/B6Hq2bXNf8/ylqfxxCtX65rVsL7XyW1647br0cS8K2NGyuy0CoUNUhL0dep3Ka/ffycrVtFfdf2Wle/vz3ovtiHkuWub9MeVp52uX8qun3l3HV8hfzH6hH3heneQ7ULb3eOMm1qHxWy9e2ZX/fkbeHNFxyVdew47hal7zOcf2y2bxs6f+6dmn96+Usx1mwHIcv1qfZvq7cCgdX2nk0r6/cHsrtJi5vsc5NbVoTZRuVy5jXa+i1uBxXD2/X+5di2yzqloZp9t+XO+tX9Rav2+Wgu+5VHYtljvu2errNZ0AvvC/rkpe70x71vq4xmtonuxxyUr3WDF/vE8q/O9PvtV+1X6r9lBaKWyJUNfyg3ocV22tvWi9et2KbKecV27qYVjW/bpu1bZtrEac1VI/F11Od+/Mr9jWlqzzNg8P6Nh/1dtOuW7mt9f0W67din9BpD8MNfm9VI5YYYIABBhhgYKoGYjh44cKF9BN/X2c9Rx8Q/tVvq4DwvQcv6BmYA8KFjDOEf/qHbqA49h6E1YFCcZDUHKTE1+qDxXzAUx8c5oOb9qCtPrDJB9r5wD4fFA/8fVDc161ahvJAKVQHWMtCgIe3wwvHjwcq9UFUu5zljqle5ryMvQObxXUsx42/54O5snZlwFXUpF7/ajn64xU1TsvQ/7s/3/h3PUyud2fZPwiHB8V9EesapIPKsh2K2qT698OUPO1iuM7G3lmngWVcNl5a1uW1by3kOpW9OPNruea9WpXrWtdk0Xe1rOU6d9arXL5cg059s6ue1+IAvfVWL2+ezppu+4FLZbKdb99o/+9l6376WwpU69Nfrn790nzzdpXapF7mZCa3XWmmmm6qWzNM8Vqsf5xOPc04/cFl6Jisa1+Pk2qTl6lszzjdjv16+epppfkUw1TbfdsGzbqXw/eD7vRePU6qR1uDslad9erMMzqvxk/D55MS5fqm36vpLh2m3m909kPZZlmTYlr5RECud5p2Wa88frks5bTKgLCzTvW+MrdJqku1jt22iuve1qupdzOPtjbxvWbctDxtO6XX62Vt6lyuZ5xesXzl8LkG7XZd2m1/b+bdm9ZQe5SWh34vt9HOdFMbVvXovJ7q19YpzTPVtt4Ocjul4fL2U72X2rZuv7wsnfVvat2u62I7eE9NGGCAAQYYYICBuRnI4WD8v/z9pHUYf0D4z1VA+I/vtiHfL552U8AUAOaAcOAehH/4nXbcuMKjDgjrg4J88Fc1ZHlgXQUw6cCoOIBrAqrOwV0b5KSDi7KnSe/gow+mGr4dP73fOZBZvbMZHD8HePnAaOEgp1q37rq38xmeZvv+yoAwzXPx4KsNQPIBWjW9zgFkDv/K+i1Z9hxs9OvZ+busff17255FoFDX6eRtV9UvH1B25nmG2le1uBau1g+P6bTPgNdu7XoHwwPD5+VcWM+yxrW9ZYFANW57MJ6nubBdrJh/HGepsSX2+8vcHb+37nF9lq3HC5arXZ/Se/y9mkdZl6r+dU/WZKjYZ6SaFuOk+Q7VbWiY4rWyberwreMivx/Xt9ze0/pX80u1yvurPHz8vxgnrks53ebvYpiltUnr1gukmvnFmrTvldMol6uZ34p1TPVuplvUqKjt0mH669H/O9elmFYVjhXL3oxTzXuwXnk66f96GVMPtrLtX+Akt2OcX7O+fY+tyWo5inp0lmFJO5frGYdfe926y1O2ZTutXhCa9u9tPdtxltejHWbF/Hrr247Ta6feOjfm0uvtclX7svLv7rxLw35XGwYYYIABBhhgYH4GhgLBoddW2Rh9QPjyg2cpDfz0tznkexa+8JfVw0X+8p8+T++l8DAHhHt+D8J0ELHQO6M6oKgOyoqDlnjwVBzkpoPQetzy9wig+rs4uEgHH8XlcDlA6l0qWwYPOdwoD0BbXPUyrhq/nmdnmvVBVLV8vUBy6ACruCytnXfe+PMylAe99bqng9viwKxcllTH9tLg6nKw+HcxnYVhivfSclbt0glDiuWv2rU3j3iQvbAc1XRTPeoD8mrcou1yYLnkIH2hreNylPMplqu1sbz2uW2quvTWe6EueR3b4crlL39fbL92OfsBRFmPznj1ei2re7t+1fJU82+XLQdsbZtXy79gtF7Pvv3++lR/51rWJnrbRJzXwvRTmwz77axvr+3y8veXK40TlzkZGl6ONE6qX1mP7raUlrMzTDmtdrzYPkPLkOqRg6XGYdEWQ4ab5S6213q9y/nkWsd6Ds27Mt8uYxq+mV9cj7xN5bpnu+1+sZ3f4rLkdmmHibWrhuvXbdkwC/Vp1j23Q/1/2Qbl77EuzTgD6zF4+XU93JXb4fCgtFi2bVuLqrZxnKpecV2G/bbL3NS6t6xx3M62Vtto6tMbfv11a5chtk+zHJ06VZ8JrZnSQjnOqnrkz9Tu/qIzv6HP1OSvMNLbJuIyL61FL8jM/vzfbXP1UA8GGGCAAQYYmKOBVUHgqvf6tRp9QPjF7zwO/+VJCOHp8/BXvXsQ/lXZu3ASAWF9QNIcxOaNuz6gS69Xw6QDtHhg2BzktuHKwZ1qmPYAKB/M5APidtgcxFQHbu376UCnH2Sk+Q0fjJ9k/GqY9oC9jzH39iqXuxxmcJnq4KAarq5TGezlcDQdiFbvp+mnA9H6QLf+fdl8y2WIv1fr0a9D3XZlGJKXrV+3en6p9uVypOGq+qR51NOq1rttmxz2LS7vYrvnZT9L7atxr4XDO/U9s8p1PFHt8nLdr+6vuOC7cl6t54CPE8xj6bjNAXhs63I7qubZrNvDchkGApB+G9Zt22+b6u88fj2/sl7ZRP//0kH/vRf8neY5NI+4zOn1WP/CTzm9NN+Bmi8JurKn9H8z/SLUKKcdfy+Gacapt8+03EMWinFi+5TO+39Xy1PVeSG06q1bd35tTfr1K4cr51f+Xtah+3qxLMX8lw5TrGtTn6G2LKbVDz7bGhfz7rdD5+9iuHK6LwigYl2qey0OecmfVfX/ebpx/XIbx9/LfXOx7k198nj18rZtUyxzZ1168+29V7ZlW6e+19ZCbIN2nO7rZZt3f2+Ha8etp1O0Zfteb11669ytRbHdpuGKv3vr2l2m1XUxrPowwAADDDDAAAPTMXCSAPAkw0QT4w8Iv/8sfOHXv6+uKf64WuC40F/8h/Yy46n0IEwHEIMH8tUBRXWgFQ9G6gAiHXCVBwz1cKnHUvl6faDe9LQphqsP3uJBSXvwVs1joadTOkBpe9eUO5UXjl+PWx7sl+NXv5frObDBpvXtBgbdaeT16h7ApmVLB2rV+2kZ6uWpQoXh8brTLpZncDlWTKMePgcYVa3qOpbLkYarlr1d5vpAs3BRjd9r33iwWE6rPHg8Y+3L+VVGSwMr1rtYhmads93ivVzncp3za/H/atxum5bvp99T7QZqkuZTL+OVa+khP7kdFqe9xH2cxmCb57apt8e6zuV2k+tVznNh2ZvpL1v+wt5A3XKw3gQxaZh6XeqAItUwBzWlk/T7UG2rmqXlboaJ0yyWMdak2H8MbtvlvHKPqnqcNjDprV+cbg5WUt3r5aunFefTHTcua7FcuUbNclfT747Trkt6Pc+v1zs31i2v19BwsT7lMOv2IMxtV/nITov7lQ6tS2+9yuBraBnz8rfuirYte6zlbW3ISVyOuv65zdvp9dovLXO9LuX2XrZltlD4TMtZz2OoHidbt+6ypHHy+hSuum3WWojrVI6zbLtZHL8yWo47tLxV7br17we+zbTrWuT2606vu56r28Kw6sMAAwwwwAADDEzVwEmDv7j+Jxl2DwLC5+GL3/k4/MHXPw3vtZlg89t7v3ovpHsM5h6EzTvFL09Dp/fhOO9BuOLgMB9MpQOd6sA/HUClA67ugXE6iBi8rCwHLdUlUVcPe7258sFfDhfr3mLVgVq7Q2mmn4ere141B4/59d741XjdZV3cSOsa5AO6fHBc/J8O2NI8hgPNZZevVYFDNf3FA9G4flVdO+Pn5ejUpqrf4EFyb7h8YJdDgzztTu3rcdr2rA4003rWB8/dmsf5L6ljOa2iZmetfVXzPM+6jWIb5Pqsql1ejmS19/TW/F79f7nOrY26XZp5tRbbYXKAl5dxcZimhk0QVA/TabO2l2R234zXmMvbzwf106CKesR26bmPy9g1W7otlnNgW+6sX69WQ+/159P6i/Mpl7MNvVr3/ZCwGj7VIdWofj+3Y6pHO06uU3ee9fqV4xT1T+MMtWscvhiuXa/qia7VPJatT1HTcrl7wU+13tlLue3fCneL+ffXq12WtobxtXa9h+u2dJjYrk196iesF+vetnNexvYpxneziWJ5F7wN1be2kI13a7GqrsW6LdSzqHu9XFXtWiNdg3lbqd4v65NrnvZz8YnzRT3K+nf3P7kte8uRaxvrUNSpnF93/bsBYXeZy3bO7VHtD5palvPr7BdLV906rg4Ib4WD5rLsspa99cwW/L/WU/ra7Us91YIBBhhggAEG9s/AD374H9d+UvGLQsL9CAjTpcWPwx9+vbr34B8U/zcPIPnup+F/Kl4vh/mDv/w0vFxcnvxHb8bp/C584bv5vobb/f9EG1t9YNEcaJz2i36azpKDpdNO88zjnTDkySHG4EHt/m2wJ2r3E9S2OmA+QZsOBoQjqf3gsnXbNB38F2FArN+J132U7rvrt9LDvi//CRyvXH/jp2AjbQNj3f/1AtcUrI1kWR8c3gqH+WTVVCwt1HuN/clUamA9BJ4MMMAAAwwwwMBSAzEgjIHfusdZcbz4MzTeHgWE2w3x0mXLRYi4yb+HCr+d104aBo33QKPqIaKnROnjvEKy7dW+7pXUC//KdWx66pw2cKgDyLYn13iNd9e7Ws6qjbkfqs2kX6vd5t7FZW+5Ua330AmsO7de+LCS81mHD8LhwcBl2fv+ZVJAOPil9XxM7dfnh5poLwYYYIABBhjYlAEB4ZZCwTJg3FRjLZ9OcVnYyhBmHzacYl1OGxbt+4Fhb/lfHBC2l7udLSDbfO2r0HHJZbX1elbrt3qY5fYL03WIsfQS7F5dTzTNbY9TBERn7j287WU1fYEFAwwwwAADDDDAAAMMMDBZAwLCSQSERUhiY53sxjqKQIsvvhhggAEGGGCAAQYYYIABBhiYnAEBoYBwcqgFaQJjBhhggAEGGGCAAQYYYIABBhhg4OQGBIQCQgGhMx8MMMAAAwwwwAADDDDAAAMMMMDAjA0ICAWEdgAz3gE4m3LysylqpVYMMMAAAwwwwAADDDDAAANTNbCRgPDf/Lv9fcJwLMA2f2JtporHetkxMsAAAwwwwAADDDDAAAMMMMAAA/tvYCMB4cF/2m7Its0Ab9vTjrWxoez/hqINtSEDDDDAAAMMMMAAAwwwwAADDEzVwEYCwv/+KIQYhOlJ2AalsRaxJrE2U8VjvbQtAwwwwAADDDDAAAMMMMAAAwwwsP8GNhIQgrD/ELShNmSAAQYYYIABBhhggAEGGGCAAQbmaUBA6AEVejgywAADDDDAAAMMMMAAAwwwwAADDMzYgIBwxo3vrMA8zwpod+3OAAMMMMAAAwwwwAADDDDAAAOlAQGhgNAZAgYYYIABBhhggAEGGGCAAQYYYICBGRsQEM648cuk2O/OHDDAAAMMMMAAAwwwwAADDDDAAAPzNLB2QPjF730eXk4/z8LL3/OjBgwwwAADDDDAAAMMMMAAAwwwwAADDOyngc9DzPrWCghf/u6z8Ozz4EcNGGCAAQYYYIABBhhggAEGGGCAAQYYmIiBmPl99NFH4cmTJ+H58+eh/+9CfDG++eGHH4Y/+s5jDT+Rhhf0CroZYIABBhhggAEGGGCAAQYYYIABBqKBmPnF7O9EAeEXvn0sIBQQMsAAAwwwwAADDDDAAAMMMMAAAwwwMCEDMfNbIyD8TONPqPGdJXCWgAEGGGCAAQYYYIABBhhggAEGGGDgC9/+TEBoQ7AhMMAAAwwwwAADDDDAAAMMMMAAAwzM1YCAUI9AvUIZYIABBhhggAEGGGCAAQYYYIABBmZsQEA448afaypuvZ0RYoABBhhggAEGGGCAAQYYYIABBloDAkIBoTMEDDDAAAMMMMAAAwwwwAADDDDAAAMzNiAgnHHjS8rbpFwt1IIBBhhggAEGGGCAAQYYYICB9Q38/tnz4Of8a7BpqwJCAaEzBAwwwAADDDDAAAMMMMAAAwwwwMBaBmIo+J//88/Dzb/4i3D9+nU/51iDWPNY+9gGmwoKBYR2ABvDtCmUprP+GRs1UzMGGGCAAQYYYIABBhhggIHzMpDDwddeey386r/9Wq5wztlSrHms/SZDQgHhOTfieW2s5uODgQEGGGCAAQYYYIABBhhggAEGtmHgydNn4ebNvxAO7jBTiiFhbIPYFptoYwHhDhtzEw1oGnb2DDDAAAMMMMAAAwwwwAADDDBwXgZi78Hjx0/TJcXnNU/zGfYdL+2ObbGJS40FhALCjSTNNtbhjVVd1IUBBhhggAEGGGCAAQYYYGBKBmIY9dnxYwHhCPKkGBDGthAQjqAxprSRWxcfWgwwwAADDDDAAAMMMMAAAwwwsMpADKM+/UxAuKpG5/VeDAhjWwgIBYR6/zHAAAMMMMAAAwwwwAADDDDAAAPnZkBAOJ4AeTIB4W+/ey1cvHR54efffveDc4N9Xqmu+YxnA9IW2oIBBhhggAEGGGCAAQYYYICB0xnYfkD4QfjrP17MinJ+dLbM6H74asyh/vh2+O0EQuXJBYRf/dsW5c9frRCUr41vo70fvjoRTOOrbWvBsqkFAwwwwAADDDDAAAMMMMAAA+MysP2AsFjff7wd/m0M9F69v6GOZIsBYey8trUMKi7/xpa9qEsdbk46IHy28cZfLODZdi6LmM42vU0vn+lpDwYYYIABBhhggAEGGGCAAQYY2I6B/Q4IuzXJV7ZuJSA8h3xrVgFhbqyFrqRNoW9V3UMv3Qo//zyEZcPn17/63Tp9Tpc23wo//9tb7SXOZa/APP36EugKS7+b67Xw1/8YQhNqdoat0FU9Iq+Fr75aXU4du8LmZVlYpwl0b7UD7u5s1EM9GGCAAQYYYIABBhhggAEGpmRg5wFhzmtezXnQ/5xynfLS45zFpMymk7UUnb7KPGhFL8V8pWuV4dQ5UJpmMa30d86MYj5Vv1fnRBfrzGrTDiYdEObCp0Cubqyc5HYaOIMoi7xi+CaUq7t2Nn/XoWD+O4HK0+4MmxH0AKwcNoS8Pg3Uevj8d2edOmjtQDe94ZgeUwwwwAADDDDAAAMMMMAAAwyczcBoAsImD6qDuabTVy+36WQt3fdyFpRzp76NfmbTHb47rWeflwFh0ZnMJcYvBpcLm3vS5f/7DdMdrtdrb6DQQ8Pn13Iw96wOE4f+zsM2y9EJ9boAVg+bA8IcLhZAYorc4H1xrfpI/a1mDDDAAAMMMMAAAwwwwAADDDBw3gZGExAWeVCVzdTZSz/vOXVAWOc/xXye5Z6B6bVuPiQg7BR6vQ1zIVzrT6tu1NwVs5Pc9nrupQ1ixfAL8+qDKf7Ow+bAsvl/AMDqYQcCws/za+UTearLo897oza/9byql3oxwAADDDDAAAMMMMAAAwzM3cAYA8J867fYCayTHfVzphzw9a4mbTqIlcMP5U6d8QWEG3pyTHu/wMGGaIK0tvddp5EHGqrzfm/8HOQ18yoCwbRxF38vDFsC6WBYfx26O5Ia04pr3bvD2xGrBwMMMMAAAwwwwAADDDDAAAMM7M7AKAPCfHnvH1+rnnq89IrNbqh3ovxHD8IQ/114/vx5ePLkSfjwww/DF7792cbCwbgxr26ItqddCvVyIHhp+SXGVUB4uXo8dW/4hXkVgWDasZR/53FrBN1xe9e2rxw2r0Mbci5c2lyP31zq3Akjd7fB29mqPQMMMMAAAwwwwAADDDDAAAMM9A2MMyBsM6Z4FejyjKUbEOaMpulM1stk+h3RBvOhfC/EnA/lv3MHs07AuFlPk35ISRde0cPu0uXw1VerJw53AsNOoZcP323EEDKCBk0ZEEYQTcNWlwI3wxXBZkTXWZb66TTlsH1Maf3qeXUvXd4skm4dTVs9GGCAAQYYYIABBhhggAEGGGDg7AbGGhC2OU7RSasX+DX3EGx6GBY5UvNat0a5M1qV4fSmXeY7r94Of/3HMUNqbyPXjtsbb2G5uvM8qdPJBIQnXWHDnQ6KuqkbAwwwwAADDDDAAAMMMMAAAwxs0sC5BoTrBGm5o9eSoG+TNRjLtASE6wAx7EYvCx/LRmA5fMAxwAADDDDAAAMMMMAAAwwwcP4GxhoQ5itHy6s6p+5DQCj0E/oxwAADDDDAAAMMMMAAAwwwwAAD525gfAFh/ayIeICcQcgAACAASURBVNu3GfUejOGngNAO4Nx3AFNP3a3f+Z91UnM1Z4ABBhhggAEGGGCAAQb2z8D4AsL9q+Gm3AsIBYQCQgYYYIABBhhggAEGGGCAAQYYYODcDQgIxxNICgjtAM59B7CpdNt0xrMj0RbaggEGGGCAAQYYYIABBhhgYF0DAsLxmBEQCggFhAwwwAADDDDAAAMMMMAAAwwwwMC5G4gB4WfHj8PNm38RfvXffn3u81830Jzq8LH2sQ1iW8Q2Oet6fuHbn4UPP/wwPHnyJDx//jz0/12IL8Y340Bx4LPO0PjjSZq1hbZggAEGGGCAAQYYYIABBhhggIF1DMQw6vjx0/C3f/f34bXXXhMS7iCkjuFgrH1sg9gWAsIdNMI6G41h7WQZYIABBhhggAEGGGCAAQYYYGBqBp48fRY++R+fhb/5278LN2/eTE/TjZe7+jmfGsSax9rHNohtsQlfehAKGTcCaRMYTcOHJgMMMMAAAwwwwAADDDDAAAPjNxB7rD1+8vsUUH109Cj8y+8+Cr/9l9+Ff/6tn23WINY41jrWPIaDsQ020XswbnMCQgGhgJABBhhggAEGGGCAAQYYYIABBhhYy0AMpmLvtXiJa7wP3qef+TmPGsRax5rH2m8qHBQQ2vjX2vidxRn/WRxtpI0YYIABBhhggAEGGGCAAQbO00AMqfycfw023cZ6EAoJhYQMMMAAAwwwwAADDDDAAAMMMMAAAzM2sNWA8N2PQvji95/7OWMN/uw/nP1x1ZtOlk3PGSkGGGCAAQYYYIABBhhggAEGGGBgGgYEhGcM784jABUQTmNjs9PUjgwwwAADDDDAAAMMMMAAAwwwMEYDAkIBoS7EM+5CPMadkmXyYckAAwwwwAADDDDAAAMMMMDA+RrYakCoMc+3MdVbvRlggAEGGGCAAQYYYIABBhhggAEG1jWwZkB4rLeZ3mYMMMAAAwwwwAADDDDAAAMMMMAAAwxMyMAXvn0cPvzww/DkyZPw/Pnz0P93Ib4Y34wDxYHXTSANL7VmgAEGGGCAAQYYYIABBhhggAEGGGBgvAbWCgj/6P94En7zL5+Ed9//KLz7T37UgAEGGGCAAQYYYIABBhhggAEGGGCAgb018P5HKeuLmd+JehB+9NFH4eXvPQv/8snT8M+PnoR/fvTYjxowwAADDDDAAAMMMMAAAwwwwAADDDCwtwaehH/5+GnK/GL298JLjONAX/z+8/DRZ37UgAEGGGCAAQYYYIABBhhggAEGGGCAgakYSJnfOgHh0XEIftSAAQYYYIABBhhggAEGGGCAAQYYYICBaRgQEAo8Bb4MMMAAAwwwwAADDDDAAAMMMMAAAzM2ICCcceNL+aeR8mtH7cgAAwwwwAADDDDAAAMMMMAAA2cxICAUEDpDwAADDDDAAAMMMMAAAwwwwAADDDAwYwMCwhk3/lmSZeM6M8EAAwwwwAADDDDAAAMMMMAAAwxMw4CAUEDoDAEDDDDAAAMMMMAAAwwwwAADDDDAwIwNCAhn3PhS/mmk/NpROzLAAAMMMMAAAwwwwAADDDDAwFkMCAgFhM4QMMAAAwwwwAADDDDAAAMMMMAAAwzM2ICAcMaNf5Zk2bjOTDDAAAMMMMAAAwwwwAADDDDAAAPTMCAgFBA6Q8AAAwwwwAADDDDAAAMMMMAAAwwwMGMDAsIZN76Ufxopv3bUjgwwwAADDDDAAAMMMMAAAwwwcBYDAkIBoTMEDDDAAAMMMMAAAwwwwAADDDDAAAMzNiAgnHHjnyVZNq4zEwwwwAADDDDAAAMMMMAAAwwwwMA0DAgIBYTOEDDAAAMMMMAAAwwwwAADDDDAAAMMzNiAgHDGjS/ln0bKrx21IwMMMMAAAwwwwAADDDDAAAMMnMWAgFBA6AwBAwwwwAADDDDAAAMMMMAAAwwwwMCMDQgIZ9z4Z0mWjevMBAMMMMAAAwwwwAADDDDAAAMMMDANAwJCAaEzBAwwwAADDDDAAAMMMMAAAwwwwAADMzYgIJxx40v5p5Hya0ftyAADDDDAAAMMMMAAAwwwwAADZzEgIBQQOkPAAAMMMMAAAwwwwAADDDDAAAMMMDBjAwLCGTf+WZJl4zozwQADDDDAAAMMMMAAAwwwwAADDEzDgIBQQOgMAQMMMMAAAwwwwAADDDDAAAMMMMDAjA0ICGfc+FL+aaT82lE7MsAAAwwwwAADDDDAAAMMMMDAWQwICAWEzhAwwAADDDDAAAMMMMAAAwwwwAADDMzYgIBwxo1/lmTZuM5MMMAAAwwwwAADDDDAAAMMMMAAA9MwICAUEDpDwAADDDDAAAMMMMAAAwwwwAADDDAwYwMCwhk3vpR/Gim/dtSODDDAAAMMMMAAAwwwwAADDDBwFgMCQgGhMwQMMMAAAwwwwAADDDDAAAMMMMAAAzM2sNOA8MHhtXDx0uVwcKdOeR/eDlcvXQ5XDz+AcsYoO4l3bSI6aX6u3A4Ptl2fO7fCxUvXwuHDF52B+CAcXrkV7sblqZe18bztZTR9+wkGGGCAAQYYYIABBhhggAEGGNiAgVEEhBcvdQMWAeGLQqkZvb8QusVA7nK4eHB/FDuAKuSu/W5gg+yEo6Y3ijbWJjPa39jmbHMMMMAAAwwwwAADDDAwUwMjCQjrXoP9HoSpF1fuOZZ7c90PB7GX4cGt1Nsw9iq7eng7vZZ6mBW9y+4e5HH1StzbkGMhIAyhCuWyhxCG27lyknsdlqFzOXwOGvM0r8bwMfYcfKvtQZjfOzioerw2PQv7Pv++6gHb9CDsv1/3Rkzzv3IrHKR5xfkJGPfW50w/OLSX0JQBBhhggAEGGGCAAQYYmJaBEQSEt8JBCvJuhbudgLAKeKqwpew1Vgc/dRBYhT11WFQHMnGcFOrksHAgZAJ5TyAPtd0J2jmHevES4er3KoQrXy8vCa5eLy53T/OoXOX3cshYBXzVZc7ltMvp5d8749RBYMdsx/yetIlQzBk1BhhggAEGGGCAAQYYYIABBiZlYBQBYQ4GL165tnAPwipMqXsCpstK6x6E9X0Kq/e7lygf3KkDxfK+de5tuJ9wVwaEK9q503uvDf7KcK8MiTvBYdzJLQSEbY/FcthlAWHn9Ti9Yj26y9D1XC6T3wWmDDDAAAMMMMAAAwwwwAADDDBwHgbGERAeD1wmWgcq1SWgiz0Ih3pmtSFMPXzuQSjV3s9wsBesNRtEE969qJ27AWLsWdoN59qdTBn6pfk088g9EAWETf1tT/u7PWk7bccAAwwwwAADDDDAAAMMMDBgYDQB4dFxfelw7ulX9wCrLjGu3ztxD8JeqFOEPUKONhTbi1oUPe+q5S3D4uXt3OnBV0yjGwS2vfe6rw/1IGzvY1mGjMvmk8PqoSC7HD+7z8PtRZsM7Egs955tV9rQFwIGGGCAAQYYYIABBhhggIHCwIgCwhz25CCm7P11LaSHR6QegW2oE0OJFLbkhzwUQdDRcTl+nqaD+L0LcnJP0vJy8U7P0GXt3H09P4ykNVNetp7ttb0Ehy4xXnhISdyQ6iA7PbhkrYeUVPcwFBDaJvdumyw+QCw7vwwwwAADDDDAAAMMMMDANAzsNCCEaBqIpt6OC70LBSTOsjDAAAMMMMAAAwwwwAADDDDAwIQMCAgn1JhTD+p2tX4CQkH2ruyZL3sMMMAAAwwwwAADDDDAAAPnYUBAKCCU+DPAAAMMMMAAAwwwwAADDDDAAAMMzNiAgHDGjX8eCbR5ONPBAAMMMMAAAwwwwAADDDDAAAMMjNuAgFBA6AwBAwwwwAADDDDAAAMMMMAAAwwwwMCMDQgIZ9z40vtxp/faR/swwAADDDDAAAMMMMAAAwwwwMB5GBAQCgidIWCAAQYYYIABBhhggAEGGGCAAQYYmLEBAeGMG/88EmjzcKaDAQYYYIABBhhggAEGGGCAAQYYGLcBAaGA0BkCBhhggAEGGGCAAQYYYIABBhhggIEZGxAQzrjxpffjTu+1j/ZhgAEGGGCAAQYYYIABBhhggIHzMCAgFBA6Q8AAAwwwwAADDDDAAAMMMMAAAwwwMGMDAsIZN/55JNDm4UwHAwwwwAADDDDAAAMMMMAAAwwwMG4DAkIBoTMEDDDAAAMMMMAAAwwwwAADDDDAAAMzNiAgnHHjS+/Hnd5rH+3DAAMMMMAAAwwwwAADDDDAAAPnYUBAKCB0hoABBhhggAEGGGCAAQYYYIABBhhgYMYGdhYQ/t3/++vgRw0YYIABBhhggAEGGGCAAQYYYIABBhg4nYFN9S7cWUC4qRUwHV1tGWCAAQYYYIABBhhggAEGGGCAAQYYOL0BAeGMu4/acE6/4aid2jHAAAMMMMAAAwwwwAADDDDAwFQMCAgFhO4xwAADDDDAAAMMMMAAAwwwwAADDDAwYwMCwhk3/lRSbuvhjA0DDDDAAAMMMMAAAwwwwAADDDBwegMCQgGhMwQMMMAAAwwwwAADDDDAAAMMMMAAAzM2ICCcceNL1k+frKud2jHAAAMMMMAAAwwwwAADDDDAwFQMCAgFhM4QMMAAAwwwwAADDDDAAAMMMMAAAwzM2ICAcMaNP5WU23o4Y8MAAwwwwAADDDDAAAMMMMAAAwyc3oCAUEDoDAEDDDDAAAMMMMAAAwwwwAADDDDAwIwNCAhn3PiS9dMn62qndgwwwAADDDDAAAMMMMAAAwwwMBUDAkIBoTMEDDDAAAMMMMAAAwwwwAADDDDAAAMzNiAgnHHjTyXlth7O2DDAAAMMMMAAAwwwwAADDDDAAAOnNyAgFBCuPkPwi7fCk9f/Jnyybp3ieF96K3y67niGX90e6qM+DDDAAAMMMMAAAwwwwAADDDCwYQMCwg0XVFpdp9UCQjsr2xYDDDDAAAMMMMAAAwwwwAADDOyFgd0HhHduhYsH95ti3T24HC5euhwO7py+W+TZQ7oPwuGVa+Hw4S6XYXjen73xUgh/dqep1+K6Pgqfvf5KePz6zboHX/X3ky+9UvQEbF/rD3f8izjf6v30e9OD8CTTfSccx/l8qZz/8HosLrfh1IQBBhhggAEGGGCAAQYYYIABBhjYhYHdBoQxHLx0uRMQ7qII3XnGcDCGlCMLCH/9zfD8woXw/KWXwvM3vhmeXXgp/P7XQxtNHeT9+FEKET/58c3w5HvvpN8//d4r4fGPH4X0Wn3ZcPo9XQpchIKrAsK1pzu0jF7rmlMP9WCAAQYYYIABBhhggAEGGGCAgd0Z2F1AmMPBGBCmn1vh7nEI3R6ERVh3WIeJly6Hq4cfhKPj/F4cvxq3hXQ/HDTTHQgg+/O+cjs8SF1ey2lWy1XNK4QHh9fq5ayXtxknhKM8vYPbdbhYLFN+r1nuqrHz9K4e3i6W9UWh5Pvh9y9dCOHCl8OTpV10y6AvhBgKpt6Ddc++GBaWoeFRcylwOV7xe68HYdXDcHi6aV51GNlOd3e4Ww+WQS0YYIABBhhggAEGGGCAAQYYYICBZQb2JCCsQ7km9LsWrqZefsXrzWXKvXCwHicHfUcPb4erzXT64y8JCIuQrwozq/GaaS55/+KVa715tQFgDgjL6ZVB6WKD3QnPYg/CN94PRz/68oqQsAj3jkM3DKxDxVU9CGMPw6Pj6lLhoUuMc0DYCRlXTtfGt9iWaqImDDDAAAMMMMAAAwwwwAADDDAwHgO7CwhjqJSDtSbcW9aDMPcabN+/mHvw5Wn0/m7Cu6anYd3LMAeExTy7IHNI2IZ53fcHljsvQ+7JmOfR3EsxT7O9t2ITEOblbpazHWZhvkt7DZagugFhDvuqXoQ3w2fvx2GrYfr3CqwuN449Dm+Gx6+/ElYFhOtM93TrUa6T39WQAQYYYIABBhhggAEGGGCAAQYY2JaBPQkI27AuB2tNAJjDuDpoy+8v9szL02jDujxMM60UwOX38/AFvjyv3AMxh4w5IMx/H+dejO2lz91Lp9tLljsPY6mn012eYv4nCgjXHL65xHjN8baxLKa54uEz2mdbO0HTZYsBBhhggAEGGGCAAQYYYGDuBmYUEPZ75uUQr77MeKEnXxEQ9gPAF/29RkDYCQMFhAIyISkDDDDAAAMMMMAAAwwwwAADDDBwzgYmFxDmy5Y7wdvKovZ7DPb/bi9rzr39ml6KucdgPzBcIyBsLpXe2CXGUv+5p/7W3zbAAAMMMMAAAwwwwAADDDDAAAPrGBhHQJgu2a167HUvxV0M63I41wSA+bLfpgdgr2dgvhw4v5/DvPx6/j+/XwR16RLkg/vNk5XzJcnN/5sICPP8m//by5LXaUjD2vAZYIABBhhggAEGGGCAAQYYYIABBk5jYLcBYSeM21RAGCH0Q8Je6LYQEq54P4WA5fTicubgsh4vTy8Hhs382+l2g8/2HoRXD2+HgyYcLC5rXtnrcUbYUwBc1TGFw02NN1mD2L5qf5odiHE26dC0eGKAAQYYYIABBhhggAEGGNiNgR0HhLtZ6TFgW+gJKRAcvr9ACl/boHUrbZdCSAHhVmrL9bBrdVEXBhhggAEGGGCAAQYYYICBERkQEO6oMQSEJwmHi56bB/dD04MwhoZXbofDg+IBM7kXZ9ETMNc4XyqeArB8SXrqtVn2Br2cpvnguL3nZHUpedl78XY4vFLPMy9Pmk4cpupVenB4O1yte4Tme1YK3k7S1obhhAEGGGCAAQYYYIABBhhggIFdGRAQCgjHndgXPQg7AeGl/FTqOkRMlx5XIV26P2UdIsbA7yiHd3eq8C/fv7KZXqcH4f1w907eIdWh3518SXjdy7AOGavpVPM/uFNfdp7vZVks9642bvPN7eh/FhhggAEGGGCAAQYYYIABBhhYZUBAuKOAcFWjeK/YaIugrQn0itfK8C/WLd7rMQZ3nd6D+R6PMURM48ZegMUlxZ2AsJp3vmdk7EUYewKm6eXwL91jMo+fQ8T8f1529zXkOFvwPwsMMMAAAwwwwAADDDDAAAPjNiAgFBDuaQ/CfF/CbjDXCQhXPNCkCRBj6FcGhJ3ege20BYTj3pH5oNE+DDDAAAMMMMAAAwwwwAADDJzegIBQQDjJgLDqKdjt5Rd7FsYAsbk3YOxNOBgQ1uFjHRau04PwYg4lO70cT7+B2rmpHQMMMMAAAwwwwAADDDDAAAMMbNuAgFBAOO6AsA7pYvCWevE1lwmv7kEYN5yml2C8xDgHd+ny4PpBI81lxvV9DNMlxFWvwfSAkvpBKM0lyye4xPjqlWuherhJEUQyNm5j2kf7MMAAAwwwwAADDDDAAAMMzNyAgHDmALadQM9n+lWwWD24xJmN+bS7ttbWDDDAAAMMMMAAAwwwwAAD+29AQCggdJZgIwYEhD4Q9v8DQRtqQwYYYIABBhhggAEGGGBgngYEhBsJh+aJx05DuzPAAAMMMMAAAwwwwAADDDDAAAP7b0BAKCDUg5ABBhhggAEGGGCAAQYYYIABBhhgYMYGBIQzbnwJ//4n/NpQGzLAAAMMMMAAAwwwwAADDDDAwFkNCAgFhM4QMMAAAwwwwAADDDDAAAMMMMAAAwzM2MDuA8I7t8LFS5fDyZ7+utsHQfzX7/5pePmrf9/bYP4+vHrt34f/2kH09+HVl18OLy+8viTRvvvn4eWX/zz8qDONJcMuG+bdfx/+5OU/Dd9+d83xlk3P6712Vtezno0wPkMMMMAAAwwwwAADDDDAAAMMjNPA7gPCtYKoHQaEKcQrA7h/DN++9nJ4OQaB64SBQ+u7JCBMgWSefieYbOf96t0WVjX8GYPGoeXzmrCQAQYYYIABBhhggAEGGGCAAQYYmKyBnQaEDw6vpd6DsQfhwZ0cdN0PB5euhcPDqmfhxfj7wxCO6p6Gcdjm5+B+3TBxnPz6rXC3BltOP41z5XZ4EN8rp9WZxsB807SqHoF/8t1/bCD86Kt1D8EY7pXhXerJV4eGxetV78N/34aK6b026GuCxroXYBX2lYFkrk8IRylQrOZRBoRHx9X0yuWUzBd1syNr/HLBBQMMMMAAAwwwwAADDDDAAAMMZAM7DQirhajCvW5AeDlcrMO8uweXw8UmxBvqQVi9lsdvhn94O1zN4eLC7zlELOddh4xD8x3o4ZcCwpdfDn9y7U/DUCCX3u8HhC+/HFKg178ceGH6dXBYjJ8bLIeAr96tQstuQBiCXoQ27taKWqgFAwwwwAADDDDAAAMMMMAAAwy82MBoA8KFwC/1/hoKCMveg3UvwhjyLYSCy3siVvc/LMPCbuFS6LZwP8Fe779emDcYEOZpvDAgrHssfvXPw5/0LjFul2U4IDzqT1uvOb3mGGCAAQYYYIABBhhggAEGGGCAAQZWGNj/gLAMAjsrWoWJ/cuR02XH+VLjzvDrBoQxRIwh4Z+Gb383PmSk7h1YT/NsAWEdPuZAMfUwjJcbl6Fg+XsRaAoIbfAd14UNr7PBAAMMMMAAAwwwwAADDDDAAAMDBvYyIGwvOY7hRx0ENpch14FIvM/gUBCYAsXynoc5QFkeEFb3/Bt6+EcM6f48/CiFcmcNCLv3G4wBY3Ppcg4I/88qiGzvVzhwH8KFy5Xz+vlfl2IGGGCAAQYYYIABBhhggAEGGGCAgUUDOw0I0/0Cm4eLxMuD470Bu0Fdc0/BnG4OPWCkDv1yb8HqkuFeD8LiQSjdh5fUlx735tvFUvXWawK74xBSD8F8+W+8F2F+gEkK6OqHlNTvx/sEtpcGh7B4GXB5uXIOCqt55jCwf6/Bo+OhHoTVdJplyTXzv7MDDDDAAAMMMMAAAwwwwAADDDDAAANLDOw0IOyGcIvp5Vne719KvBA0LinI0nnmXnzvFssZX+vde3Dp+OvO7xTDe0BJ0TanqN8u2868tR0DDDDAAAMMMMAAAwwwwAADDOzKwGQDwqNer8Kqd+LZoKUAbkSBYAdNusx56DLos61zZx5CN2caGGCAAQYYYIABBhhggAEGGGCAgckZmG5ACOvksAorhb0MMMAAAwwwwAADDDDAAAMMMMDA5g0ICAWJgkQGGGCAAQYYYIABBhhggAEGGGCAgRkbEBDOuPEl7ptP3NVUTRlggAEGGGCAAQYYYIABBhhgYN8MCAgFhKM/Q/D+7z4OD959GH75y1/6UQMGGNgLA3GfFfdd+/alwPL6IssAAwwwwAADDDDAwDwNCAgFhKM+gI0H2O+88yA8evQoPH361I8aMMDAXhiI+6y47xISzvPLlS/V2p0BBhhggAEGGGBg3wwICAWEow4IYy8c4aBgVDjMwD4aiPuuuA/bty8GlteXWQYYYIABBhhggAEG5mdAQCggHPXBa7yseB+DAcss0GKAgWgg7sN8uZrflyttrs0ZYIABBhhggAEG9s2AgFBAOOqDVwGhkEXQxsA+GxAQ+mK4b18MLS+zDDDAAAMMMMDAPA0ICAWEAkL3dNNLkwEGtmRAQDjPL1e+VGt3BhhggAEGGGCAgX0zMKKA8F74+vXXwvffPS2iOP718PWfluMvn+ZPvnE9vPqD90cdju0bpm0srx6Eeo/tc+8xy86vgLD8TPb7Nj4nTZMrBhhggAEGGGCAgU0YGEdA+O5b4dXrZwzs0jR6AeNP3wjXr78RfjLUSzC91xt+aDiv7TREFRAKWIRsDOyzAQGhL2ub+LJmGhwxwAADDDDAAAMMbNvACALCqudf2ZvvVz94Lbz6g7dSj8Dr16+H69+4V4dU74fvf+V6SK/F11OPw/5r8fUqFIzTuf6V11L4GMcp53F0XI/XTBu2bWM7zfQFhMKhfQ6HLDu/AkKfraf57DMONwwwwAADDDDAAAPnbWDnAWEV4r0VflX01IuX/8ZAL10u3PQCrAO9r9TDxtfz78chvGg6Q+8PvXbeDWB+qzd6AaGARcjGwD4bEBCu3sf7DFQfBhhggAEGGGCAAQbGYWDHAWEV+q3s2ZcDwvoy5HyPwRQiNr3/XjydoTBw6DUwxwEzt8P6AeG98OaNm+Ht3xShys/eDDdu3Kh+vnWvehjDb94ON/NrN94M9/IDCpa9Xk7jxo1w84fvVdMpX//a2+G9ejr3vlXPL82jtzxPn4b0fl6WPO+F198Lb38tT6dYxmL4fQ5OLHthVJtO9iEpAsJxfabkzxb/axcGGGCAAQYYYIABBroGdhsQDt038Lj7sJEmxMtBYepp2A8Eu+NUjVy+1h++KoIHlXQxjHHjWCsgbMK9IpBLr+VwLQZu8b0qeHvzZ1VA04Z1y15/Gt774c1wYyHQK8PIatwqOOxOZyEIy6Fif3q918t5xmVsQklh0mTDpAUr2nrv21pAOP7PmTF+9lkmbhhggAEGGGCAAQbO28D4AsJOaFjcn7AICFNomC9BToFhGQbWiAamk3sfpiJ33gfvvOGddH4nDwjvhTdjD74UCLYBYQzZXhSsLQvfytfL34dDnDIULIPDfi+x+N6b4e2FwLH/ehk4Pg1PY3hY9FAcXob+vPytTgzs2oCA0OfrST/vDMcKAwwwwAADDDDAwC4N7DYgrHsLdi4xTkFg+yCS9r2qF2D10JK30sNKysAv37ewenBJCEdFoHi0EAbW02ouUYZwlwhXzfvkAWEdhAwFhN96s72cuOy11/Q4zD0My2nES3vz6zG8y5f6lq/Xw+eefznAy3/ncYp5xqAx9lwsewfGAGPx9TJwrAPCZnmEPrsOfcyfwZMaEBD6fF31Gec9PhhggAEGGGCAAQbGYmDHAWH9cJH6qcOxKM0lxcVDSzZdrBQmFg842fT0TW9zG/hZA8IYvLU976qgL19a3Bzgp0Avh4FF8LHk9RTu5TCwuAR0+PWiJ2CcXh0WdgLCwdcFhE37FDX2WuFTXfbi8mMB4eY+D3y2qiUDDDDAAAMMMMAAA9szsPOA8Oi46s1X9QYcvlfgJgGkAFLPwbDJmm5zWmcNCDtB3NMirCvDlV6vwyaEWvb6kuAwXQY80MsvhZTfulc9mCT3Ksz/L339R+kBJc3l0XGeA6Fks6zl+vh9L4IjbTePsFNAuL0vMNv8qe1kHQAAIABJREFU7DFt7cYAAwwwwAADDDAwNwMjCAihmxu6ddb3rAHh0xTy5d6BuQdhDAq79ymswrdlr1f3B8xPOs6B39OnS14vegRWw1SXFZeBUDe4bIOS8vXy9zjPJiwUAAoAGdgbAwJCn/HrfOYZlhcGGGCAAQYYYICBXRkQEG7xUuZdNeqU5nvmgPBpfb+/usdeE7I19x/s3VNw2eup12C+D2EOHPO9AevXix5+KUQsegmW4WD8vQz/yve6r1c9Hm/E6RTTLof3exuuqoVajNGAgNAXvCl9JlsXnhlggAEGGGCAgekaEBAKCEd9ufHaAaGeVXvTs2qMYY5lEjJu2oCAcLpfoHw51rYMMMAAAwwwwAADUzIgIBQQCgiFikJFBhjYkgEBoS+NU/rSaF14ZoABBhhggAEGpmtAQCggFBBuKRjYdE8k09O7jYH9MyAgnO4XKF+OtS0DDDDAAAMMMMDAlAwICAWEAkIBod5jDDCwJQMCQl8ap/Sl0brwzAADDDDAAAMMTNeAgFBAKCDcUjCgt9f+9fbSZtps0wYEhNP9AuXLsbZlgAEGGGCAAQYYmJIBAaGAUEAoINR7jAEGtmRAQOhL45S+NFoXnhlggAEGGGCAgekaEBAKCAWEWwoGNt0TyfT0bmNg/wwICKf7BcqXY23LAAMMMMAAAwwwMCUDAkIB4agDwgfvPgyPHj3Su0mIyQADe2cg7rviPmxKXxqsiy/BDDDAAAMMMMAAAwxM04CAUEA46oPX93/3cXjnnQdCQuHQ3oVDevvtX2+/TbZZDAfjvivuw3yBmuYXKO2qXRlggAEGGGCAAQamZEBAKCAc/cFrPMCOvXDipXp+1IABBvbBQNxnCQd9YZzSF0brwjMDDDDAAAMMMDBtAwJCAeHoA0I7oWnvhLSv9mWAAQYYYIABBhhggAEGGGBgtwYEhAJCASEDDDDAAAMMMMAAAwwwwAADDDDAwIwNCAhn3PjS+d2m8+qv/gwwwAADDDDAAAMMMMAAAwwwMAYDAkIBoTMEDDDAAAMMMMAAAwwwwAADDDDAAAMzNiAgnHHjjyGhtgzOlDDAAAMMMMAAAwwwwAADDDDAAAO7NSAgFBA6Q8AAAwwwwAADDDDAAAMMMMAAAwwwMGMDAsIZN750frfpvPqrPwMMMMAAAwwwwAADDDDAAAMMjMGAgFBA6AwBAwwwwAADDDDAAAMMMMAAAwwwwMCMDQgIZ9z4Y0ioLYMzJQwwwAADDDDAAAMMMMAAAwwwwMBuDQgIBYTOEDDAAAMMMMAAAwwwwAADDDDAAAMMzNiAgHDGjS+d3206r/7qzwADDDDAAAMMMMAAAwwwwAADYzAgIBQQOkPAAAMMMMAAAwwwwAADDDDAAAMMMDBjAwLCGTf+GBJqy+BMCQMMMMAAAwwwwAADDDDAAAMMMLBbAwJCAaEzBAwwwAADDDDAAAMMMMAAAwwwwAADMzYgIJxx40vnd5vOq7/6M8AAAwwwwAADDDDAAAMMMMDAGAwICAWEzhAwwAADDDDAAAMMMMAAAwwwwAADDMzYgIBwxo0/hoTaMjhTwgADDDDAAAMMMMAAAwwwwAADDOzWgIBw2wHhL94KT17/m/DJuvOJ433prfDpuuMZ3hkPBhhggAEGGGCAAQYYYIABBhhggIE1DAgI1yjWuabZAkIb8lhtWi42GWCAAQYYYIABBhhggAEGGJiUgZ0GhA8Or4WLly6Hq4cfnFtRP3vjpRD+7M6K+T0Kn73+Snj8+s26B1/195MvvVL0BGxf6w93/IvYJbR6P/3e9CA8yXTfCcdxPl8q57/bLqbnGorauaxwyQGLDDDAAAMMMMAAAwwwwAADDDCwHQPzCQh//c3w/MKF8Pyll8LzN74Znl14Kfz+10NFrYO8Hz9KYc0nP74ZnnzvnfT7p997JTz+8aOQXqsvG06/p0uBi1BwVUC49nSHltFrdggMMMAAAwwwwAADDDDAAAMMMMAAA5sxMKqA8O7B5dSj8OLB/aYnVe5lGHsaXrx0LRw+rFf8zq2FYY+GXuv0Sns//P6lCyFc+HJ40nm9LGYZ9IUQQ8HUe7Du2RfDwjI0PGouBS7HK37v9SCsehgOTzfNqw4j2+mWy+Z3Gz4DDDDAAAMMMMAAAwwwwAADDDDAwGYNjCYgbILAK7fDgzq8a15L4WAdHl66Fe6m9++Hg/R6/juEHDAe3Bkq0p3wLPYgfOP9cPSjL68ICYtw7zh0w8B6uVb1IIw9DI+Oq0uFhy4xzgFhJ2RcOd2hdfGaHQEDDDDAAAMMMMAAAwwwwAADDDDAwGYMjCMgvFLdi/BiE/7FlfsgHF6JoWAbAOYegvmehVUgmHsVLgaGp0PSDQhz2Ff1IrwZPns/Lls1TP9egdXlxrHH4c3w+PVXwqqAcJ3pnm49NgPEvNWRAQYYYIABBhhggAEGGGCAAQYYmLaBUQSE1eXDl8PFovfg0XEO/HLPweL/fAlyfUlxCgwf3g5XY4/C/F7dK2/rgJtLjKcNZet1PK/2Mp/m8n1taptlgAEGGGCAAQYYYIABBhhggIFoYCQB4bVwNfUWvBzay4NXBIRNkFgPc+V2uFs/Ebkd/5waWEAocBI6MsAAAwwwwAADDDDAAAMMMMAAA3tsYBQBYacHYBP+DVxiPFDofN/BqhdicTnywLBS8XMKTdXeTpEBBhhggAEGGGCAAQYYYIABBhjYGwPjCQiPFx8yMvyQkrKXYQj5voQpIDzvy4tB3zr0ZKAJjQWcQm4GGGCAAQYYYIABBhhggAEGGGBg0wZGFRA29x0sAqF+SJgfUNIWor0U+dwvLxYQCggZ2LqBdlv3AaAWDDDAAAMMMMAAAwwwwAADDGzDwE4Dws2sUA4IXV68mXqOa0MrexBWl5NX7dwJjuueo/H9JkBOD61hYoomrNO4tlHtoT0YYIABBhhggAEGGGCAgf03sP8BYf0k43N/erGeY+fScywHhOkhNPkS8tjmTS/T6l6VqfdofL0eJo2Xh9dW59JWPhD2/wNBG2pDBhhggAEGGGCAAQYYYGCeBvY4IMwPMbkcLl7SU2yqG3DbU7Bt4/a12Pb1TwoDY2/SarjYm9Al5/PcqU11W7BePDPAAAMMMMAAAwwwwAADDGzLwB4HhFBsC8WYpjvUg3BV78AqGGyDwjGti2WxzTLAAAMMMMAAAwwwwAADDDDAwBgNCAhdfjrqy09zQPjguHcp8aVr4fBh3KlUr5f3Hjy4cq251HiMG51l8mHAAAMMMMAAAwwwwAADDDDAAANjMiAgFBDuSUAYwlG632R1CXHnMuPOvQaLIFHbjrptx7QjtCw+mBlggAEGGGCAAQYYYIABBuZsQEAoRJpWiOTpxdNqT9un9mSAAQYYYIABBhhggAEGGGBg6wYEhJBtHdm5JfD1E62by4217XTaVltqSwYYYIABBhhggAEGGGCAAQa2ZkBACNfWcJ1bMKgNtSEDDDDAAAMMMMAAAwwwwAADDDBwagMCQnhOjUcA6P4MDDDAAAMMMMAAAwwwwAADDDDAwP4bEBAKCAWEDDDAAAMMMMAAAwwwwAADDDDAAAMzNiAgnHHjS/j3P+HXhtqQAQYYYIABBhhggAEGGGCAAQbOamCkAeEH4fDK5bDOwyYeHF4LFy9dDgd3oDgrCuMzxAADDDDAAAMMMMAAAwwwwAADDMzHwGQCQmjng1Zba2sGGGCAAQYYYIABBhhggAEGGGBgcwZ2HBDeDweXLqeef03vvzu3mr/ja+nn4H66Dv7uQexVeLsZJ/cwjK9Xw14Lhw/r4sTpXLkdDvN7V26HB/XlxLm3YTP94j24NodLLdWSAQYYYIABBhhggAEGGGCAAQYYGL+BnQaEKdgbDOeGLzGugsA6BExB4q1wN99D8OHtcPVSLyC8lC9TroLIdPlxOVz5e56O/92UlAEGGGCAAQYYYIABBhhggAEGGGBgRgZ2GhCWPfm69w5cERDWvQkX0ud+2NcJEAWEC/WaEXLrPv4zFdpIGzHAAAMMMMAAAwwwwAADDDCwOwM7DQirhq/CwPJS4qPjLQaE9bSby4uXBY4CNGcKGGCAAQYYYIABBhhggAEGGGCAAQZmYGAEAWGVjnYvN65Dw154l4bpvdakyyftQVjfmzDfj7AZfwaNbV13l8SrvdozwAADDDDAAAMMMMAAAwwwwMBYDew0IKzuKTjwgJEY1qVLhBcfUnJxISAseiDmh5rE+xouu8S434Pw0uXQvbwZ1rFitVxsMsAAAwwwwAADDDDAAAMMMMAAA5s3sNOAcBcNmu57WDwYZWWvRL0KdSNmgAEGGGCAAQYYYIABBhhggAEGGJi4gdkFhEfpUuTcazH+XzwJeeKNvYtA1jw3n+qrqZoywAADDDDAAAMMMMAAAwwwwMAmDcwvIBQCSv0ZYIABBhhggAEGGGCAAQYYYIABBhhoDAgIYWgwbDJ5Ni1nMhhggAEGGGCAAQYYYIABBhhggIH9MCAgFBAKCBlggAEGGGCAAQYYYIABBhhggAEGZmxAQDjjxt+XFP/9330cHrz7MPzyl7/0owYMMLAXBuI+K+679mU/azn346yudtJODDDAAAMMMMAAA9syICAUEI76ADYeYL/zzoPw6NGj8PTpUz9qwAADe2Eg7rPivktI6Avctr7AmS5bDDDAAAMMMMAAA5s0ICAUEI46IIy9cISDglHhMAP7aCDuu+I+bJMf2qblSyADDDDAAAMMMMAAAwxsw4CAUEA46oPXeFnxPgYDllmgxQAD0UDch23jw9s0fSlkgAEGGGCAAQYYYICBTRoQEAoIR33wKiAUsgjaGNhnAwJCX9o2+aXNtHhigAEGGGCAAQYY2JYBAaGAUEDonm56aTLAwJYMCAh9gdvWFzjTZYsBBhhggAEGGGBgkwYEhAJCAeGWgoF97vVk2fXaY2AzBgSEvrRt8kubafHEAAMMMMAAAwwwsC0DIwoI74WvX38tfP/d0zZ2HP96+PpPy/GXT/Mn37geXv3B+6MOx7bV6Ps0XZcYbyakEPaoIwO7MSAgLD+T/b5Pn7+WlVcGGGCAAQYYYGBeBsYREL77Vnj1+hkDuzSNXsD40zfC9etvhJ8M9RJM7/WGHxrOazsNUQWEuwk1hEnqzsBmDAgI5/Wlypdo7c0AAwwwwAADDDCwrwZGEBBWPf/K3ny/+sFr4dUfvJV6BF6/fj1c/8a9OqR6P3z/K9dDei2+nnoc9l+Lr1ehYJzO9a+8lsLHOE45j6Pjerxm2hCPEbGAcDMhhbBHHRnYjQEBoc/WMX62WiYuGWCAAQYYYIABBvoGdh4QViHeW+FXRU+9ePlvDPTS5cJNL8A60PtKPWx8Pf9+HMKLpjP0/tBr/QL5e7cbzdkDwnvhzRs3wo365+YP3+s+jOFnb4YbX3s7vJfuQ/heePtrN0J/mPd+eLMaphk2TvNmePs3T0PznvsYduuqHurBQDIgINztZ4jPcPVngAEGGGCAAQYYYOBkBnYcEFah38qefTkgrC9DzvcYTCFi0/vvxdMZCgOHXgPnZHDOq05nDQjvfasI/H7zdrh540Z482dVT6IU7sXg8AUBYdPzaiAgbN4ThgjEGGBgwICAcFyfKef12WU+2p0BBhhggAEGGGBg3wzsNiAcum/gcfdhI02Il4PC1NOwHwh2x6kaoXytP3wF1YNKxr/BnjwgrHr/5Z6CbehXXlZYDZMCwp+9mXoKdnsAlj0I656H37rX9hIcCAi745fz8rvwlAEGngYB4fg/Z/bti5vlZYoBBhhggAEGGGBgGwbGFxB2QsPi/oRFQJhCw3wJcgoMyzCwhjIwndz7MBWy8z5c28C1iWmeOCD8zb1w7zc5kGkvAe4EFKkH4ZvhXtHLpxvw5YDwXrrUuNPTMPYyFBDqIVbY6djyOhtLDAgIfb5u4rPQNDhigAEGGGCAAQYY2LaB3QaEdW/BziXGKQhsH0TSvlf1AqweWvJWelhJGfjl+xZWDy4J4agIFI8WwsB6Ws0lyqBtG9ppp3/igDAdnJe9CKt7BLYhznBoOBQQpl6I37rXBB7NMALCpiZtXXMo6381YWDIgIDQ5+tpP/+Mxw4DDDDAAAMMMMDAeRrYcUBYP1ykfupwXPHmkuLioSWbLkgKE4sHnGx6+qa3uY34xAFhDO+a+wv2wsCBnoP5QL4J/4qA8eYP9SDM9fG/0IuBsxkQEG7u88Bnq1oywAADDDDAAAMMMLA9AzsPCI+Oq958VW/A4XsFbhJACiD1HAybrOk2p7VWQJgfNpLCwroHYQwH8+sDlwAOB4TvhadFqNgMowehHoQDhgRoZwvQpl4/AeH2vsBs87PHtLUbAwwwwAADDDDAwNwMjCAghG5u6NZZ3xMHhE/rh4rEpxJ/6+36HoLlJcc3Ug/DtpdhFWo04V+nB+F7KQiLT0C+4SElQkGhIANnMCAg9Bm/zmeeYXlhgAEGGGCAAQYY2JUBAeEWL2XeVaNOab4nDwi314sphYjFPQnLHk+r3iuH8/v22kdt1XbMBgSEvuBN6TPZuvDMAAMMMMAAAwxM14CAUEA46suNdx0QpgCwubdhN4hZ9d6YAwvL1m1H9VCPbRoQEE73C5Qvx9qWAQYYYIABBhhgYEoGBIQCQgHhGS4f3GawYNqCKwb234CA0JfGKX1ptC48M8AAAwwwwAAD0zUgIBQQCggFhO4xxwADWzIgIJzuFyhfjrUtAwwwwAADDDDAwJQMCAgFhALCLQUDen/tf+8vbagNz2pAQOhL45S+NFoXnhlggAEGGGCAgekaEBAKCAWEAkK9xxhgYEsGBITT/QLly7G2ZYABBhhggAEGGJiSAQGhgFBAuKVg4Kw9j4yv9xoD+29AQOhL45S+NFoXnhlggAEGGGCAgekaEBAKCAWEAkK9xxhgYEsGBITT/QLly7G2ZYABBhhggAEGGJiSAQGhgHDUAeGDdx+GR48eCS+2FF7oobb/PdS04XjbMO674j5sSl8arIsvwQwwwAADDDDAAAMMTNOAgFBAOOqD1/d/93F4550HQkIBoZCYgb0yEMPBuO+K+zBfoKb5BUq7alcGGGCAAQYYYICBKRkQEAoIR3/wGg+wYy+ceKmeHzVggIF9MBD3WcJBXxin9IXRuvDMAAMMMMAAAwxM24CAUEA4+oDQTmjaOyHtq30ZYIABBhhggAEGGGCAAQYY2K0BAaGAUEDIAAMMMMAAAwwwwAADDDDAAAMMMDBjAwLCGTe+dH636bz6qz8DDDDAAAMMMMAAAwwwwAADDIzBgIBQQOgMAQMMMMAAAwwwwAADDDDAAAMMMMDAjA0ICGfc+GNIqC2DMyUMMMAAAwwwwAADDDDAAAMMMMDAbg0ICAWEzhAwwAADDDDAAAMMMMAAAwwwwAADDMzYgIBwxo0vnd9tOq/+6s8AAwwwwAADDDDAAAMMMMAAA2MwICAUEDpDwAADDDDAAAMMMMAAAwwwwAADDDAwYwMCwhk3/hgSasvgTAkDDDDAAAMMMMAAAwwwwAADDDCwWwMCQgGhMwQMMMAAAwwwwAADDDDAAAMMMMAAAzM2ICCcceNL53ebzqu/+jPAAAMMMMAAAwwwwAADDDDAwBgMCAgFhM4QMMAAAwwwwAADDDDAAAMMMMAAAwzM2ICAcMaNP4aE2jI4U8IAAwwwwAADDDDAAAMMMMAAAwzs1oCAUEDoDAEDDDDAAAMMMMAAAwwwwAADDDDAwIwNCAhn3PjS+d2m8+qv/gwwwAADDDDAAAMMMMAAAwwwMAYDAkIBoTMEDDDAAAMMMMAAAwwwwAADDDDAAAMzNiAgHGHjf/Ljm+HJ995Ze8NM473+N+GTEa7TGNJwy+CsDAMMMMAAAwwwwAADDDDAAAMMMLBoQEA4oTBNQLgI3EavJgwwwAADDDDAAAMMMMAAAwwwwMBqA3sdED44vBYuXrocrh5+sHZvu3VgPPmzC+H5G++vmMc74fhLN8Pj118JT1IPvvj3K+FJ/Gl6AravPX79ZjHczfDZ+7GRqmnE39sehCeY7vt/Ex7X82qnu7rR11l3w6olAwwwwAADDDDAAAMMMMAAAwwwMG0DAsJVPQh/9OUQLrwUnr90ITx745vh+YUvhyeDw1fh3/EvKiyffu+V8PjHj8LR8aPw2euvhPh6fC2Hhen3Jkh8UUBYjR83xJNPd9po7ZS0LwMMMMAAAwwwwAADDDDAAAMMMLA5A7sLCB/eDlcvXQ4XD+63PfPya1duhwcpiPsgHF65nHoJxp6C/d6C/R6E/b+PjvP4t8LdIti7e1BOs/veIq474dmFCyG89M3wWTGN7nBt778cCqbeg7ln348fFeFe3UPwxAFhDhCrsLE73d+kALIKI8vpbg5Idz1NVz0YYIABBhhggAEGGGCAAQYYYICBqRnYXUA4EN71A75ukJdDvWvh8GEFsT98/++hgHBwmk0g2QP+69hr8EJ49qMQPnvjpRUhYRkQlj392ukt70FY9xBMlwpXYWD/EuPqEuR1ptvOd2pgrY+2ZYABBhhggAEGGGCAAQYYYIABBjZrYIcBYQg50Du4E1cq9/ZrA8B+Y+dwrxq+HT/fgzBPL//dTjP3ErwfDmJPxCIQzOPkafbnebK/uwHhUXFfwCdfeit8mnoexmGq+xKW9wpMwWF8/fWb4fGXVgeE60z3ZMu9WUzmqZ4MMMAAAwwwwAADDDDAAAMMMMDA/hnYaUB4lC8pjpcZl7/3LuXNIV6+zDiHefn1HAj2/14ICPM86suV8/T6ly5vG7KnDe/fhrJtE6bPBAMMMMAAAwwwwAADDDDAAAMM7MrAbgPCptfgrXBYP5E4h3+xIP0eg/2/+4Fg/++j47rH4KW6B+GKgLBzL8ReQLnpxhEQ2uA3bcr0mGKAAQYYYIABBhhggAEGGGCAgdMa2HFA2F4mXPXmy5cCxwbthXtNmHg55BCxHwjmv5uw786t+gEnebqLlxiftnDGs9ExwAADDDDAAAMMMMAAAwwwwAADDEzBwM4DwjYI7D3RuAkI88NJ2v+XBYRHTSDYDtsPHnMvxPLy4ouXlt/3cAqNbB3srBhggAEGGGCAAQYYYIABBhhggAEGlhkYQUC4eClxs7Bl4BcfLJIvEY73LDxuex/mexDG18oA8Orh/XB4JYaFuQdhBaEcJgaFOXBs5rvlS4zNZ0sbZPRSPIBGnbdUZ9tH2v/wxRcDDDDAAAMMMMAAAwwwwMBUDIwiIJxKMa3HjncMAkLBlfCSAQYYYIABBhhggAEGGGCAAQbWNiAghGZtNOcXhH6QeoA2PTxTD9LqcvBuL9C6h2gTEFb3mszjpXtT1r1Om6dlpydZd3uWnt967ThIZX7E5tmwHTLAAAMMMMAAAwwwwAADDJy/AQGhsGTUYUkn3IsBYAr67oe7d/LGUoSILwwIY3DY3m+yM20ORu3Ah0P27n8WGGCAAQYYYIABBhhggAEGNm9AQCgYGncwFHsN1vcVjL0Gc6/AuDMoexGm118UEOZ7WKbeg/lBNnoR2rFufseqpmrKAAMMMMAAAwwwwAADDDCwTwYEhALCcQeEx7GHYOz1F3v/1WFeHfRVD6dZowdhGk8guE87KMvqA5UBBhhggAEGGGCAAQYYYICB7RsQEAoIRx4QVk+rvnrlWn15cQjVfQS7YWG3B2EVGpYBYr40+eDS5ZCfep0uMfbU49G3vw+C7X8QqLEaM8AAAwwwwAADDDDAAAPzNiAgFBDuQUDUfejIUepVWF8ifOV2ODyoQ7/mEuMqVLyYLiW+Fg4O+uGiy4vt+Oe949f+2p8BBhhggAEGGGCAAQYYYKA0ICAUEO5BQGijLTdav/PAAAMMMMAAAwwwwAADDDDAAAObNCAgFBAKCBlggAEGGGCAAQYYYIABBhhggAEGZmxAQDjjxt9k0mxazlwwwAADDDDAAAMMMMAAAwwwwAAD+2lAQCggdIaAAQYYYIABBhhggAEGGGCAAQYYYGDGBgSEM258qf5+pvraTbsxwAADDDDAAAMMMMAAAwwwwMAmDQgIBYTOEDDAAAMMMMAAAwwwwAADDDDAAAMMzNjASAPCD8Lhlcvh6uEHJ8b54PBauHjpcji4I0HeZIJsWjwxwAADDDDAAAMMMMAAAwwwwAAD0zYwmYAQ1GlD1b7alwEGGGCAAQYYYIABBhhggAEGGNiOgR0HhPfDwaXLqedf0/vvzq3m7/ha+jm4n3oS3j2IvQpvN+PkHobx9WrYa+HwYV2oOJ0rt8Nhfu/K7fCg7iqaexs20y/eA2070NRVXRlggAEGGGCAAQYYYIABBhhggIFxGthpQJiCvcFwbvgS4yoIrEPAFCTeCnfz9eEPb4erl3oB4aV8mXIVRKbLj8vhyt/zdPx/4su6bdTj3Ki1i3ZhgAEGGGCAAQYYYIABBhhggIF1DOw0ICx78nXvHbgiIKx7Ey6sZD/s6wSIAsKFeglCBaEMMMAAAwwwwAADDDDAAAMMMMAAA8ch7DQgrEKrKgwsLyU+Ot5iQFhPu7m8eFngaAOxgTDAAAMMMMAAAwwwwAADDDDAAAMMzMDACALCqstn93LjOjTshXdpmN5rTc+4k/YgrO9NmO9H2Iw/g8a2rroXM8AAAwwwwAADDDDAAAMMMMAAAwz0Dew0IKzuKTjwgJEY1qVLhBcfUnJxISAseiDmh5rE+xouu8S434Pw0uXQvbwZkj4SfzPBAAMMMMAAAwwwwAADDDDAAAMMTNfATgPCXcBK9z0sHoyysleiXoW6ETPAAAMMMMAAAwwwwAADDDDAAAMMTNzA7ALCo3Qpcu61GP8vnoQ88cbeRSBrntM9u6BttS0DDDDAAAMMMMAAAwwwwAAD0zAwv4BQCCj1Z4ABBhhggAEGGGCAAQYYYIABBhhgoDEgIIShwSD1n0bqrx21IwMMMMAAAwwwwAADDDDAAAMMrGNAQCggFBAywAADDDDAAAMMMMAAAwwwwAADDMzsKVY3AAAgAElEQVTYgIBwxo2/TpK8y2Hf/93H4cG7D8Mvf/lLP2rAAAN7YSDus+K+a5f7TvN2xpgBBhhggAEGGGCAAQZOakBAKCAc9QFsPMB+550H4dGjR+Hp06d+1IABBvbCQNxnxX2XkNAXspN+ITMcKwwwwAADDDDAAAO7NCAgFBCOOiCMvXCEg4JR4TAD+2gg7rviPmyXH/Lm7UsmAwwwwAADDDDAAAMMnMSAgFBAOOqD13hZ8T4GA5ZZoMUAA9FA3Ied5MPYML60McAAAwwwwAADDDDAwC4NCAgFhKM+eBUQClkEbQzsswEBoS95u/ySZ978McAAAwwwwAADDJzUgIBQQCggdE83vTQZYGBLBgSEvpCd9AuZ4VhhgAEGGGCAAQYY2KWBEQWE98LXr78Wvv/uaUHE8a+Hr/+0HH/5NH/yjevh1R+8P+pwbJcwxjJvPQj1Htvn3mOWnV8BYfmZ7PexfLZaDhYZYIABBhhggAEG+gbGERC++1Z49foZA7s0jV7A+NM3wvXrb4SfDPUSTO/1hh8azms7DVEFhAIWIRsD+2xAQOiLV/+Ll7+ZYIABBhhggAEGGBijgREEhFXPv7I3369+8Fp49QdvpR6B169fD9e/ca8Oqd4P3//K9ZBei6+nHof91+LrVSgYp3P9K6+l8DGOU87j6Lger5k2oGMEKiAUDu1zOGTZ+RUQ+mwd42erZeKSAQYYYIABBhhgoG9g5wFhFeK9FX5V9NSLl//GQC9dLtz0AqwDva/Uw8bX8+/HIbxoOkPvD73WL5C/d7vRCAgFLEI2BvbZgIBwt58hPsPVnwEGGGCAAQYYYICBkxnYcUBYhX4re/blgLC+DDnfYzCFiE3vvxdPZygMHHoNnJPBOa86nTQgfO+HN8ONb91b80EL98KbN26Gt3/zNLxo/PT+194O7635IIMXTXefgw/LLrhj4MUGBITj+kw5r88u89HuDDDAAAMMMMAAA/tmYLcB4dB9A4+7DxtpQrwcFKaehv1AsDtO1Qjla/3hK6geVDL+DVZA+OIAQkijRgyM14CAcPyfM/v2xc3yMsUAAwwwwAADDDCwDQPjCwg7oWFxf8IiIEyhYb4EOQWGZRhYQxmYTu59mArZeR+ubeDaxDRPExDe+9aNcONG/ZN7Ff7m7XAzv3bjRrj5w/fC06fDPQg74994M9x7WvcwrHsQVu/H1+P47bze/FkdUvzszXr+N8Ob3zpNz8bxhh2CKG3DwHoGBIQ+XzfxWWgaHDHAAAMMMMAAAwxs28BuA8K6t2DnEuMUBLYPImnfq3oBVg8teSs9rKQM/PJ9C6sHl4RwVASKRwthYD2t5hJl0LYN7bTTXzsgTEFgFep1AsCf3WsvD44BXgr7hgLCe+FeDvqevhfe/tqNEIO/fInxveJS5s7lw51pVuM8rcdf/9Ln9QIIgY16MTBeAwJCn6+n/fwzHjsMMMAAAwwwwAAD52lgxwFh/XCR+qnDccWbS4qLh5ZsuiApTCwecLLp6Zve5jbitQPCHMrFnn2592C+b2DZi3BpQFgFDWUvwiYgTL0Fc/j4NDwtptftPdgO0wkR83L4f817RY43/BHMaZsXGRAQbu7zwGerWjLAAAMMMMAAAwwwsD0DOw8Ij46r3nxVb8DhewVuEkAKIPUcDJus6TantX5AmAOL9vLfGN61lwU/DU87vf16DympQ7/qEuTVPQibYKC5pPjNcC/9LiBsaiMMFYbO3ICAcHtfYLb52WPa2o0BBhhggAEGGGBgbgZGEBBCNzd066zv2gFhDPiapw23AV8MCKvQrw4Ll/UgTAFhHfDVYWHTgzCN004z9g7M06x6E8bxqmCy6lFYDbvQk3HmgYnwMIfY/p+DBQGhz/h1PvMMywsDDDDAAAMMMMDArgwICLd4KfOuGnVK8107IMwPFMkPD8mXGTe9/G6EN38YH1iSw7xeD8LyEuWvvR3eroPFfA/C92K41/QSrAPAel7dy4zjw0s8pGQOAZB1FHSuMiAg9AVvSp/J1oVnBhhggAEGGGBgugYEhALCUV9ufNKAcNUBuvcEOAwwsCsDAsLpfoHy5VjbMsAAAwwwwAADDEzJgIBQQCggdMmv++QxwMCWDAgIfWmc0pdG68IzAwwwwAADDDAwXQMCQgGhgHBLwcCueiyZr95yDIzHgIBwul+gfDnWtgwwwAADDDDAAANTMiAgFBAKCAWEeo8xwMCWDAgIfWmc0pdG68IzAwwwwAADDDAwXQMCQgGhgHBLwYBeXOPpxaUttMWuDAgIp/sFypdjbcsAAwwwwAADDDAwJQMCQgGhgFBAqPcYAwxsyYCA0JfGKX1ptC48M8AAAwwwwAAD0zUgIBQQCgi3FAzsqseS+eotx8B4DAgIp/sFypdjbcsAAwwwwAADDDAwJQMCQgHhqAPCB+8+DI8ePdK7SYjJAAN7ZyDuu+I+bEpfGqyLL8EMMMAAAwwwwAADDEzTgIBQQDjqg9f3f/dxeOedB0JC4dDehUN68Y2nF98u2iKGg3HfFfdhvkBN8wuUdtWuDDDAAAMMMMAAA1MyICAUEI7+4DUeYMdeOPFSPT9qwAAD+2Ag7rOEg74wTukLo3XhmQEGGGCAAQYYmLYBAaGAcPQBoZ3QtHdC2lf7MsAAAwwwwAADDDDAAAMMMLBbAwJCAaGAkAEGGGCAAQYYYIABBhhggAEGGGBgxgYEhDNufOn8btN59Vd/BhhggAEGGGCAAQYYYIABBhgYgwEBoYDQGQIGGGCAAQYYYIABBhhggAEGGGCAgRkbEBDOuPHHkFBbBmdKGGCAAQYYYIABBhhggAEGGGCAgd0aEBAKCJ0hYIABBhhggAEGGGCAAQYYYIABBhiYsQEB4YwbXzq/23Re/dWfAQYYYIABBhhggAEGGGCAAQbGYEBAKCB0hoABBhhggAEGGGCAAQYYYIABBhhgYMYGBIQzbvwxJNSWwZkSBhhggAEGGGCAAQYYYIABBhhgYLcGBIQCQmcIGGCAAQYYYIABBhhggAEGGGCAAQZmbEBAOOPGl87vNp1Xf/VngAEGGGCAAQYYYIABBhhggIExGBAQCgidIWCAAQYYYIABBhhggAEGGGCAAQYYmLEBAeGMG38MCbVlcKaEAQYYYIABBhhggAEGGGCAAQYY2K0BAaGA0BkCBhhggAEGGGCAAQYYYIABBhhggIEZGxAQzrjxpfO7TefVX/0ZYIABBhhggAEGGGCAAQYYYGAMBgSEAkJnCBhggAEGGGCAAQYYYIABBhhggAEGZmxAQDjjxh9DQm0ZnClhgAEGGGCAAQYYYIABBhhggAEGdmtAQCggdIaAAQYYYIABBhhggAEGGGCAAQYYYGDGBgSEM2586fxu03n1V38GGGCAAQYYYIABBhhggAEGGBiDAQGhgNAZAgYYYIABBhhggAEGGGCAAQYYYICBGRsQEM648ceQUFsGZ0oYYIABBhhggAEGGGCAAQYYYICB3RoQEAoInSFggAEGGGCAAQYYYIABBhhggAEGGJixAQHhjBtfOr/bdF791Z8BBhhggAEGGGCAAQYYYIABBsZgQEAoIHSGgAEGGGCAAQYYYIABBhhggAEGGGBgxgYEhDNu/DEk1JbBmRIGGGCAAQYYYIABBhhggAEGGGBgtwYEhAJCZwgYYIABBhhggAEGGGCAAQYYYIABBmZsQEA448aXzu82nVd/9WeAAQYYYIABBhhggAEGGGCAgTEYEBAKCJ0hYIABBhhggAEGGGCAAQYYYIABBhiYsQEB4YwbfwwJtWVwpoQBBhhggAEGGGCAAQYYYIABBhjYrQEBoYDQGQIGGGCAAQYYYIABBhhggAEGGGCAgRkbEBDOuPGl87tN59Vf/RlggAEGGGCAAQYYYIABBhhgYAwGBIQCQmcIGGCAAQYYYIABBhhggAEGGGCAAQZmbEBAOOPGH0NCbRmcKWGAAQYYYIABBhhggAEGGGCAAQZ2a0BAKCB0hoABBhhggAEGGGCAAQYYYIABBhhgYMYGBIQzbnzp/G7TefVXfwYYYIABBhhggAEGGGCAAQYYGIMBAaGA0BkCBhhggAEGGGCAAQYYYIABBhhggIEZGxAQzrjxx5BQWwZnShhggAEGGGCAAQYYYIABBhhggIHdGhAQCgidIWCAAQYYYIABBhhggAEGGGCAAQYYmLEBAeGMG186v9t0Xv3VnwEGGGCAAQYYYIABBhhggAEGxmBAQCggdIaAAQYYYIABBhhggAEGGGCAAQYYYGDGBgSEM278MSTUlsGZEgYYYIABBhhggAEGGGCAAQYYYGC3BgSEAkJnCBhggAEGGGCAAQYYYIABBhhggAEGZmxAQDjjxpfO7zadV3/1Z4ABBhhggAEGGGCAAQYYYICBMRgQEAoInSFggAEGGGCAAQYYYIABBhhggAEGGJixAQHhjBt/DAm1ZXCmhAEGGGCAAQYYYIABBhhggAEGGNitAQGhgNAZAgYYYIABBhhggAEGGGCAAQYYYICBGRsQEM648aXzu03n1V/9GWCAAQYYYIABBhhggAEGGGBgDAYEhAJCZwgYYIABBhhggAEGGGCAAQYYYIABBmZsQEA448YfQ0JtGZwpYYABBhhggAEGGGCAAQYYYIABBnZrQEAoIHSGgAEGGGCAAQYYYIABBhhggAEGGGBgxgYEhDNufOn8btN59Vd/BhhggAEGGGCAAQYYYIABBhgYgwEBoYDQGQIGGGCAAQYYYIABBhhggAEGGGCAgRkbEBDOuPHHkFBbBmdKGGCAAQYYYIABBhhggAEGGGCAgd0aEBAKCJ0hYIABBhhggAEGGGCAAQYYYIABBhiYsQEB4YwbXzq/23Re/dWfAQYYYIABBhhggAEGGGCAAQbGYEBAKCB0hoABBhhggAEGGGCAAQYYYIABBhhgYMYGBIQzbvwxJNSWwZkSBhhggAEGGGCAAQYYYIABBhhgYLcG1g4IP/rseUg/n34ePvKjBgwwwAADDDDAAAMMMMAAAwwwwAADDOyngTrnWysgfPm7z8Kzz4MfNWCAAQYYYIABBhhggAEGGGCAAQYYYGAiBmLm99FHH4UnT56E58+fh/6/C/HF+OaHH34Y/ug7jzX8RBpe0CvoZoABBhhggAEGGGCAAQYYYIABBhiIBmLmF7O/EwWEX/j2sYBQQMgAAwwwwAADDDDAAAMMMMAAAwwwwMCEDMTMb42A8DONP6HGd5bAWQIGGGCAAQYYYIABBhhggAEGGGCAgS98+zMBoQ3BhsAAAwwwwAADDDDAAAMMMMAAAwwwMFcDAkI9AvUKZYABBhhggAEGGGCAAQYYYIABBhiYsQEB4Ywbf66puPV2RogBBhhggAEGGGCAAQYYYIABBhhoDQgIBYTOEDDAAAMMMMAAAwwwwAADDDDAAAMMzNiAgHDGjS8pb5NytVALBhhggAEGGGCAAQYYYIABBhiYqwEBoYDQGQIGGGCAAQYYYIABBhhggAEGGGCAgRkbEBDOuPHnmopbb2eEGGCAAQYYYIABBhhggAEGGGCAgdaAgFBA6AwBAwwwwAADDDDAAAMMMMAAAwwwwMCMDQgIZ9z4kvI2KVcLtWCAAQYYYIABBhhggAEGGGCAgbkaEBAKCJ0hYIABBhhggAEGGGCAAQYYYIABBhiYsQEB4Ywbf66puPV2RogBBhhggAEGGGCAAQYYYIABBhhoDQgIBYTOEDDAAAMMMMAAAwwwwAADDDDAAAMMzNjATgPC3373/2/vbn8kq+7EjvN3JEpeRVGiRHnDy3k1f8BKzL7Z1UrZJNp9M7YlJJNdjTREygqi1cS9xmJhGQ0Is2NAbjCGNmJsj4UMjjXjwYDXs7bXbHAzMtgMMUz7AeiFBX7RufeeqnOrq/r54Vadj6VRd9fDrXvP/VQV/t5zq07FseMnpvw7Fz+seKco2OOCbSyMBQMMMMAAAwwwwAADDDDAAAMMMHCwBgYRCO9+odjIX1yI21I0/PxV5VokZYABBhhggAEGGGCAAQYYYIABBhhg4IANDC8Qfnw9Vj6VZhWaRaiOF+H4gJ8IxtpYM8AAAwwwwAADDDDAAAMMMMBArQbmIhD+8PPFacifuhD/bxSLrsbdvVOUx1Exn7589+fPjU9hnpiV2Fvu8VOx8ov8ROiW+6kLsVI89nim4+zHTZB6y93m+tYK0HZnc36ywAADDDDAAAMMMMAAAwwwwAADR2NgeIFw4hTjNrbleNeFuS70tdd1UXDifjkQjk5VfqENhbc9cb2ZltpfbkS+fRsBcwCceNwu9m32uP3lbn99PQGO5glg3I07AwwwwAADDDDAAAMMMMAAAwzUbmAQgXDDF5WMZvp1ga2YhVfGufb3dnbheHZfi7of/NJl5bL64a5FUF5W3jbdt3/a8+zHnbxfnk3YRszZ9/NErP2JaPs9BxhggAEGGGCAAQYYYIABBhhg4KgMDCIQtnEvR7gTkWf5jaJe7zTiFAS7mX151mBxfb7vxkCYl38ufpjvNwqRCWAZ98rf03XFfdPpzfn+Gx63u19xeRs/t17fowLgcb34MMAAAwwwwAADDDDAAAMMMMAAA3UbGFAgLMPb9FN7N8Oag2COh/nv8czCMvp1v08LhM1l5W0TkIlAOPoMxPGpye3jTt5vNq68fnl9N9s2180eR2NjbBhggAEGGGCAAQYYYIABBhhggIG9GRhWIPy4CG69z/ubFgw3Rrvy9ONRgMunJ+/mMwjzfXuBcPPHbddh5+sL8t4gGz/jxwADDDDAAAMMMMAAAwwwwAADDOzOwOAC4Xi23vhU4/Kz+44dH39TcXnb3qm8RWi8+4kLcVs+5bc3YzB/PmD+huQc9dJATs4EnIyC+e9p951c7vbWF+DdATZuxo0BBhhggAEGGGCAAQYYYIABBhjYm4EjDYQHufPyDMLxKcZ7G6iDXFfLtm8YYIABBhhggAEGGGCAAQYYYIABBo7KgEBYfJ7gUe0Ej+sFgAEGGGCAAQYYYIABBhhggAEGGGDgqAwIhAJhHBU+j+uFjwEGGGCAAQYYYIABBhhggAEGGDh6AwsbCOE6elz2gX3AAAMMMMAAAwwwwAADDDDAAAMMDN+AQGgGoRmEDDDAAAMMMMAAAwwwwAADDDDAAAMVGxAIK975Cv7wC759ZB8xwAADDDDAAAMMMMAAAwwwwMBBGxAIBUJHCBhggAEGGGCAAQYYYIABBhhggAEGKjYgEFa88w+6Plu+IxwMMMAAAwwwwAADDDDAAAMMMMDA8A0IhAKhIwQMMMAAAwwwwAADDDDAAAMMMMAAAxUbEAgr3vkK/vALvn1kHzHAAAMMMMAAAwwwwAADDDDAwEEbEAgFQkcIGGCAAQYYYIABBhhggAEGGGCAAQYqNiAQVrzzD7o+W74jHAwwwAADDDDAAAMMMMAAAwwwwMDwDQiEAqEjBAwwwAADDDDAAAMMMMAAAwwwwAADFRsQCCve+Qr+8Au+fWQfMcAAAwwwwAADDDDAAAMMMMDAQRsQCAVCRwgYYIABBhhggAEGGGCAAQYYYIABBio2IBBWvPMPuj5bviMcDDDAAAMMMMAAAwwwwAADDDDAwPANCIQCoSMEDDDAAAMMMMAAAwwwwAADDDDAAAMVG9hhIFyHpWIsiv/wi799ZB8xwAADDDDAAAMMMMAAAwwwwMBODfzxY+vxzjvvxAcffBCffPJJTP7vpnRhujLdKN14pw/g9lAywAADDDDAAAMMMMAAAwwwwAADDDAwXAM7CoT/5SsfxOu/+l289uaNeO2X/hkDBhhggAEGGGCAAQYYYIABBhhggAEG5tbAmzea1pea37ZmEN64cSP+61c/il/97sN46zcfxFu/+Sf/jAEDDDDAAAMMMMAAAwwwwAADDDDAAANza+CD+NVvP2yaX2p/W55inG703578JG68758xYIABBhhggAEGGGCAAQYYYIABBhhgYFEMNM1vJ4FwbT3CP2PAAAMMMMAAAwwwwAADDDDAAAMMMMDAYhgQCAVPwZcBBhhggAEGGGCAAQYYYIABBhhgoGIDAmHFO1/lX4zKbz/ajwwwwAADDDDAAAMMMMAAAwwwsBcDAqFA6AgBAwwwwAADDDDAAAMMMMAAAwwwwEDFBgTCinf+Xsqy+zoywQADDDDAAAMMMMAAAwwwwAADDCyGAYFQIHSEgAEGGGCAAQYYYIABBhhggAEGGGCgYgMCYcU7X+VfjMpvP9qPDDDAAAMMMMAAAwwwwAADDDCwFwMCoUDoCAEDDDDAAAMMMMAAAwwwwAADDDDAQMUGBMKKd/5eyrL7OjLBAAMMMMAAAwwwwAADDDDAAAMMLIYBgVAgdISAAQYYYIABBhhggAEGGGCAAQYYYKBiAwJhxTtf5V+Mym8/2o8MMMAAAwwwwAADDDDAAAMMMLAXAwKhQOgIAQMMMMAAAwwwwAADDDDAAAMMMMBAxQYEwop3/l7Ksvs6MsEAAwwwwAADDDDAAAMMMMAAAwwshgGBUCB0hIABBhhggAEGGGCAAQYYYIABBhhgoGIDAmHFO1/lX4zKbz/ajwwwwAADDDDAAAMMMMAAAwwwsBcDAqFA6AgBAwwwwAADDDDAAAMMMMAAAwwwwEDFBgTCinf+Xsqy+zoywQADDDDAAAMMMMAAAwwwwAADDCyGAYFQIHSEgAEGGGCAAQYYYIABBhhggAEGGGCgYgMCYcU7X+VfjMpvP9qPDDDAAAMMMMAAAwwwwAADDDCwFwMCoUDoCAEDDDDAAAMMMMAAAwwwwAADDDDAQMUGBMKKd/5eyrL7OjLBAAMMMMAAAwwwwAADDDDAAAMMLIYBgVAgdISAAQYYYIABBhhggAEGGGCAAQYYYKBiAwJhxTtf5V+Mym8/2o8MMMAAAwwwwAADDDDAAAMMMLAXAwKhQOgIAQMMMMAAAwwwwAADDDDAAAMMMMBAxQYEwop3/l7Ksvs6MsEAAwwwwAADDDDAAAMMMMAAAwwshgGBUCB0hIABBhhggAEGGGCAAQYYYIABBhhgoGIDAmHFO1/lX4zKbz/ajwwwwAADDDDAAAMMMMAAAwwwsBcDAqFA6AgBAwwwwAADDDDAAAMMMMAAAwwwwEDFBgYRCC8vnYhjx4t/Jy/E6i53yuryqWZZS5eU472UY/flhwEGGGCAAQYYYIABBhhggAEGFtfA1VhKLWpWg7p2IW5N1y9d3UY43WJZu2xchzn2RxwIr8fyyRQGz8Xl0WB1g9q7bPtPSIFw+2N1mNA8lv3CAAMMMMAAAwwwwAADDDDAAAPDMbBF1BMIo/zfTZ988kl88MEHcePGjUg1cT93ZBvzTsXytf17gixuIMzhtJhpucuIuqN92D0htp6RmWJvDr1d+N1WZd+/fb+j7RoFaY9v3BhggAEGGGCAAQYYYIABBhioz8AWgXBH3WA/l3U0Fo9wBuG02YPTByFHv3wacj9WleHsXCxPnmKci293CnP/vtMfb5hPinY7b12+Poq0zanZs6bC7gjy3seh3Uc5EO59ecPcB7bLfmGAAQYYYIABBhhggAEGGGBgMQxsEfVyT+omP7Ufj3cqlpfPjT8mbzQxqr+s3LFyw8l/566VLx/SOB5hIOwP3qxByYM4CnuX2h2RB3O0g5pZiN0yj5+I5vYTO7Nd1v7OWJy13vt/ebttebub5Xdjkcem/CzH8e3GY5Igji+PKG+fz6nPY3Rrc+r3qVh+sT3nvnmM/HhL4ydDeXkLPY3v5AzCGevQLO9ULC21nxuZ7p+3Zf/Hzwu4MWWAAQYYYIABBhhggAEGGGCAgWygaxWzJl5NNKXcUHJXmdqj0rK6dpI7y1q3nOn3y+ty9D8HHgi70NTbWeVlG3dmGRTL35snwMROma8nRbutGdTk9jTbmsep284U23LwS6dxt7+3s/zKyzPW8e2LUFcsa20C+cbl5RmEZSAs91dEXkYZFtttmrjdIc+AnC8LR//CYbzsAwYYYIABBhhggAEGGGCAgfk2sLEp9ban6yE59PWDYG4suZ90y8pfwJv7TGobeTmbfSHKABrIEQbCLght+jl603ZWcb88yKMpnf0d1Aas8jP7ut+L2/d2/gB2yOz12SwQ/qj7spf+tjbhLUe9iVOsG9gl2G7be+GwgFwGveb3dF237HFYnBIIy8DYPEa3/9I+aO4/ntE5a51mj4kXY2PDAAMMMMAAAwwwwAADDDDAAAO7MTCtORXLmWhOOwqEx8etI+2b9r5ls8n9pHi8rssc1b48wkCYY15/0PoDMW1WWXnZxp2Zo+A4WuWaO5xB72/jdtdrdiBculSOybTlddcXkXBWjBMIp42fy3Zn1rgZNwYYYIABBhhggAEGGGCAgaEa2NiUevtqV4HwXFyeuF9vmevdY6Y+M7DJa0caCNfWc7gqy2kerPayMvg1g9rNWsun2vYLbr5vFwUndsqGZR1xne0j2eoJ025b3u503zLy9cJeMTOvvbwb3248xvE0x9nxsnvLSeNT3CfPGMyIy2WXv4/2a4N9Il4Wsw7NINxqn7t+Z88R42W8GGCAAQYYYIABBhhggAEGtmuga0hTzq5sxnCiKfX7U570liel9ZfVNpLuuomOlTtL2XeGsM+OOBC2O60d5GKq5cTOyQObv+1ldIprecpqMztu628xHtoO2D6CDls3C7AdizKs5tjajuN4O/uX57iXHrc37l25bsc6h8PpgXBp8ktK0n7owB9rptF2jzmq4f11H61bETJH6zOx77c/Ptt9AXA7Y8oAAwwwwAADDDDAAAMMMMAAA/1WkZtT+tl0iz0EwrU8UzA3jlEz6drXqJcMx+EgAiGUwwGx6b7oQPcD7Zys+1zNFjWmmzq0L8P4eI4wwAADDDDAAAMMMMAAAwzspwGBUGzYfmwQCLc/VlwZKwYYYIABBhhggAEGGGCAAQYYmBMDAuGc7Kj9rMKW5SgDAwwwwAADDDDAAAMMMMAAAwwwwEA2IBAKhErul+IAACAASURBVGo+AwwwwAADDDDAAAMMMMAAAwwwwEDFBgTCind+rsR+OmLAAAMMMMAAAwwwwAADDDDAAAMM1GtAIBQIHSFggAEGGGCAAQYYYIABBhhggAEGGKjYgEBY8c53ZKDeIwP2vX3PAAMMMMAAAwwwwAADDDDAAAPZgEAoEDpCwAADDDDAAAMMMMAAAwwwwAADDDBQsQGBsOKdnyuxn44YMMAAAwwwwAADDDDAAAMMMMAAA/UaEAgFQkcIGGCAAQYYYIABBhhggAEGGGCAAQYqNiAQVrzzHRmo98iAfW/fM8AAAwwwwAADDDDAAAMMMMBANiAQCoSOEDDAAAMMMMAAAwwwwAADDDDAAAMMVGxAIKx45+dK7KcjBgwwwAADDDDAAAMMMMAAAwwwwEC9BgRCgdARAgYYYIABBhhggAEGGGCAAQYYYICBig0IhBXvfEcG6j0yYN/b9wwwwAADDDDAAAMMMMAAAwwwkA0IhAKhIwQMMMAAAwwwwAADDDDAAAMMMMAAAxUbOLJA+P2/fzX8MwYMMMAAAwwwwAADDDDAAAMMMMAAAwzszkCeAbjXn0cWCPe64u5vGiwDDDDAAAMMMMAAAwwwwAADDDDAAAN7NyAQVjx91BNo708gY2gMGWCAAQYYYIABBhhggAEGGGBg3g0IhAKhzxhggAEGGGCAAQYYYIABBhhggAEGGKjYgEBY8c6f97pt/R2hYYABBhhggAEGGGCAAQYYYIABBvZuQCAUCB0hYIABBhhggAEGGGCAAQYYYIABBhio2IBAWPHOV9j3XtiNoTFkgAEGGGCAAQYYYIABBhhggIF5NyAQCoSOEDDAAAMMMMAAAwwwwAADDDDAAAMMVGxAIKx458973bb+jtAwwAADDDDAAAMMMMAAAwwwwAADezcgEAqEjhAwwAADDDDAAAMMMMAAAwwwwAADDFRsQCCseOcr7Hsv7MbQGDLAAAMMMMAAAwwwwAADDDDAwLwbEAgFQkcIGGCAAQYYYIABBhhggAEGGGCAAQYqNnDEgfBqLB0/Ecfyv5MXYrXYGavLp0bX3bp8vQd1s+vmvdpaf0ceGGCAAQYYYIABBhhggAEGGGCAgYM3cHkpdalzcbnoUc24XzoXx5au9lrUlvujvM+1C3HrROeadv/Utyab17TbHfRlRxgIr8fyyRPFILR/jwY/DeTxU7F8LWKt/D3tsPLv8vfJnenvnUE2XsaLAQYYYIABBhhggAEGGGCAAQaqMZBa1Km49eSJWLrUj5G7CXe7uU8KlJOPfdAxcNryjzAQ9gc+rVwzK7Crq+Xv6bo0YLmobnbdtI102caxNibGhAEGGGCAAQYYYIABBhhggAEG6jaQzmw9F5fLmX9dHL281E1a20Es3XnsawNlMzluB49zEPtssIGwmeJZTOUs/y5/T4My+fdBDJRletFkgAEGGGCAAQYYYIABBhhggAEGFshAOiu1maiWQmEZBLtw2EW7ZqJa/ni8aacjN7crY1/5e7es5gzY9mP28gS4tfXpj9Ncn6Ll6DEPfpbhgAJhGpTxLMEU/cYD1s0u7ILhZtd5oi7QE/WI6zlLLDHAAAMMMMAAAwwwwAADDDCwwAaKmYO91jQKh/2zXZOFybNaxz7K2Ff8nsPg6PMIJ64rz6Qdxcd0myJYNrFwyuck7mM3GUggTGX1RBwbDVb/lOLRDhAIfQ7CPuIfP4kX+MXOeHnOMMAAAwwwwAADDDDAAAMMMDDVQIp9o8lpKcLlLjUKhxOhrhnHIvCV4zq6T/fdGeWy8u/p9kV8XOvuMy06NmfLHj/4mYO5jQwgEG6Mg2nlmoFwivFUwHnn+SnsMcAAAwwwwAADDDDAAAMMMMAAA7sxUJ4GnO4/joEp2DVfHFJGwxwDmxmBG2fzbYiNXdPqXZ6WUYTE5rqTp+LY0rn2sxDzY4x+ds1sNLNwN9u5vfsccSDsNrQIgRl1GqTRNxpP+5KS4j69aaCjQdzeAOTH89N4McAAAwwwwAADDDDAAAMMMMAAA7UY2DgTsO1LV5tvNm6+OGRKIGx6VTkjsOtQ6b7524jTbfLvk1920kTB5euxtt42sTyDcXyfcajMFg+jex1pIEwbOJq+ORn2miLbnW9d/p5uV/5d/j65DH+bgcgAAwwwwAADDDDAAAMMMMAAAwwwMGkg9aTJ0NdcdipuzTP2JptTCoZTT/stZyOWv0+PkG08nAiBo/WZnEzX/p2DY46G+/3zCANhGoj221vKb2U5lndC/uDH7ja5qOYBaIrtjOvybfyspfrbTtYZYIABBhhggAEGGGCAAQYYYGAHBopTfcfj1sW5Mhx2UbBtV8UXh/SCYxkCi99H0S+v12bXTYbFcTObbGLj9c3L3fvPIwyEe1/5gxgQy7RfGGCAAQYYYIABBhhggAEGGGCAAQZqMiAQ9oov/DXht628M8AAAwwwwAADDDDAAAMMMMAAAxECoUC4588haD5LMp3uXXxxTPnkak4Hn3FdebuD+z1N4e2mAU/5gNGDe1wvssaWAQYYYIABBhhggAEGGGCAAQaGb0AgFAj3GAiL+DZjLI88EE5+qOiM9fSCNfwXLPvIPmKAAQYYYIABBhhggAEGGGBg/w0IhHMTi1KIG39A5fgbb/pfo51n8Y1m9ZXfrlN+sGYxo6+8bf7gy/JLYEbfNN2EtrwOaUZe9+GdzXqdi8vN8s/F5WZMx9+yMzMQTlufbobfcvqG67Tc4oNBZ67n0rlmbJp1L5fZbHuxjmlZ3fJXm3Usx7Rb7+b6c7F0cuPjewHa/xcgY2pMGWCAAQYYYIABBhhggAEGGDh6AwLhnATCXmQbRa42cOWvuh7dpolkXfBqol76vbztrHiXbpPCX/6ZgI5vmwJdLyA2kbG4bfm4xf1G61WOdW9WX/sYZeBrt2l8eX8Z48dsLi+++frypaujGZGj+5SPNRq78bLTC1Fz2xwQ8+nIvTE7+ierF0z7gAEGGGCAAQYYYIABBhhggAEGDsKAQFhGqyH/Xszey0FwbSJg5SCWf/bAjEJh/4lUzsprv7K7jYCjy4sZfGtNAEwz68qv9R7Huvb6bc4gHIW6dn1G6zzj8tH6FLMoU1Achb1y343Ws/tcxKmBsFjvdN88Ps19N25DbyzLx/L7KMgao/5zy3gYDwYYYIABBhhggAEGGGCAgXkxIBDOW+AZxa/JWYHdLLilq200K04hbjDmADaxveWswI1o21l2KRzmmYPpNk2UG53+W4S2GXFtFP/Kx063LeLj6DYzLp+1nv1A2K1vt9zRMgVCEa+053ceGGCAAQYYYIABBhhggAEGGOgZEAjnBESKXaNIN4p95WmyXRxLYbAMdaM4lkJe/rzC8f2aiDY6RTffJv3Ms+gicpxLP0ezF0chrwiEo8fKM/La249CXTnW5W2705HHpxjnGYpbrWdxanCz7Pb25enJzWcylo81Wu/xskfRc3SKcd72cnmOemwMyMbEmDDAAAMMMMAAAwwwwAADDDCwCAYEwjJaDfr3Nlbl04BzqGsDX3va79LSqchfUjK+vJj914SyjV++kcJfXu4oQjaRcfK2bUBsb5sjXhEIu9DXXH+y/aKPtJ5TA2Ea6/Ix8ozH5rJTceuULwmZtp7NsidnIjanIZ+K5eU8S7Fb7xwAR7cvt6eLgs3jC4SL8OJmG7xJM8AAAwwwwAADDDDAAAMMMLA9AwLhoKPg9nbiQmHvBboKt5/H3hTnhbJt39q3DDDAAAMMMMAAAwwwwAADAzUgEA50x1QbRgRCL5aekwwwwAADDDDAAAMMMMAAAwwwcKgGBELgDhVcteGTM84YYIABBhhggAEGGGCAAQYYYGCgBgTCge4YIc3pxQwwwAADDDDAAAMMMMAAAwwwwAADh2FAIBQI1XsGGGCAAQYYYIABBhhggAEGGGCAgYoNCIQV7/zDKNAew5EOBhhggAEGGGCAAQYYYIABBhhgYNgGBEKB0BECBhhggAEGGGCAAQYYYIABBhhggIGKDQiEFe989X7Y9d7+sX8YYIABBhhggAEGGGCAAQYYYOAwDAiEAqEjBAwwwAADDDDAAAMMMMAAAwwwwAADFRsQCCve+YdRoD2GIx0MMMAAAwwwwAADDDDAAAMMMMDAsA0IhAKhIwQMMMAAAwwwwAADDDDAAAMMMMAAAxUbEAgr3vnq/bDrvf1j/zDAAAMMMMAAAwwwwAADDDDAwGEYEAgFQkcIGGCAAQYYYIABBhhggAEGGGCAAQYqNiAQVrzzD6NAewxHOhhggAEGGGCAAQYYYIABBhhggIFhGxAIBUJHCBhggAEGGGCAAQYYYIABBhhggAEGKjYgEFa889X7Ydd7+8f+YYABBhhggAEGGGCAAQYYYICBwzAgEAqEjhAwwAADDDDAAAMMMMAAAwwwwAADDFRsQCCseOcfRoH2GI50MMAAAwwwwAADDDDAAAMMMMAAA8M2IBAKhI4QMMAAAwwwwAADDDDAAAMMMMAAAwxUbEAgrHjnq/fDrvf2j/3DAAMMMMAAAwwwwAADDDDAAAOHYUAgFAgdIWCAAQYYYIABBhhggAEGGGCAAQYYqNiAQFjxzj+MAu0xHOlggAEGGGCAAQYYYIABBhhggAEGhm1AIBQIHSFggAEGGGCAAQYYYIABBhhggAEGGKjYgEBY8c5X74dd7+0f+4cBBhhggAEGGGCAAQYYYIABBg7DgEAoEDpCwAADDDDAAAMMMMAAAwwwwAADDDBQsQGBsOKdfxgF2mM40sEAAwwwwAADDDDAAAMMMMAAAwwM24BAKBA6QsAAAwwwwAADDDDAAAMMMMAAAwwwULEBgXBOdv7q8qk4fsfleKtZ33fjmT87EUuXNqvP12N5+Wqsvf6teObF2bd747kL8a3XZ1+v8BsbBhhggAEGGGCAAQYYYIABBhhgYLENCIRzEwjPxV/e8Ug8dyNi7Zffigf/7I42EL69Gs/ce28s3Xc5fvpuwvpuvPilz8fSvY/H0qNXY+2tq3H5pxFrr78Uy3fdG3+5dCFefDujfjeeO/PZOP3oarxy5Ttx+Zfp8uvx3HOvx0//z4V48r5zsfS3L8VqWu6Gx8nL8NOLJAMMMMAAAwwwwAADDDDAAAMMMDDPBgTCOQqEyxdX4uyzH8YbX1uJb1081wTCy3d9Pp755bvxxo9X4u7l67F26YtxNs0YfPencfbeq7F27UIsX4p446ersfqbD+ONHzweXypmHq4un4vla210XPrS67H2g0fi7mc/jMv3fjFeTGHwxS/G2UsRGx5nTsZtnp+c1t2bCwMMMMAAAwwwwAADDDDAAAMMHIYBgXBOQlcb8l6PL913IZYfvRxvXeoC4b1n4kvPvRTPPXc5vvXiWrx18YvxpTRjcP16LKcZhF0gvPrgHXH3116KF5+bEQjX341n7no8lh98vAmDlx9diZ+msfnZSpx95t24PPE4h4HTY3gRZIABBhhggAEGGGCAAQYYYIABBg7egEA4V4Ew4uqXPhtLz34Ya10gfOvSF+Mvz30nnrz7jjh75cNYe/tqPLi0Ek8+em98qphBePXBM3H269+J5aVT8RdfWRt/8OilL8af3Xc13liPeOvZe+OP7/1pc93lez8bS49+K5aXHo/Lb0dseJw5GTcvIgf/ImKMjTEDDDDAAAMMMMAAAwwwwAAD821AIBS62lj47oex+swjsfyPLejLyxdi1diMQ6qxMBYMMMAAAwwwwAADDDDAAAMMMLCgBgTCBd2xOy73b78el6+OZxa+8bPr3Tcmz3cB3/E48ODFngEGGGCAAQYYYIABBhhggAEGKjMgEFa2wwUzwZMBBhhggAEGGGCAAQYYYIABBhhgoDQgEM5RILzx/idx4/2P45330r+P/DMGDEw18HHzPEnPl/LFzu/e/BhggAEGGGCAAQYYYIABBhiYbkAgnJNAmKLg31z52/gP9/ynuOl/3uSfMWBgEwPpeZKeL+l548V/+ou/cTEuDDDAAAMMMMAAAwwwwAAD2YBAOAeBMEWOey9/Mf7VX/3rWPnR1+L99fdjfX3dP2PAwBQD6fmRnifp+ZKeNyKhN7z8hucnCwwwwAADDDDAAAMMMMDAdAMC4cADYTpN8q3ffBD//q//Yzz1o68JQlOCkFgqFk8zkJ4v6XmTnj9ON57+BuCN0bgwwAADDDDAAAMMMMAAAwwkAwLh4APhx/HGr37XnE5q5qAQNi2EuWy6i/R8Safjp+dP+uxOb3re9BhggAEGGGCAAQYYYIABBhiYbkAgHHggTKdHXntzrQkdQtD0EGRcjMssAykQpueP04ynvwF4YzQuDDDAAAMMMMAAAwwwwAADyYBAOPhA+FG89st3BEKnFju9fBcGUiBMz5/0rd/e9LzpMcAAAwwwwAADDDDAAAMMMDDdgEA4B4FwVSAUx3YRx2bNqqvp8hQI0/NHIJz+BuCN0bgwwAADDDDAAAMMMMAAAwwkAwKhQLij+PbS0ok4dvzP46vX1mP92kp89viJOLb04o6WsVWg+sXyn8ex4yfiC5f259TZZnknV+IXB7S+W22P6/dnP+5mHAVCb3T+Y4cBBhhggAEGGGCAAQYYYGBrAwKhQLijuHdQgfClpS46rq/H/gbCn8dXT56Izy7//MCC5m7ClfscTjQUCLd+E/BGaYwYYIABBhhggAEGGGCAAQYEQoFw94Fwn0577UXHfVrmOMC9GF/Yx9mI4+UeTuDyeHsbZ4HQm5z/0GGAAQYYYIABBhhggAEGGNjagEC4oIEwz8JLp+qmf80MuhTfRqfZ3teEs/b6++KlLszl+31h6b7mfs31xSnEvZg3Wtb4FOP2+vYxR6ciN8tuQ11en2PH28fMj5cvT+uZLxufYjxx33S68OT6LnenO6ftLa5vt3fGKdF5/bsx6t1vfT223JaTK/HV5pTrdnvH67u3qCUK7t/4CYRbvwl4ozRGDDDAAAMMMMAAAwwwwAADAuEiBsJLbdzLwWpq1OsC3fp6F9+6qJbj3OhzBbtl5cA4dVldQOxdt96e2tuGwO73HO5ymJt6v8lTjPvrt95b7vi2eX3z+udtb/6e+rgT67TZdm447TkHy3xa9OQ67l/gqiEW3nTTTXH69OkNM1nTZem6vYyBQOhNzn/oMMAAAwwwwAADDDDAAAMMbG1AIFzEQDgxu66dnTdjFt1oplx7/WRgmwyIvQjYC33biWQ5rHUzDLcTCCdiZxOLiss2rO+00JdnQPbWNwfMtC459OWw161nvl85A7K5bHJb87LGMzH3ErVqu28OgWUknHbZbsZFINz6TcAbpTFigAEGGGCAAQYYYIABBhgQCBcxEHaRLJ/GOzvqtUGsjGzl722Q6cevmcvqxbcc2vLPvIzpXxbSW+bEbL2N67Me60UE3HB9cV2ebZhnP45Pr+5OiR6NUz4luvvm5KnbUkbB8ve0jXn7BMLdRLx0nzIIlr/vdnn5fgKhNzn/ocMAAwwwwAADDDDAAAMMMLC1AYFwAQPhZHDr/T0lfpXXbwhuE6cgl7ftB7fJaJbjYPm5h12Ym1iH3jInAmGOgfmU4Sb8dGEvXbZhfctA2D3O6L4Tj5sjUvrZrkMKhSnyddtiBuGeTu8tx3c7v+cwOOuU4+0sY/I2AuHWbwLeKI0RAwwwwAADDDDAAAMMMMCAQLiwgXBiNlw+jTZHsvx3jmGTn0GYP7evDG6jkDb9dOXJ0Nf+fV+8lB+zW+YoxnUBro1849N8+9FvMjz2Z+v1b9ufXdjGxWJWX16PzU4T7q3j7tZpMlL5u4jF3envs8YkRcJvfvOb+xYmBUJvcv5DhwEGGGCAAQYYYIABBhhgYGsDAuECBsLR5wZ2386bv5G4mUk3imQr8dWT+dTacUQbBbfyW4GLmXS9CDha1tbfYpyX23we4sn74gvpsXOEzMtJ67v04sZZgTliTvm24bzc0SzBImg21+XHSGEqP85oe7r4mJc7+uKWNmiNQmZz/TgWjsZ3tOx+tJwVv1y+/VC4X2MlEG79JuCN0hgxwAADDDDAAAMMMMAAAwwIhAsZCDcJMRsiWf+2G4LbFjO+9ivkHMpyttj2Q1mHRRrPOdgWgdCbnP/QYYABBhhggAEGGGCAAQYY2NqAQCgQ9k7nrCEQjr60ZA4Cl2jZD9g7HQ+BcOs3AW+UxogBBhhggAEGGGCAAQYYYEAgFAirCITj04XHp1PvNDa5/d5i3VGMn0DoTc5/6DDAAAMMMMAAAwwwwAADDGxtQCCsLRCaNdcLokcRrTzm4YVGgXDrNwFvlMaIAQYYYIABBhhggAEGGGBAIBQIBTPRdGENCITe5PyHDgMMMMAAAwwwwAADDDDAwNYGBEKBcGHjkJl6hzdTb6hjLRBu/SbgjdIYMcAAAwwwwAADDDDAAAMMCIRzEAhf++U7kULH++vvi3lm+zGwTQPp+ZKeN+n58857H4U3PG94DDDAAAMMMMAAAwwwwAADDEw3IBAOPhB+HNfeXIt/e9e/iyf/fkUc2mYcGuqMNut1eLMa0/MlPW/S8+ed9z4WCAf+WudNevqbtHExLgwwwAADDDDAAAMMMHAYBgTCgf+f5hvvfxxv/Op38b++/vn4F//7X8aTV1fMJBQJheJNDKSZg+l5kp4v6XmTnj/peXQYL6gewxs3AwwwwAADDDDAAAMMMMDAPBoQCAcfCD+Jt37zQfzjz9+Kv3j6TPybv/q3zWmT6dRJ/4wBA9MNpOdJer6k5016/tx4/xOBcOCvdfP4Bmqd/YcfAwwwwAADDDDAAAMMLIoBgXAO/k9zOj3yzRvvN7Hj5R+/Gpdf/lF89/s/jO++4J8xYKBn4Ps/bJ4f6XmS4mB63ji92Bv2orxh2w6WGWCAAQYYYIABBhhg4KAMCIRzEAjTzk+RI82ESqdLps9US1+8sOqfMWCgZyA9L9LzIz1P0vNFHPTmeVBvnpbLFgMMMMAAAwwwwAADDCySAYFwTgJhQpdOk0yfpZaiR/pWVv+MAQPTDHzcPE+cVuzNepHerG0LzwwwwAADDDDAAAMMMHCQBgTCOQqEBwnBsr3QMMAAAwwwwAADDDDAAAMMMMAAA3UaEAgFQl/ewAADDDDAAAMMMMAAAwwwwAADDDBQsQGBsOKd76hAnUcF7Hf7nQEGGGCAAQYYYIABBhhggAEGSgMC4bwEwl+vxv0Pfjo+940n4nN/c1uc/9l2IK/G/U+/vOkRgFeefiQubjYG763FlRdW4/pmt9nRdWvx/A/e3LBOF59+JF7Z0XLy9r8Z9z99acPySuR+z2PlJwsMMMAAAwwwwAADDDDAAAMMMLDRgEC4qyi1cSAPGtcrT5+Ou1/pHve91Xj+B2uxtr4ezz9zZ9z+4D1x/u/XY219NVJo+9yDp+P251Zj7WePxO/ddTou/ixd/kDc/uizce3tl+P+h+6M2x57Iq68HZED4bXvPRC3PXg6PpfuV47JSw/E7eeW4v7Xusf+zZvx/HefjZUfp8ePWJv8OwXFdP0P2+uv/fgnceWHz8ZKExnTdffEf773nlj57svxyq/H43hx5XTc/eht8ZmHn42/ey9i7e2fxGOPpvXs/v75pbj/4dPxmYceieffTvdbj+dXTsdtjz4Qt62kQLgeVy4uNWOxkuLp9Uux8vQ98ZmnJ7an3Da/9/e18TAeDDDAAAMMMMAAAwwwwAADDFRpQCCcE/gXH7pz40y/7y3FHS+lWLYW5x96IP5u/VLc/lAby1aeSDPy8t/5Z8TFLy/F8ynAvfFE3P7kahcI34zzDy3Fxf+7Fq/8eDWuFWPy/OMPxPM/fyLueDrN+luLxx5+IK78JoXB9nH7f0dcWVmKi29HXHt2qQmaFx/6/ebn9W8vxd3/kO4zXpcyRF58+M64+F7E9efa2z3/8Ol47I21uPbjB+L2p9+Ma//wk7j26/W49oN74u7vRazlbX/v5bjjy5di7cU747Zn1+La9Z/E3ecfiVdee6S5X/kYfk/j758xYIABBhhggAEGGGCAAQYYYICBvgGBcE6CyStP39YFtoi1916O+5/+SbxycSnu7041TgHx+fVLcX8T8qKZSVgGwvbytXjs0Ufi79I2v3cpbn/45dEMwuvXV+P5bzwQn7n3nriSxyTFt7v+JG5/+Lb4vb9OwfHlLkBmRJN/r8VjD52O82kG4XefjSu/jBiFze/dGbe/mO43IxDmU4zT7b4XcfHR2+LubjmPvbQWVx7/k7j9G8/G899tA2EOiWnW5P1pBuH3luIzK+3jrnz75bj22iNxfwqJeVv8NBYMMMAAAwwwwAADDDDAAAMMMMDAVAMC4bzA+PXLcffZT8cdTz4Qd+TPIHz7Unzu/CPx2DeW4ranf9LEt34gfDPuf+DT8dgr43B4/Xv3xO0rz8T5L5+O+3+cTzFej+cfvzPu/vYTccdDT4w/C/Clpbiji2yvPH1nc5rxladPx+1PPxH3f6c9dXfy72vfvjM+8+QzsfKNZ+Li9RQIfz/uSMs9/0R76vD6m3H+wTvj/LefjeevjwPe6DMIu0B4PQW/x56J8w9/Ou54cT2uPH5bfO7bz8T95/8o/vTrb8Zat+3nV+6M30szCN++FHc8cE8zFn/65Zfj+igQvhmPPfbMeJvmZX9bz6kvWILv+DljLIwFAwwwwAADDDDAAAMMMMDAfhkQCIWYAw0xoxmExvlAx3m/XhAsx5sLAwwwwAADDDDAAAMMMMAAA/UZEAiFqwMNV+lLSsrPNPQiU9+LjH1unzPAAAMMMMAAAwwwwAADDDAwbAMCoUB4oIHQC8CwXwDsH/uHAQYYYIABBhhggAEGGGCAAQYEQoFQIGSAAQYYYIABBhhggAEGGGCAAQYYqNiAQFjxzneEwBECBhhggAEGGGCAAQYYYIABBhhggAGBUCB0hIABBhhggAEGGGCAAQYYYIABBhhgoGIDAmHFO98RAkcIGGCAAQYYYIABBhhggAEGGGCAAQYEQoHQYFLq1QAAFxZJREFUEQIGGGCAAQYYYIABBhhggAEGGGCAgYoNCIQV73xHCBwhYIABBhhggAEGGGCAAQYYYIABBhgQCAVCRwgYYIABBhhggAEGGGCAAQYYYIABBio2IBBWvPMdIXCEgAEGGGCAAQYYYIABBhhggAEGGGBAIBQIHSFggAEGGGCAAQYYYIABBhhggAEGGKjYgEBY8c53hMARAgYYYIABBhhggAEGGGCAAQYYYIABgVAgdISAAQYYYIABBhhggAEGGGCAAQYYYKBiAwJhxTu/piME3770ohc61hlggAEGGGCAAQYYYIABBhhggIEpBgTCKYNSUzirZVsFQtOla7FuO1lngAEGGGCAAQYYYIABBhjYqQGBUCCsopwLhF4cd/ri6PbMMMAAAwwwwAADDDDAAAMM1GJAIJybQHg1lo6fiGOT/5auHkHgux7LJ0/EsW0+9uryqTh2/FQsXyteWK5diFuPn4hbl69PX//u+qVLxX32sK82D4STY3suLm/2WJfOxbHjW9xms/u7bvo+Ny7GhQEGGGCAAQYYYIABBhhggIEjMSAQzg28NmLNDGqHuh07C4RrU2Lg1GhYbsMhBsLLS/3Y2fx98kKslutT/i4QHsmLVS1HbWzn/hwUMI7GkQEGGGCAAQYYYIABBhjYvgGBsAw/g/59s0DYzYBrZvR18S4HriZm5ZmHeRZft6ylc80svjQr8dblC+MZit19c8RbWkozANMy8v0nAmEX89rbTJtZN7FO6/2/myCXZ0bm9S4DYbcN7WzC/n3X1rtt763fxifA7BmE7fJmhtdy2/K6dYFwKYXF9Lj58vWIdsy6y/MMy3T7kxdiubz9aL/kMY3ojYMZiiLkoF+PNj7HvPEaEwYYYIABBhhggAEGGGBgfg0IhHPzf8LLEJaD34nIp+DmMHXryfJ03vY+vbDWRKtuWV3YasNUF6qKGDdaZnca8HhmXRfpimXl9Rjfpv+kyLGxOc14Q/zromJ5efl7sU5rvbjYj3vtY0wLlBGzA2FEnuE4GfvyY+V4mLat+b23PsUYp8tHsbBdt2Zcpty+PT27XP+rcXl0OnVx37nx2d/f3hSMBwMMMMAAAwwwwAADDDDAAAPzY0AgnJsA04aoHKs2PsnaqJQi1+Rt2gBYzmrrL6u9fmOk60W90ey4FBK7x0qBsItf7ezBHC6nRLou+KV12xjyumDZzSJsotp2AmF3m/5jj2fklWO0aSAsDIzGahQ/pyyv2ea8jeOY125XHoNivGfcPq3fKDp26zB6/OPj+Ftuh9/n58XVvrKvGGCAAQYYYIABBhhggAEG5sWAQFjEoWHvtH7U27iuRWRr4lYxM675u4h63Wm5OSTuRyDMMwg3rld+Mege/+S5WCq+4CRHtQ1RcAeBMG/H7MfeYgbhpIHmsVMATGO6w0CYx75c5nYCYbe97baMo+Nm2+S6bMtPFhhggAEGGGCAAQYYYIABBhjYiwGBsAw5g/5980A4mu23nL5ht5t91s3ua+NdFxBHM+PGMw03D4QTt2tOod0YG8tTZmd9u3GOgaP162bQjb4RuFzfMhD24lm3HeV6lKdKj07x7b8wzJ5BOGVc0+MVy88BshmnNH6zgl9zeQ6K7Rg19511+3IGYbONG2dx7uXJ7b59A8bDeDDAAAMMMMAAAwwwwAADDDAw3YBAOOgoWO60LozlL/PIP1PI6gW0Lt41X3KRf0+nu56KW9PMvSZ89aPY5oHwVGz5JSVd2GtP9c2n3pbr3v3erecoCKaxH12W1u1U86UpTVTrLm/jZrEdeQZiDoHl/afN9uv27+xAOLEOzbiW21COe3f5JsGvjKCjULrJ7dPYl7MGmzHsvtAkh0kvXlMszc3z1rrzywADDDDAAAMMMMAAAwwwMHwDAqHQMPPbYkezEq8NH/JWLzabBkIGZhrYalxdP//PDfvQPmSAAQYYYIABBhhggAEGGBAIxaGZcUgg9ALhTYIBBhhggAEGGGCAAQYYYIABBhbfgEAoEM4MhIv0AmAG4eK/mC2SV9vCKwMMMMAAAwwwwAADDDDAwGEaEAgFQoGQgSoMHOYLq8fyRs4AAwwwwAADDDDAAAMMMDBPBgRCcUgcYoABBhhggAEGGGCAAQYYYIABBhio2IBAWPHOn6eSbV0deWGAAQYYYIABBhhggAEGGGCAAQYOxoBAKBA6QsAAAwwwwAADDDDAAAMMMMAAAwwwULEBgbDina+6H0x1N67GlQEGGGCAAQYYYIABBhhggAEG5smAQCgQOkLAAAMMMMAAAwwwwAADDDDAAAMMMFCxAYGw4p0/TyXbujrywgADDDDAAAMMMMAAAwwwwAADDByMAYFQIHSEgAEGGGCAAQYYYIABBhhggAEGGGCgYgMCYcU7X3U/mOpuXI0rAwwwwAADDDDAAAMMMMAAAwzMkwGBUCB0hIABBhhggAEGGGCAAQYYYIABBhhgoGIDAmHFO3+eSrZ1deSFAQYYYIABBhhggAEGGGCAAQYYOBgDAqFA6AgBAwwwwAADDDDAAAMMMMAAAwwwwEDFBgTCOdr5X1n5evzBH/5R3Hzzzf4ZAwYYYIABBhhggAEGGGCAAQYYWBgDqXek7mGG4MHMENxqXAXCOQmE6UkiDAqjDDDAAAMMMMAAAwwwwAADDDCwyAZEQoFQJd4kVpo56A1gkd8AbBvfDDDAAAMMMMAAAwwwwAADyUDqH1vNdnP9/kdEMwg3iXJDAueF0gslAwwwwAADDDDAAAMMMMAAAwzUYGBIPaaWdREIBUKnLvvMCgYYYIABBhhggAEGGGCAAQYYGIyBWqLckLZTIBQIB/MCUMNRENvoaB8DDDDAAAMMMMAAAwwwwAADmxsYUjirZV0EQoFQIHSUiAEGGGCAAQYYYIABBhhggAEGBmOglig3pO0UCAXCwbwAOIKy+REU42N8GGCAAQYYYIABBhhggAEGajAwpHBWy7oIhHMfCO+KF34b3f9W4ylHPARPBhhggAEGGGCAAQYYYIABBhiYYwO1RLkhbadAuCCBcHXFUZQajqLYRs4ZYIABBhhggAEGGGCAAQYW3cCQwlkt6yIQCoSOqszxUZVFf1Owff7DhwEGGGCAAQYYYIABBhioz0AtUW5I2ykQCoQCoUDIAAMMMMAAAwwwwAADDDDAAAODMTCkcFbLugiEAuFgXgAcFarvqJB9bp8zwAADDDDAAAMMMMAAAwxMGqglyg1pOwVCgVAgdJSIAQYYYIABBhhggAEGGGCAAQYGY2BI4ayWdREIBcLBvABMHjHwt6NIDDDAAAMMMMAAAwwwwAADDNRnoJYoN6TtFAgFQoHQUSIGGGCAAQYYYIABBhhggAEGGBiMgSGFs1rWRSAUCAfzAuCoUH1Hhexz+5wBBhhggAEGGGCAAQYYYGDSQC1RbkjbKRAuSCCM5n+r8ZQjHoInAwwwwAADDDDAAAMMMMAAAwzMsYEhhbNa1kUgnPtA6EjD5JEGfzPBAAMMMMAAAwwwwAADDDDAwPwaqCXKDWk7BUKB0FGVOT6q4g1vft/w7Dv7jgEGGGCAAQYYYIABBhiYbmBI4ayWdREIBUKBUCBkgAEGGGCAAQYYYIABBhhggIHBGKglyg1pOwVCgXAwLwCOnEw/cmJcjAsDDDDAAAMMMMAAAwwwwEBNBoYUzmpZF4FQIBQIHSVigAEGGGCAAQYYYIABBhhggIHBGKglyg1pOwXCygLhLVfOxvmPzsTJpdNx9qOzcXppP4/C3BKn187H+VdPRvM4a6fjFi+wg3mBrelok23dz+e1ZfHEAAMMMMAAAwwwwAADh2tgSOGslnURCCsLhDc/dSbOp3C3IRCejDMfnY/zH52PM0+Nn/gnX20vS5efvXJLF7vGt+1ffnOk26fbCYTjMfRGYiwYYIABBhhggAEGGGCAAQYY2L6BWqLckLZTIKw1EN6cIt+ZONnM8Gtn/p15qg1/o0CYIuKrJ9somMLitBmHE5fnQNiEyHxfswjNImSAAQYYYIABBhhggAEGGGCAgW0aGFI4q2VdBMLaAuGmT8aJQFjediIEjo58NJfn0Lj9owGj+5eP4XdvFgwwwAADDDDAAAMMMMAAAwxUb6CWKDek7RQIBcLihWdWIBx/tuAo7DVhsD39eHzqsUA4Gh9vaIUrLrhggAEGGGCAAQYYYIABBhjYvoEhhbNa1kUgFAiLkDM9EDafQzjzC0fa+4iE23+h86ZgrBhggAEGGGCAAQYYYIABBhiYbaCWKDek7RQIBcJNA+HmcTA9madHxY0vdHfFC7+NiN++EHeZXVeM+ewXxI1j6LbGhAEGGGCAAQYYYIABBhhgYPENDCmc1bIuAqFAGDff3J1C3H2Lcfpm4uabjovTiJvL8jcZT16+zS8jeeq1SIUwXvirxX8x84ZlHzPAAAMMMMAAAwwwwAADDDCwOwO1RLkhbadAKBAe3my2ldWIWI2nzCA8vDE31saaAQYYYIABBhhggAEGGGBgzgwMKZzVsi4CoUB4CC+U3enF4uAhjPXujs44qmXcGGCAAQYYYIABBhhggAEGhmKglig3pO0UCAVC0WrOjqQM5QXbeviPBwYYYIABBhhggAEGGGCAgYMwMKRwVsu6CIQCoUAoEDLAAAMMMMAAAwwwwAADDDDAwGAM1BLlhrSdAqFAOJgXgIM46mCZjmYxwAADDDDAAAMMMMAAAwwwMF8GhhTOalkXgVAgFAgdJWKAAQYYYIABBhhggAEGGGCAgcEYqCXKDWk7BUKBcDAvAI7ozNcRHfvL/mKAAQYYYIABBhhggAEGGDgIA0MKZ7Wsi0BYWSC85crZOP/RmTi5dDrOfnQ2Ti/t54vZLXF67Xycf/VkNI+zdjpucQRGgGWAAQYYYIABBhhggAEGGGCAgR0YqCXKDWk7BcLKAuHNT52J8yncTQ2EJ+PMR+fj/Cgc5r/TZeXlKSqW141D48lXz8fZK7cIhDt44TuIoy2WuZ/h27J4YoABBhhggAEGGGCAAQYO08CQwlkt6yIQ1hoIm8B3Jk4WIaudXViGwDYCnnlq8oWwi4OvntxwBCQHwiZETrn+MF9QPNbkfvM3EwwwwAADDDDAAAMMMMAAA8M3UEuUG9J2CoS1BcIiCPZfFFP0OxunnypPPZ4RCNMsxNEsw+G/sPS30/oaDwYYYIABBhhggAEGGGCAAQaGbGBI4ayWdREIBcJmFmCa+Zc+O/Dm3qnH3UzB5vTi8+2pyTff3J4+/NGZOJPus+HUYy+yQ36RtW58MsAAAwwwwAADDDDAAAMMDN1ALVFuSNspEAqE/SjYC4Tli2YbC9PnCzanD390PtpTj8dfTDL0FxjrV+5Pv/PAAAMMMMAAAwwwwAADDDAwTANDCme1rItAKBB2MwLzbMD8c/zFI80LZhMOuyjY/J4/v1Ag9IYyzDcU+8V+YYABBhhggAEGGGCAAQbm00AtUW5I2ykQCoT9LxopZxB2UbA9jbj9duL84jr+QpPxqcf5Oj/n8wXYfrPfGGCAAQYYYIABBhhggAEGhmBgSOGslnURCAXCfiCc+SUmXiSH8CJpHThkgAEGGGCAAQYYYIABBhhYdAO1RLkhbadAKBAKhKIoAwwwwAADDDDAAAMMMMAAAwwMxsCQwlkt6yIQCoSDeQFY9CMgts9RPgYYYIABBhhggAEGGGCAAQa2NlBLlBvSdgqEAqFA6CgRAwwwwAADDDDAAAMMMMAAAwwMxsCQwlkt6yIQCoSDeQFwFGXroyjGyBgxwAADDDDAAAMMMMAAAwwsuoFaotyQtlMgFAgFQkeJGGCAAQYYYIABBhhggAEGGGBgMAaGFM5qWReBUCAczAvAoh8BsX2O8jHAAAMMMMAAAwwwwAADDDCwtYFaotyQtlMgnPtA+FSsRve/374QdzniIXgywAADDDDAAAMMMMAAAwwwwMAcGxhSOKtlXQTCuQ+EbXm/6/u/jRAIvQHM8RuAo2hbH0UzRsaIAQYYYIABBhhggAEGajBQS5Qb0nYKhAKhqCaqMcAAAwwwwAADDDDAAAMMMMDAYAwMKZzVsi4CoUA4mBeAGo6C2EZH+xhggAEGGGCAAQYYYIABBhjY3EAtUW5I2ykQCoQCoaNEDDDAAAMMMMAAAwwwwAADDDAwGANDCme1rItAKBAO5gXAEZTNj6AYH+PDAAMMMMAAAwwwwAADDDBQg4FaotyQtlMgFAgFQkeJGGCAAQYYYIABBhhggAEGGGBgMAaGFM5qWReBUCAczAtADUdBbKOjfQwwwAADDDDAAAMMMMAAAwxsbqCWKDek7RQIBUKB0FEiBhhggAEGGGCAAQYYYIABBhgYjIEhhbNa1kUgnPtA+FSsRve/374Qd3lBG8wLmiNCmx8RMj7GhwEGGGCAAQYYYIABBhhgYJqBWqLckLZTIJz7QOjFZNqLicu4YIABBhhggAEGGGCAAQYYYGA+DQwpnNWyLgKhQGjGnVmXDDDAAAMMMMAAAwwwwAADDDAwGAO1RLkhbadAKBAO5gXAkZ35PLJjv9lvDDDAAAMMMMAAAwwwwAAD+2lgSOGslnURCAVCgdBRIgYYYIABBhhggAEGGGCAAQYYGIyBWqLckLZTIJyTQPgHf/hHg3mi7udRActylIkBBhhggAEGGGCAAQYYYIABBrKB1D+GFM5qWReBcE4C4VdWvi4QOprDAAMMMMAAAwwwwAADDDDAAAMLbSD1j1qi3JC2UyCck0CY0KQniZmEjqrkoyp+ssAAAwwwwAADDDDAAAMMMLAoBlLvEAfjyOKoQDhHgXBIZdm6HN2T1tgbewYYYIABBhhggAEGGGCAAQYY2E8DAqFAeGR1ej8hW5YXRgYYYIABBhhggAEGGGCAAQYYYGB3BgRCgVAgZIABBhhggAEGGGCAAQYYYIABBhio2IBAWPHOV9V3V9WNm3FjgAEGGGCAAQYYYIABBhhggIFFMiAQCoSOEDDAAAMMMMAAAwwwwAADDDDAAAMMVGxAIKx45y9S6bYtjtwwwAADDDDAAAMMMMAAAwwwwAADuzMgEAqEjhAwwAADDDDAAAMMMMAAAwwwwAADDFRsQCCseOer6rur6sbNuDHAAAMMMMAAAwwwwAADDDDAwCIZEAgFQkcIGGCAAQYYYIABBhhggAEGGGCAAQYqNiAQVrzzF6l02xZHbhhggAEGGGCAAQYYYIABBhhggIHdGRAIBUJHCBhggAEGGGCAAQYYYIABBhhggAEGKjYgEFa881X13VV142bcGGCAAQYYYIABBhhggAEGGGBgkQwIhAKhIwQMMMAAAwwwwAADDDDAAAMMMMAAAxUbEAgr3vmLVLptiyM3DDDAAAMMMMAAAwwwwAADDDDAwO4MbDsQrq2tRbqxgd7dQBs348YAAwwwwAADDDDAAAMMMMAAAwwwMEQDTfNbW4sPPvggPvnkk5j8303pwg8//DB+/etfC4RmGwrEDDDAAAMMMMAAAwwwwAADDDDAAAMLZiAFwtT+UgOcGQj/+Z//OX73u9/F/3j24/je60rvEEuvdeKSAQYYYIABBhhggAEGGGCAAQYYYGCnBlLrS80vtb/UAGcGwo8++ijW19fjuVf/Kf77Nz8RCResEu8Ujtt7sWGAAQYYYIABBhhggAEGGGCAAQbm30CKg6n1peaX2l9qgFMDYTrnOF2RCuJ7773X3CFVxTT10D9jwAADDDDAAAMMMMAAAwwwwAADDDDAwHwaSI0vxcHU/GbNHkxt8Kb8oYQff/xxc8NUE9OUw3Recvrikhs3bvhnDBhggAEGGGCAAQYYYIABBhhggAEGGJgTA6nppbaXGl9qfSkOpvY363+jQJhukGYSpqmG6U7pQwvTN5v4ZwwYYIABBhhggAEGGGCAAQYYYIABBhiYLwOp7aXGN+u04jIW/n/GBYGbY9FDAgAAAABJRU5ErkJggg==;" parent="94" vertex="1"><mxGeometry y="1020" width="811" height="495.54" as="geometry"/></mxCell></root></mxGraphModel></diagram></mxfile>